<?xml version="1.0" encoding="UTF-8"?>
<svg version="1.1" xmlns="http://www.w3.org/2000/svg" width="275" height="183">
<path d="M0 0 C90.75 0 181.5 0 275 0 C275 60.39 275 120.78 275 183 C184.25 183 93.5 183 0 183 C0 122.61 0 62.22 0 0 Z " fill="#C19BF1" transform="translate(0,0)"/>
<path d="M0 0 C8.13772537 0.59997277 16.10026742 1.74999636 24.13671875 3.14453125 C25.37380081 3.35559006 26.61088287 3.56664886 27.88545227 3.78410339 C31.15968418 4.34342244 34.43325748 4.90631674 37.70654297 5.47113037 C42.24035233 6.25242184 46.7754077 7.0264581 51.31033325 7.80123901 C53.84978605 8.23646788 56.38875455 8.67453249 58.92721558 9.11550903 C65.00146124 10.16728041 71.07568534 11.17502059 77.17431641 12.07568359 C78.84757744 12.33003426 78.84757744 12.33003426 80.55464172 12.58952332 C82.64536302 12.90473261 84.73829139 13.20574279 86.8334198 13.4901886 C87.7531105 13.63095322 88.67280121 13.77171783 89.62036133 13.91674805 C90.42242508 14.03036179 91.22448883 14.14397552 92.05085754 14.2610321 C94 15 94 15 95.24055481 16.89398193 C96.21382525 19.59295898 96.57725984 22.15536759 96.9296875 25.00390625 C97.08324707 26.20644043 97.23680664 27.40897461 97.39501953 28.64794922 C97.55341309 29.93975098 97.71180664 31.23155273 97.875 32.5625 C98.2201872 35.28564347 98.5709239 38.00806285 98.921875 40.73046875 C99.0103067 41.42118469 99.0987384 42.11190063 99.18984985 42.82354736 C100.2099321 50.73783103 101.39883066 58.62608893 102.60498047 66.51391602 C103.55769795 72.8035509 104.39776302 79.09859321 105.17103577 85.41279602 C106.35303029 94.97815341 107.72134383 104.5184395 109.0625 114.0625 C109.33408956 116.0019384 109.60557448 117.94139145 109.87695312 119.88085938 C110.90950384 127.25515361 111.94694255 134.62859782 113 142 C75.38 142 37.76 142 -1 142 C-2.23141817 97.6689457 -2.23141817 97.6689457 -2.54296875 84.28125 C-2.56354025 83.3976329 -2.58411175 82.51401581 -2.60530663 81.60362244 C-2.9695613 65.76291394 -3.24593035 49.92419701 -3.29956055 34.07910156 C-3.30814457 31.70472876 -3.32176616 29.3303685 -3.34057617 26.95605469 C-3.36404325 23.68925162 -3.36720173 20.42312046 -3.36328125 17.15625 C-3.37241043 16.21817505 -3.38153961 15.2801001 -3.39094543 14.31359863 C-3.35176231 8.77828456 -2.54383765 4.93380906 0 0 Z " fill="#1844BE" transform="translate(130,41)"/>
<path d="M0 0 C5.12844335 0 9.07377791 0.01279442 13.94335938 0.85449219 C15.04651489 1.04178894 16.14967041 1.22908569 17.28625488 1.42205811 C18.46022827 1.62824768 19.63420166 1.83443726 20.84375 2.046875 C22.70574036 2.36558563 22.70574036 2.36558563 24.60534668 2.69073486 C27.90460211 3.25658863 31.20277931 3.82806019 34.50054932 4.40246582 C39.06026204 5.19501151 43.62199467 5.97588476 48.18334961 6.75891113 C50.7394068 7.19930028 53.29491621 7.64288126 55.84985352 8.08972168 C61.95398682 9.15418494 68.05773431 10.17370024 74.1875 11.08007812 C75.86096497 11.33449677 75.86096497 11.33449677 77.5682373 11.59405518 C79.657583 11.90883426 81.74913813 12.20939056 83.84289551 12.49334717 C84.76163452 12.63379456 85.68037354 12.77424194 86.62695312 12.91894531 C87.42782349 13.03216125 88.22869385 13.1453772 89.05383301 13.26202393 C91 14 91 14 92.24014282 15.8938446 C93.2138983 18.59287861 93.5772332 21.15515235 93.9296875 24.00390625 C94.08324707 25.20644043 94.23680664 26.40897461 94.39501953 27.64794922 C94.55341309 28.93975098 94.71180664 30.23155273 94.875 31.5625 C95.2201872 34.28564347 95.5709239 37.00806285 95.921875 39.73046875 C96.0103067 40.42118469 96.0987384 41.11190063 96.18984985 41.82354736 C97.2099321 49.73783103 98.39883066 57.62608893 99.60498047 65.51391602 C100.55769795 71.8035509 101.39776302 78.09859321 102.17103577 84.41279602 C103.35303029 93.97815341 104.72134383 103.5184395 106.0625 113.0625 C106.33408956 115.0019384 106.60557448 116.94139145 106.87695312 118.88085938 C107.90950384 126.25515361 108.94694255 133.62859782 110 141 C87.89 141 65.78 141 43 141 C44.98 138.36 46.96 135.72 49 133 C49.66 133 50.32 133 51 133 C50.67 132.01 50.34 131.02 50 130 C51.65 129.67 53.3 129.34 55 129 C54.7215625 128.071875 54.7215625 128.071875 54.4375 127.125 C54 125 54 125 55 123 C55.66 123 56.32 123 57 123 C57 123.66 57 124.32 57 125 C57.66 125 58.32 125 59 125 C58.67 124.01 58.34 123.02 58 122 C58.9375 119.8125 58.9375 119.8125 60 118 C60.99 118 61.98 118 63 118 C63 117.34 63 116.68 63 116 C61.48986328 115.92652344 61.48986328 115.92652344 59.94921875 115.8515625 C48.91804072 115.27753293 37.97492605 114.24085333 27 113 C27 112.67 27 112.34 27 112 C35.7895223 110.59435385 43.30255728 111.53234585 51.90625 113.23046875 C56.905452 114.21145741 61.91854031 114.68172283 67 115 C67 114.01 67 113.02 67 112 C67.66 112 68.32 112 69 112 C69.4021875 111.1028125 69.4021875 111.1028125 69.8125 110.1875 C71 108 71 108 72.5625 106.5625 C74.45263121 104.50800956 74.6324247 102.72005723 75 100 C75.33 100.66 75.66 101.32 76 102 C76.99 102 77.98 102 79 102 C79 101.01 79 100.02 79 99 C78.01 99 77.02 99 76 99 C76.33 98.34 76.66 97.68 77 97 C78.98 97 80.96 97 83 97 C82.67 96.34 82.34 95.68 82 95 C80.865625 94.87625 79.73125 94.7525 78.5625 94.625 C77.386875 94.41875 76.21125 94.2125 75 94 C73.5625 91.9375 73.5625 91.9375 73 90 C73.99 90 74.98 90 76 90 C75.67 88.68 75.34 87.36 75 86 C77.46278801 84.768606 79.2795055 84.92840804 82 85 C82.4021875 83.4221875 82.4021875 83.4221875 82.8125 81.8125 C84.06156239 77.80235233 85.47096539 74.68926278 88.3046875 71.55859375 C92.28173982 66.89623016 92.61777277 62.99577799 92.375 56.94921875 C91.86060141 52.90368814 90.65274509 49.71867645 89 46 C89 45.34 89 44.68 89 44 C88.34 44 87.68 44 87 44 C86.81824219 43.36191406 86.63648438 42.72382812 86.44921875 42.06640625 C86.19785156 41.24011719 85.94648438 40.41382813 85.6875 39.5625 C85.44386719 38.73878906 85.20023437 37.91507813 84.94921875 37.06640625 C84.63597656 36.38449219 84.32273437 35.70257813 84 35 C82.515 34.505 82.515 34.505 81 34 C80.505 31.03 80.505 31.03 80 28 C79.01 28 78.02 28 77 28 C76.505 26.02 76.505 26.02 76 24 C75.21625 23.87625 74.4325 23.7525 73.625 23.625 C71 23 71 23 69 21 C69 19.68 69 18.36 69 17 C66.98177083 16.54427083 64.96354167 16.08854167 62.9453125 15.6328125 C61 15 61 15 59 13 C56.5531558 12.3663745 56.5531558 12.3663745 53.6953125 11.96484375 C52.63699219 11.79533203 51.57867187 11.62582031 50.48828125 11.45117188 C49.37839844 11.28166016 48.26851562 11.11214844 47.125 10.9375 C44.93989711 10.59376159 42.75499243 10.24876019 40.5703125 9.90234375 C39.59852051 9.75273193 38.62672852 9.60312012 37.62548828 9.44897461 C35.37641722 9.06436966 33.20219296 8.59139589 31 8 C31 8.33 31 8.66 31 9 C25.08739655 9.25706972 19.76081841 8.2982126 14 7 C13.7525 7.94875 13.505 8.8975 13.25 9.875 C12 13 12 13 10 14.25 C9.34 14.4975 8.68 14.745 8 15 C7.34 15.66 6.68 16.32 6 17 C4.02 17 2.04 17 0 17 C0 11.39 0 5.78 0 0 Z " fill="#083EBB" transform="translate(133,42)"/>
<path d="M0 0 C8.03176916 6.29851647 13.28748951 13.67476586 16.02734375 23.58984375 C16.22265625 27.01953125 16.22265625 27.01953125 16.15234375 30.46484375 C16.13429688 31.61726563 16.11625 32.7696875 16.09765625 33.95703125 C16.07445312 34.82585937 16.05125 35.6946875 16.02734375 36.58984375 C9.27734375 40.58984375 9.27734375 40.58984375 7.02734375 40.58984375 C7.02734375 45.20984375 7.02734375 49.82984375 7.02734375 54.58984375 C3.81876408 54.44837729 0.61055187 54.30182215 -2.59765625 54.15234375 C-3.95310547 54.09336914 -3.95310547 54.09336914 -5.3359375 54.03320312 C-11.04176251 53.7624888 -16.45347765 53.47459549 -21.88671875 51.56640625 C-25.42999583 50.44511604 -28.64177522 50.1746106 -32.34765625 49.96484375 C-33.59289062 49.89007813 -34.838125 49.8153125 -36.12109375 49.73828125 C-37.06210938 49.68929687 -38.003125 49.6403125 -38.97265625 49.58984375 C-39.05 48.61144531 -39.12734375 47.63304687 -39.20703125 46.625 C-40.08441623 38.30592694 -40.08441623 38.30592694 -44.80859375 31.73046875 C-46.9268227 30.1347661 -49.07974879 28.80531627 -51.35546875 27.421875 C-53.97265625 25.58984375 -53.97265625 25.58984375 -54.82421875 23.61328125 C-54.87320313 22.94554687 -54.9221875 22.2778125 -54.97265625 21.58984375 C-55.0396875 20.91566406 -55.10671875 20.24148437 -55.17578125 19.546875 C-55.37305867 10.52143298 -53.11112356 3.92504541 -46.87109375 -2.68359375 C-33.08889564 -15.21802084 -13.6631211 -9.70995767 0 0 Z " fill="#F9D308" transform="translate(202.97265625,66.41015625)"/>
<path d="M0 0 C8.03176916 6.29851647 13.28748951 13.67476586 16.02734375 23.58984375 C16.22265625 27.01953125 16.22265625 27.01953125 16.15234375 30.46484375 C16.13429688 31.61726563 16.11625 32.7696875 16.09765625 33.95703125 C16.07445312 34.82585937 16.05125 35.6946875 16.02734375 36.58984375 C9.27734375 40.58984375 9.27734375 40.58984375 7.02734375 40.58984375 C7.02734375 45.20984375 7.02734375 49.82984375 7.02734375 54.58984375 C3.81876408 54.44837729 0.61055187 54.30182215 -2.59765625 54.15234375 C-3.95310547 54.09336914 -3.95310547 54.09336914 -5.3359375 54.03320312 C-11.04176251 53.7624888 -16.45347765 53.47459549 -21.88671875 51.56640625 C-25.42999583 50.44511604 -28.64177522 50.1746106 -32.34765625 49.96484375 C-33.59289062 49.89007813 -34.838125 49.8153125 -36.12109375 49.73828125 C-37.06210938 49.68929687 -38.003125 49.6403125 -38.97265625 49.58984375 C-39.05 48.61144531 -39.12734375 47.63304687 -39.20703125 46.625 C-40.08441623 38.30592694 -40.08441623 38.30592694 -44.80859375 31.73046875 C-46.9268227 30.1347661 -49.07974879 28.80531627 -51.35546875 27.421875 C-53.97265625 25.58984375 -53.97265625 25.58984375 -54.82421875 23.61328125 C-54.87320313 22.94554687 -54.9221875 22.2778125 -54.97265625 21.58984375 C-55.0396875 20.91566406 -55.10671875 20.24148437 -55.17578125 19.546875 C-55.37305867 10.52143298 -53.11112356 3.92504541 -46.87109375 -2.68359375 C-33.08889564 -15.21802084 -13.6631211 -9.70995767 0 0 Z M-29.97265625 -4.41015625 C-28.44603767 3.09571843 -26.27944801 10.28500318 -23.97265625 17.58984375 C-26.94265625 10.65984375 -29.91265625 3.72984375 -32.97265625 -3.41015625 C-34.95265625 -2.75015625 -36.93265625 -2.09015625 -38.97265625 -1.41015625 C-40.26562612 1.40103047 -40.26562612 1.40103047 -39.27587891 3.36743164 C-38.71199463 4.33024048 -38.71199463 4.33024048 -38.13671875 5.3125 C-37.52957031 6.36727539 -37.52957031 6.36727539 -36.91015625 7.44335938 C-36.47703125 8.17232422 -36.04390625 8.90128906 -35.59765625 9.65234375 C-34.7564436 11.10152372 -33.91529482 12.55074076 -33.07421875 14 C-32.69604004 14.64074463 -32.31786133 15.28148926 -31.92822266 15.94165039 C-31.23618286 17.13530412 -30.58970217 18.35575192 -29.97265625 19.58984375 C-30.648125 18.60242188 -31.32359375 17.615 -32.01953125 16.59765625 C-32.92011517 15.30306686 -33.82118223 14.00881348 -34.72265625 12.71484375 C-35.16609375 12.06386719 -35.60953125 11.41289063 -36.06640625 10.7421875 C-39.19237366 6.18976848 -39.19237366 6.18976848 -43.97265625 3.58984375 C-44.96265625 4.90984375 -45.95265625 6.22984375 -46.97265625 7.58984375 C-45.63731349 10.53097844 -44.14800744 12.69829544 -41.93359375 15.04296875 C-41.35351562 15.66171875 -40.7734375 16.28046875 -40.17578125 16.91796875 C-39.5725 17.5521875 -38.96921875 18.18640625 -38.34765625 18.83984375 C-37.73664063 19.48953125 -37.125625 20.13921875 -36.49609375 20.80859375 C-34.99237551 22.40629438 -33.48449888 23.99983524 -31.97265625 25.58984375 C-36.04125956 22.43561296 -39.55973421 19.01506744 -43.10546875 15.296875 C-44.96163239 13.36755875 -44.96163239 13.36755875 -47.97265625 12.58984375 C-49.54201219 15.72855563 -49.32466728 18.12840197 -48.97265625 21.58984375 C-46.95748008 24.15461343 -45.04814872 25.98973307 -42.1875 27.5859375 C-38.78830634 29.55617077 -37.26990609 30.79300559 -35.859375 34.57421875 C-35.11733164 37.57052653 -34.48239296 40.54598739 -33.97265625 43.58984375 C-32.38324219 43.77160156 -32.38324219 43.77160156 -30.76171875 43.95703125 C-29.37364301 44.12585127 -27.98562506 44.29514683 -26.59765625 44.46484375 C-25.89898437 44.54347656 -25.2003125 44.62210938 -24.48046875 44.703125 C-19.19921875 45.36328125 -19.19921875 45.36328125 -16.97265625 47.58984375 C-15.08814378 47.570879 -15.08814378 47.570879 -12.97265625 47.15234375 C-7.79440255 46.42823022 -3.14942275 46.93363391 2.02734375 47.58984375 C2.02734375 43.95984375 2.02734375 40.32984375 2.02734375 36.58984375 C3.67734375 35.92984375 5.32734375 35.26984375 7.02734375 34.58984375 C8.71028295 33.61747888 10.38177809 32.62419931 12.02734375 31.58984375 C11.69734375 28.28984375 11.36734375 24.98984375 11.02734375 21.58984375 C6.72019484 22.66663098 5.73743053 23.54425263 2.77734375 26.65234375 C2.0709375 27.38582031 1.36453125 28.11929688 0.63671875 28.875 C0.105625 29.44089844 -0.42546875 30.00679687 -0.97265625 30.58984375 C-0.57433594 30.07035156 -0.17601562 29.55085938 0.234375 29.015625 C5.64233492 22.87129914 5.64233492 22.87129914 7.96484375 15.52734375 C6.87035538 12.99482788 6.87035538 12.99482788 3.02734375 9.58984375 C0.05734375 15.85984375 -2.91265625 22.12984375 -5.97265625 28.58984375 C-3.99081805 22.64432916 -1.95586961 16.87378165 0.35546875 11.0703125 C1.08222526 8.38722888 1.06566561 7.1409894 0.02734375 4.58984375 C-2.52716119 2.20563914 -3.41310855 1.58984375 -6.97265625 1.58984375 C-8.29265625 8.18984375 -9.61265625 14.78984375 -10.97265625 21.58984375 C-10.64265625 18.94984375 -10.31265625 16.30984375 -9.97265625 13.58984375 C-9.83919996 10.96691431 -9.75436005 8.3409748 -9.72265625 5.71484375 C-9.68398437 3.76964844 -9.68398437 3.76964844 -9.64453125 1.78515625 C-9.7528125 0.73070313 -9.86109375 -0.32375 -9.97265625 -1.41015625 C-13.2005718 -3.56209995 -14.25666434 -3.61102068 -17.97265625 -3.41015625 C-18.10871107 4.9798909 -17.72740976 13.23364418 -16.97265625 21.58984375 C-17.04782471 20.9851123 -17.12299316 20.38038086 -17.20043945 19.75732422 C-17.55072218 16.99159985 -17.91778563 14.22834808 -18.28515625 11.46484375 C-18.40310547 10.51351562 -18.52105469 9.5621875 -18.64257812 8.58203125 C-19.35539368 3.31816254 -20.22625904 -0.84052056 -22.97265625 -5.41015625 C-26.60150949 -5.56164923 -26.60150949 -5.56164923 -29.97265625 -4.41015625 Z " fill="#F50F0A" transform="translate(202.97265625,66.41015625)"/>
<path d="M0 0 C1.65 0.33 3.3 0.66 5 1 C5.33 1.99 5.66 2.98 6 4 C8.31 4 10.62 4 13 4 C13.33 2.68 13.66 1.36 14 0 C14.598125 0.309375 15.19625 0.61875 15.8125 0.9375 C20.29800548 3.11617409 23.7419228 2.87760579 28.5625 2.4375 C35.02492627 1.92357628 40.71807006 2.17280403 47 4 C46.37481698 7.3123732 45.84214202 10.13444574 44 13 C43.01 13.33 42.02 13.66 41 14 C41.495 16.475 41.495 16.475 42 19 C40.35 18.67 38.7 18.34 37 18 C37.66 18 38.32 18 39 18 C40 20 40 20 40 23 C38 24.6875 38 24.6875 36 26 C36.33 24.35 36.66 22.7 37 21 C36.01 21.495 36.01 21.495 35 22 C34.34786708 24.02463255 34.34786708 24.02463255 34 26 C33.34 26 32.68 26 32 26 C32.495 26.99 32.495 26.99 33 28 C21.45 28 9.9 28 -2 28 C-2 20.41 -2 12.82 -2 5 C-1.34 4.67 -0.68 4.34 0 4 C0 2.68 0 1.36 0 0 Z " fill="#1043C1" transform="translate(139,155)"/>
<path d="M0 0 C3.00056084 -0.08166849 5.9988539 -0.14081551 9 -0.1875 C9.83917969 -0.21263672 10.67835938 -0.23777344 11.54296875 -0.26367188 C19.05685988 -0.3510427 24.62103882 1.64057265 31.3125 5.0625 C31.94800781 5.38347656 32.58351562 5.70445313 33.23828125 6.03515625 C34.87821059 6.93329937 36.44425966 7.96283978 38 9 C38 9.66 38 10.32 38 11 C38.556875 11.226875 39.11375 11.45375 39.6875 11.6875 C42.66159588 13.37550036 44.72008865 15.46676517 47 18 C47 18.66 47 19.32 47 20 C48.3921875 20.2165625 48.3921875 20.2165625 49.8125 20.4375 C53.31833039 22.15604431 53.54221984 22.41436566 54.75 25.875 C55.20596546 27.57326658 55.61933715 29.28328521 56 31 C56.34224609 32.45792969 56.34224609 32.45792969 56.69140625 33.9453125 C57.9942919 40.35321549 58.36541526 45.81049674 56 52 C55.34 52.99 54.68 53.98 54 55 C53.690625 55.94875 53.38125 56.8975 53.0625 57.875 C52.01898242 60.94416936 50.77594572 63.3005625 49 66 C48.57203125 66.69222656 48.1440625 67.38445312 47.703125 68.09765625 C45.52311952 70.53266237 44.40999584 70.60475289 41.1875 70.8125 C27.98377359 71.50379458 15.73738794 69.10491883 3 66 C3 65.34 3 64.68 3 64 C1.68 64 0.36 64 -1 64 C-1 63.34 -1 62.68 -1 62 C-1.66 62 -2.32 62 -3 62 C-3 61.34 -3 60.68 -3 60 C-3.66 60 -4.32 60 -5 60 C-5 59.01 -5 58.02 -5 57 C-5.66 57 -6.32 57 -7 57 C-8.76462683 53.91190305 -9 52.76687864 -9 49 C-9.66 49 -10.32 49 -11 49 C-13.3125 46.9375 -13.3125 46.9375 -16 44 C-16.928125 43.0925 -17.85625 42.185 -18.8125 41.25 C-23.38378323 34.78715129 -21.57893212 23.90131123 -20.4765625 16.47265625 C-20.31929687 15.65667969 -20.16203125 14.84070313 -20 14 C-19.34 14 -18.68 14 -18 14 C-17.67 13.01 -17.34 12.02 -17 11 C-16.34 11 -15.68 11 -15 11 C-15 10.34 -15 9.68 -15 9 C-14.34 9 -13.68 9 -13 9 C-12.6596875 8.1028125 -12.6596875 8.1028125 -12.3125 7.1875 C-10.59193332 4.31988887 -9.03468112 3.37940051 -6 2 C-2.6875 1.8125 -2.6875 1.8125 0 2 C0 1.34 0 0.68 0 0 Z M-13 13 C-16.88128902 19.18580437 -17.72731016 25.80086219 -17 33 C-16.10419101 36.42699022 -15.45937597 37.68512257 -12.50390625 39.7109375 C-11.53324219 40.26007813 -10.56257812 40.80921875 -9.5625 41.375 C-5.03241577 44.44644454 -3.29551113 46.71292573 -2.15795898 51.91650391 C-1.6561558 54.94292681 -1.27457922 57.94381391 -1 61 C-0.0821875 61.03738281 0.835625 61.07476562 1.78125 61.11328125 C13.03125597 61.71596014 13.03125597 61.71596014 17.125 63.5625 C21.34541284 65.42127757 25.26151413 65.16676874 29.8125 65.0390625 C34.91312705 64.97655482 39.92489909 65.51665706 45 66 C45 61.38 45 56.76 45 52 C46.65 51.34 48.3 50.68 50 50 C51.34050052 49.34786461 52.67661368 48.68620031 54 48 C54.46602482 39.62449834 54.23926943 33.31728685 50 26 C49.66097656 25.33613281 49.32195312 24.67226562 48.97265625 23.98828125 C43.09627841 13.34388153 33.16757934 7.15590821 22.12890625 2.890625 C8.35994103 -1.02863102 -3.57722625 2.71705603 -13 13 Z " fill="#B48BAC" transform="translate(165,55)"/>
<path d="M0 0 C6.80192179 0.79780703 13.55352559 1.83624978 20.3125 2.9375 C21.39595703 3.10701172 22.47941406 3.27652344 23.59570312 3.45117188 C24.63275391 3.62068359 25.66980469 3.79019531 26.73828125 3.96484375 C28.14654175 4.19095337 28.14654175 4.19095337 29.58325195 4.42163086 C32 5 32 5 35 7 C36.21714128 7.56817302 37.44690856 8.11003752 38.6875 8.625 C39.780625 9.07875 40.87375 9.5325 42 10 C42 11.32 42 12.64 42 14 C42.99 14.33 43.98 14.66 45 15 C47.125 15.8125 47.125 15.8125 49 17 C49.75 19.125 49.75 19.125 50 21 C50.99 21 51.98 21 53 21 C53.495 23.475 53.495 23.475 54 26 C53.34 26 52.68 26 52 26 C50.34375 24.28515625 50.34375 24.28515625 48.5 22.0625 C46.11073001 19.07954821 46.11073001 19.07954821 43 17 C43 16.34 43 15.68 43 15 C42.319375 14.7525 41.63875 14.505 40.9375 14.25 C38.13009458 13.0553594 35.61808976 11.62618468 33.0390625 10 C26.88947722 6.98411143 20.79501894 6.62074974 14.0625 6.375 C13.18787109 6.33632813 12.31324219 6.29765625 11.41210938 6.2578125 C9.27505369 6.1643893 7.13755706 6.08114602 5 6 C5 6.66 5 7.32 5 8 C3.948125 8.268125 2.89625 8.53625 1.8125 8.8125 C-1.59695742 9.87446215 -4.10163909 10.95409818 -7 13 C-7.33 13.66 -7.66 14.32 -8 15 C-8.66 15 -9.32 15 -10 15 C-10 15.66 -10 16.32 -10 17 C-11.375 18.625 -11.375 18.625 -13 20 C-13.66 20 -14.32 20 -15 20 C-14.67 20.99 -14.34 21.98 -14 23 C-14.33 23.99 -14.66 24.98 -15 26 C-16.23920925 37.54068968 -16.23920925 37.54068968 -12.1875 47.9375 C-10.22676319 50.06284187 -8.44051361 51.37299093 -6 53 C-6 53.66 -6 54.32 -6 55 C-5.34 55 -4.68 55 -4 55 C-3.34 57.64 -2.68 60.28 -2 63 C-1.34 63 -0.68 63 0 63 C0 63.99 0 64.98 0 66 C0.66 66 1.32 66 2 66 C2 66.66 2 67.32 2 68 C2.66 68 3.32 68 4 68 C4 68.66 4 69.32 4 70 C5.32 70 6.64 70 8 70 C8 70.66 8 71.32 8 72 C8.96421875 72.13277344 9.9284375 72.26554687 10.921875 72.40234375 C12.18515625 72.57894531 13.4484375 72.75554687 14.75 72.9375 C16.00296875 73.11152344 17.2559375 73.28554687 18.546875 73.46484375 C22 74 22 74 24 74.53125 C27.0568999 75.24771091 30.12094802 75.35969108 33.25 75.5625 C35.14492187 75.68818359 35.14492187 75.68818359 37.078125 75.81640625 C38.04234375 75.87699219 39.0065625 75.93757813 40 76 C40 76.66 40 77.32 40 78 C31.72984476 78.2144997 24.03764031 78.07422976 16 76 C16 75.34 16 74.68 16 74 C12.04 74 8.08 74 4 74 C3.67 73.01 3.34 72.02 3 71 C0.03 71 -2.94 71 -6 71 C-5.67 69.35 -5.34 67.7 -5 66 C-6.485 65.505 -6.485 65.505 -8 65 C-8 63.35 -8 61.7 -8 60 C-9.32 59.67 -10.64 59.34 -12 59 C-12.33 57.68 -12.66 56.36 -13 55 C-13.99 55 -14.98 55 -16 55 C-16 52.36 -16 49.72 -16 47 C-16.99 46.67 -17.98 46.34 -19 46 C-21.88304113 40.76781424 -22.4788862 36.93818891 -22 31 C-21.36096883 29.32254318 -20.69658363 27.65438613 -20 26 C-19.83242243 22.79129767 -19.83242243 22.79129767 -20 20 C-19.34 20 -18.68 20 -18 20 C-18.33 18.35 -18.66 16.7 -19 15 C-18.01 14.34 -17.02 13.68 -16 13 C-16 11.68 -16 10.36 -16 9 C-14.68 8.67 -13.36 8.34 -12 8 C-12.33 7.34 -12.66 6.68 -13 6 C-8.7494534 4.14038586 -4.50066475 3.06795435 0 2 C0 1.34 0 0.68 0 0 Z " fill="#384FBB" transform="translate(160,49)"/>
<path d="M0 0 C0.33 0.66 0.66 1.32 1 2 C1.66 2 2.32 2 3 2 C3.79110132 19.98202041 4.13909733 37.91982274 4.09765625 55.91796875 C4.09578362 58.36802643 4.09436373 60.8180845 4.09336853 63.2681427 C4.08960972 69.61521499 4.07983896 75.96226319 4.06866455 82.30932617 C4.05830493 88.82665684 4.05384024 95.34399153 4.04882812 101.86132812 C4.03820838 114.57422883 4.02141661 127.28711312 4 140 C2.68 140 1.36 140 0 140 C-2.19655782 64.13753184 -2.19655782 64.13753184 -2.25 28.375 C-2.25499512 27.19695801 -2.25999023 26.01891602 -2.26513672 24.80517578 C-2.27672244 21.52363731 -2.27409349 18.24247821 -2.265625 14.9609375 C-2.2695929 14.01253998 -2.27356079 13.06414246 -2.27764893 12.08700562 C-2.24563889 7.61912 -2.1239603 4.05492918 0 0 Z " fill="#2F35A4" transform="translate(129,43)"/>
<path d="M0 0 C5.12844335 0 9.07377791 0.01279442 13.94335938 0.85449219 C15.04651489 1.04178894 16.14967041 1.22908569 17.28625488 1.42205811 C18.46022827 1.62824768 19.63420166 1.83443726 20.84375 2.046875 C22.70574036 2.36558563 22.70574036 2.36558563 24.60534668 2.69073486 C27.90460211 3.25658863 31.20277931 3.82806019 34.50054932 4.40246582 C37.76914605 4.9705964 41.03891325 5.53189559 44.30859375 6.09375 C48.15444406 6.75483502 52.00018427 7.41650715 55.84545898 8.08093262 C67.55543405 10.10359224 79.27542663 12.06394267 91 14 C91 14.99 91 15.98 91 17 C88.41633755 16.85879984 85.83317115 16.71221667 83.25 16.5625 C82.52039063 16.52318359 81.79078125 16.48386719 81.0390625 16.44335938 C77.5727027 16.23852902 74.34666974 15.9147998 71 15 C71 14.34 71 13.68 71 13 C69.18242187 12.96132813 69.18242187 12.96132813 67.328125 12.921875 C54.86068734 12.53932284 43.14964617 10.77890843 31 8 C31 8.33 31 8.66 31 9 C25.08739655 9.25706972 19.76081841 8.2982126 14 7 C13.7525 7.94875 13.505 8.8975 13.25 9.875 C12 13 12 13 10 14.25 C9.34 14.4975 8.68 14.745 8 15 C7.34 15.66 6.68 16.32 6 17 C4.02 17 2.04 17 0 17 C0 11.39 0 5.78 0 0 Z " fill="#0C3FCB" transform="translate(133,42)"/>
<path d="M0 0 C4.16138263 -0.08159574 7.9472484 0.01751476 12 1 C12 1.66 12 2.32 12 3 C18.93 3.33 25.86 3.66 33 4 C35.25 14.125 35.25 14.125 35.6328125 17.59765625 C35.71660156 18.33564453 35.80039063 19.07363281 35.88671875 19.83398438 C35.96535156 20.56939453 36.04398438 21.30480469 36.125 22.0625 C36.21136719 22.83271484 36.29773438 23.60292969 36.38671875 24.39648438 C36.59549167 26.26384217 36.79838626 28.13185569 37 30 C34.8614515 27.8614515 34.57344937 26.86724686 34 24 C33.29826347 28.38585329 32.89165625 32.55790643 33 37 C32.01 37.495 32.01 37.495 31 38 C30.67 36.02 30.34 34.04 30 32 C29.34 32 28.68 32 28 32 C27.81824219 31.36191406 27.63648438 30.72382812 27.44921875 30.06640625 C27.19785156 29.24011719 26.94648438 28.41382812 26.6875 27.5625 C26.32205078 26.32693359 26.32205078 26.32693359 25.94921875 25.06640625 C25.63597656 24.38449219 25.32273438 23.70257813 25 23 C24.01 22.67 23.02 22.34 22 22 C21.67 20.02 21.34 18.04 21 16 C20.01 16 19.02 16 18 16 C17.67 14.68 17.34 13.36 17 12 C16.21625 11.87625 15.4325 11.7525 14.625 11.625 C12 11 12 11 10 9 C10 7.68 10 6.36 10 5 C8.081875 4.5978125 8.081875 4.5978125 6.125 4.1875 C2.50324145 3.42809901 2.19948132 3.29922197 0 0 Z " fill="#1842BA" transform="translate(192,54)"/>
<path d="M0 0 C7.21712538 -0.48929664 7.21712538 -0.48929664 11 1.875 C13 4 13 4 13 6 C13.66 6 14.32 6 15 6 C15.8125 9.25 15.8125 9.25 16 13 C13.6875 15.1875 13.6875 15.1875 11 17 C10.67 17.680625 10.34 18.36125 10 19.0625 C8.56939945 21.83428857 6.77497192 22.6785848 4 24 C2.68 24 1.36 24 0 24 C0 23.34 0 22.68 0 22 C-1.98 22 -3.96 22 -6 22 C-8.35785972 17.4316468 -8.42484112 13.02893321 -8 8 C-7.67 7.34 -7.34 6.68 -7 6 C-5.68 6 -4.36 6 -3 6 C-2.67 5.01 -2.34 4.02 -2 3 C-1.34 3 -0.68 3 0 3 C0 2.01 0 1.02 0 0 Z " fill="#9395F8" transform="translate(96,10)"/>
<path d="M0 0 C2.8125 0.4375 2.8125 0.4375 6 2 C7.64494058 4.83187809 8.29503759 7.82075776 9 11 C9.22816406 11.97195312 9.45632812 12.94390625 9.69140625 13.9453125 C10.9942919 20.35321549 11.36541526 25.81049674 9 32 C8.34 32.99 7.68 33.98 7 35 C6.690625 35.94875 6.38125 36.8975 6.0625 37.875 C5.01898242 40.94416936 3.77594572 43.3005625 2 46 C1.35804688 47.03833984 1.35804688 47.03833984 0.703125 48.09765625 C-1.47688048 50.53266237 -2.59000416 50.60475289 -5.8125 50.8125 C-19.01622641 51.50379458 -31.26261206 49.10491883 -44 46 C-44 45.34 -44 44.68 -44 44 C-45.32 44 -46.64 44 -48 44 C-48 43.34 -48 42.68 -48 42 C-45.22867983 42.30859025 -42.45800014 42.6217033 -39.6875 42.9375 C-38.90181641 43.02451172 -38.11613281 43.11152344 -37.30664062 43.20117188 C-36.54931641 43.28818359 -35.79199219 43.37519531 -35.01171875 43.46484375 C-33.96697388 43.58267212 -33.96697388 43.58267212 -32.90112305 43.70288086 C-31 44 -31 44 -28 45 C-26.08330242 45.21608346 -24.16155357 45.3887142 -22.23828125 45.53515625 C-21.12001953 45.62216797 -20.00175781 45.70917969 -18.84960938 45.79882812 C-17.68236328 45.88583984 -16.51511719 45.97285156 -15.3125 46.0625 C-13.54422852 46.19881836 -13.54422852 46.19881836 -11.74023438 46.33789062 C-8.82706468 46.5619806 -5.9136711 46.78254296 -3 47 C-3.00902344 45.96359375 -3.01804688 44.9271875 -3.02734375 43.859375 C-2.8805394 33.0685943 -2.8805394 33.0685943 -0.4453125 30.11328125 C1.97706012 28.7613762 4.20929652 28 7 28 C6.74354618 19.7037188 5.74971396 13.38085989 2 6 C1.30200581 4.01071657 0.61998741 2.01495907 0 0 Z " fill="#7671B4" transform="translate(212,75)"/>
<path d="M0 0 C2.9375 1.6875 2.9375 1.6875 4.9375 3.6875 C4.9375 4.6775 4.9375 5.6675 4.9375 6.6875 C5.9275 6.6875 6.9175 6.6875 7.9375 6.6875 C8.6328125 8.93359375 8.6328125 8.93359375 8.9375 11.6875 C6.15107464 16.33442676 1.47849014 20.78631185 -3.0625 23.6875 C-4.0525 23.3575 -5.0425 23.0275 -6.0625 22.6875 C-7.72871616 22.64875079 -9.39644172 22.6424714 -11.0625 22.6875 C-11.3925 21.0375 -11.7225 19.3875 -12.0625 17.6875 C-12.7225 17.6875 -13.3825 17.6875 -14.0625 17.6875 C-14.0625 16.6975 -14.0625 15.7075 -14.0625 14.6875 C-14.7225 14.6875 -15.3825 14.6875 -16.0625 14.6875 C-15.7325 12.3775 -15.4025 10.0675 -15.0625 7.6875 C-13.7425 7.3575 -12.4225 7.0275 -11.0625 6.6875 C-11.0625 5.6975 -11.0625 4.7075 -11.0625 3.6875 C-10.423125 3.584375 -9.78375 3.48125 -9.125 3.375 C-8.444375 3.148125 -7.76375 2.92125 -7.0625 2.6875 C-6.7325 1.6975 -6.4025 0.7075 -6.0625 -0.3125 C-3.0625 -1.3125 -3.0625 -1.3125 0 0 Z " fill="#9B87F8" transform="translate(259.0625,9.3125)"/>
<path d="M0 0 C6.875 0.875 6.875 0.875 8 2 C8.65929066 10.68488663 7.90786945 19.21324278 6.6875 27.8125 C6.51105957 29.12891479 6.51105957 29.12891479 6.33105469 30.47192383 C6.20504883 31.29200928 6.07904297 32.11209473 5.94921875 32.95703125 C5.78425903 34.05494995 5.78425903 34.05494995 5.6159668 35.17504883 C5 37 5 37 2 39 C1.01 39 0.02 39 -1 39 C-1 39.66 -1 40.32 -1 41 C-1.66 41 -2.32 41 -3 41 C-3.66 42.32 -4.32 43.64 -5 45 C-5.66 45 -6.32 45 -7 45 C-7 44.01 -7 43.02 -7 42 C-7.66 41.67 -8.32 41.34 -9 41 C-10.6875 39.25 -10.6875 39.25 -12 37 C-11.6875 34.25 -11.6875 34.25 -11 32 C-8.03 32 -5.06 32 -2 32 C-1.67 31.34 -1.34 30.68 -1 30 C-0.34 30.33 0.32 30.66 1 31 C1 31.66 1 32.32 1 33 C1.66 33 2.32 33 3 33 C2.67 32.34 2.34 31.68 2 31 C1.59692026 28.04015897 1.2440321 25.09506292 0.9375 22.125 C0.84807129 21.27252686 0.75864258 20.42005371 0.66650391 19.54174805 C0.01903268 13.0133882 -0.23572709 6.5610708 0 0 Z " fill="#FAD408" transform="translate(185,63)"/>
<path d="M0 0 C1.4540625 0.0309375 1.4540625 0.0309375 2.9375 0.0625 C1.9475 0.3925 0.9575 0.7225 -0.0625 1.0625 C-0.0625 8.3225 -0.0625 15.5825 -0.0625 23.0625 C0.5975 23.3925 1.2575 23.7225 1.9375 24.0625 C1.77105484 24.63053345 1.60460968 25.19856689 1.43312073 25.78381348 C0.9165455 28.15884129 0.88867899 30.0982155 1.00756836 32.52148438 C1.04767532 33.41078644 1.08778229 34.3000885 1.12910461 35.21633911 C1.17802353 36.1865097 1.22694244 37.1566803 1.27734375 38.15625 C1.37257215 40.29603172 1.46710189 42.43584462 1.56103516 44.57568359 C1.61253723 45.71318054 1.66403931 46.85067749 1.71710205 48.02264404 C2.72001547 70.5065905 3.12522657 92.93543617 3.0625 115.4375 C3.05983187 116.44476639 3.05983187 116.44476639 3.05710983 117.47238159 C3.03433334 125.66919968 2.99512072 133.86585437 2.9375 142.0625 C1.9475 142.0625 0.9575 142.0625 -0.0625 142.0625 C-0.19442214 128.05622081 -0.32484839 114.04992834 -0.45365143 100.04362011 C-0.51352867 93.53696761 -0.57384911 87.03031991 -0.63525391 80.52368164 C-0.69471396 74.22126041 -0.75291654 67.91882862 -0.81031799 61.61638832 C-0.8322094 59.23557448 -0.85452196 56.85476446 -0.87730408 54.47395897 C-1.03771406 37.66969553 -1.09093809 20.86751508 -1.0625 4.0625 C-1.7225 4.0625 -2.3825 4.0625 -3.0625 4.0625 C-3.3925 3.0725 -3.7225 2.0825 -4.0625 1.0625 C-3.0625 0.0625 -3.0625 0.0625 0 0 Z " fill="#5348B9" transform="translate(133.0625,40.9375)"/>
<path d="M0 0 C1.4540625 0.0309375 1.4540625 0.0309375 2.9375 0.0625 C3.40366347 4.48457844 3.6305486 8.65707481 2.9375 13.0625 C1.16951544 15.09590718 -0.39492023 15.89352691 -2.828125 17.01953125 C-5.22107806 18.13652158 -6.90023335 19.44481063 -8.875 21.1875 C-9.41769531 21.66445313 -9.96039063 22.14140625 -10.51953125 22.6328125 C-11.58662332 23.6215611 -12.6204679 24.64697138 -13.625 25.69921875 C-15.3609299 27.34552184 -16.73526515 27.66125261 -19.0625 28.0625 C-21.0625 25.0625 -21.0625 25.0625 -20.9375 21.5 C-20.0625 18.0625 -20.0625 18.0625 -18.1875 16.625 C-16.0625 16.0625 -16.0625 16.0625 -13.0625 16.0625 C-13.0625 13.7525 -13.0625 11.4425 -13.0625 9.0625 C-10.35370665 7.70810332 -8.05316732 7.99748549 -5.0625 8.0625 C-4.918125 6.928125 -4.77375 5.79375 -4.625 4.625 C-3.90732759 0.07974138 -3.90732759 0.07974138 0 0 Z " fill="#9588F5" transform="translate(29.0625,7.9375)"/>
<path d="M0 0 C2.50037734 2.17424117 3.43628586 3.73045798 4 7 C4.66 6.01 5.32 5.02 6 4 C8 8.75 8 8.75 8 11 C8.598125 10.814375 9.19625 10.62875 9.8125 10.4375 C12 10 12 10 15 11 C15 11.66 15 12.32 15 13 C17.97 13.66 20.94 14.32 24 15 C24 16.32 24 17.64 24 19 C25.32 19.66 26.64 20.32 28 21 C28 21.33 28 21.66 28 22 C19.42 22 10.84 22 2 22 C0.50690208 16.77415727 -0.34422228 12.90359833 -0.6875 7.625 C-0.77386719 6.40039062 -0.86023438 5.17578125 -0.94921875 3.9140625 C-0.96597656 2.95242187 -0.98273438 1.99078125 -1 1 C-0.67 0.67 -0.34 0.34 0 0 Z " fill="#F1B4D3" transform="translate(241,161)"/>
<path d="M0 0 C4.70832992 4.70832992 5.16014772 9.39977919 5.4375 15.8125 C5.43055841 21.44906808 4.11008413 24.29122888 0.3125 28.37890625 C-1.31462605 30.04096571 -1.31462605 30.04096571 -1 33 C-1.99 33.66 -2.98 34.32 -4 35 C-4.73606499 38.56769552 -4.73606499 38.56769552 -5 42 C-6.051875 41.95875 -7.10375 41.9175 -8.1875 41.875 C-11.80609469 41.99364245 -13.75222966 42.59555877 -17 44 C-18.32 44 -19.64 44 -21 44 C-21 43.34 -21 42.68 -21 42 C-21.86278564 42.00523682 -22.72557129 42.01047363 -23.61450195 42.01586914 C-26.81811273 42.03291996 -30.02170036 42.04545453 -33.2253418 42.05493164 C-34.61141725 42.05995777 -35.99748741 42.06677966 -37.38354492 42.07543945 C-39.37676715 42.08758018 -41.37002819 42.09271021 -43.36328125 42.09765625 C-44.56251221 42.10289307 -45.76174316 42.10812988 -46.99731445 42.11352539 C-50 42 -50 42 -53 41 C-53.33 39.68 -53.66 38.36 -54 37 C-51.03 37 -48.06 37 -45 37 C-45 37.66 -45 38.32 -45 39 C-27.24990276 41.3394329 -27.24990276 41.3394329 -10 38 C-7.56701725 35.64196695 -6.33751247 33.0837093 -5 30 C-4.63390625 29.28199219 -4.2678125 28.56398438 -3.890625 27.82421875 C-0.7247203 21.36623199 2.00556112 14.11974199 0 7 C-0.03888349 4.66699067 -0.0448635 2.33290199 0 0 Z " fill="#3A4FB9" transform="translate(221,86)"/>
<path d="M0 0 C0.33 0.66 0.66 1.32 1 2 C0.01789629 4.0088485 -0.98440599 6.00787329 -2 8 C-3.56609568 13.26777637 -3.72109082 19.24214389 -2.33203125 24.5546875 C-0.59574492 27.74212224 1.40256733 28.77469153 4.5 30.625 C9.65648256 34.17050304 9.65648256 34.17050304 11.16796875 37.8203125 C11.89832037 41.93883666 12 45.81996282 12 50 C13.37671875 49.94779297 13.37671875 49.94779297 14.78125 49.89453125 C21.12881989 49.75451133 26.17810528 49.69450561 31.9609375 52.33984375 C35.51189687 53.48948385 39.11799018 53.0810411 42.8125 52.97265625 C47.97393028 53.01693323 52.94985695 53.99713471 58 55 C57.505 55.99 57.505 55.99 57 57 C52.9991148 56.71975782 48.99954318 56.42373957 45 56.125 C43.87464844 56.04636719 42.74929687 55.96773437 41.58984375 55.88671875 C35.47781893 55.42206189 29.90461059 54.61493623 24 53 C21.50560991 52.58933822 19.00537019 52.21226137 16.5 51.875 C15.2728125 51.70742187 14.045625 51.53984375 12.78125 51.3671875 C11.40453125 51.18542969 11.40453125 51.18542969 10 51 C10 50.34 10 49.68 10 49 C9.34 49 8.68 49 8 49 C7.84144531 48.26394531 7.68289062 47.52789062 7.51953125 46.76953125 C6.03642942 40.56672417 4.80559409 37.15618948 0 33 C0 32.01 0 31.02 0 30 C-0.61875 29.7525 -1.2375 29.505 -1.875 29.25 C-4.46553673 27.72615486 -4.91184464 26.77288711 -6 24 C-7.04263602 15.84076695 -5.76459384 8.32309678 -2 1 C-1.34 0.67 -0.68 0.34 0 0 Z " fill="#F4E0D5" transform="translate(152,66)"/>
<path d="M0 0 C-0.66 1.32 -1.32 2.64 -2 4 C-1.34 4 -0.68 4 0 4 C0.33 5.32 0.66 6.64 1 8 C0.236875 8.226875 -0.52625 8.45375 -1.3125 8.6875 C-4.19285659 9.7869739 -4.19285659 9.7869739 -5.5 12.5625 C-7 15 -7 15 -9.6875 15.8125 C-10.450625 15.874375 -11.21375 15.93625 -12 16 C-12.2475 16.94875 -12.495 17.8975 -12.75 18.875 C-14 22 -14 22 -15.875 23.5 C-18.62046592 24.14599198 -19.60631729 23.3564202 -22 22 C-22.66 22.33 -23.32 22.66 -24 23 C-23.67 21.35 -23.34 19.7 -23 18 C-21.68 18 -20.36 18 -19 18 C-19.66 17.01 -20.32 16.02 -21 15 C-20.01 14.67 -19.02 14.34 -18 14 C-18 12.35 -18 10.7 -18 9 C-17.05125 8.5875 -16.1025 8.175 -15.125 7.75 C-11.76487395 5.86832941 -11.53214875 5.26858399 -10 2 C-6.38039294 -0.83698932 -4.39948806 -1.38269625 0 0 Z " fill="#9A92F6" transform="translate(189,9)"/>
<path d="M0 0 C0.33 0 0.66 0 1 0 C1.85911268 5.92291209 2.1385376 11.64899225 2.11352539 17.62890625 C2.11367142 18.55666367 2.11381744 19.48442108 2.1139679 20.44029236 C2.11327593 23.48105273 2.1055173 26.52175044 2.09765625 29.5625 C2.09578952 31.68098924 2.09436682 33.79947892 2.09336853 35.91796875 C2.08956341 41.47456061 2.07975035 47.03112605 2.06866455 52.58770752 C2.05840721 58.26549929 2.05386167 63.94329537 2.04882812 69.62109375 C2.03812619 80.7474074 2.02107398 91.8737015 2 103 C1.34 103 0.68 103 0 103 C-0.7139047 90.12057647 -1.16615287 77.32853652 -0.5625 64.4375 C0.08698791 50.54052059 0.08656002 36.65956017 0.0625 22.75 C0.0606369 21.6252829 0.0587738 20.5005658 0.05685425 19.34176636 C0.04466033 12.89448294 0.02595044 6.4472425 0 0 Z " fill="#031379" transform="translate(131,80)"/>
<path d="M0 0 C7.21712538 -0.48929664 7.21712538 -0.48929664 11 1.875 C13 4 13 4 13 6 C13.66 6 14.32 6 15 6 C15.33 7.32 15.66 8.64 16 10 C13.03 11.32 10.06 12.64 7 14 C6.67 12.35 6.34 10.7 6 9 C3.03 8.505 3.03 8.505 0 8 C-0.66 9.32 -1.32 10.64 -2 12 C-2.99 12 -3.98 12 -5 12 C-4.67 10.68 -4.34 9.36 -4 8 C-4.66 8 -5.32 8 -6 8 C-5.91266424 9.60517097 -5.80447776 11.20921662 -5.6875 12.8125 C-5.62949219 13.70582031 -5.57148437 14.59914063 -5.51171875 15.51953125 C-4.93686419 18.30604 -4.1793144 19.24135754 -2 21 C-3.32 21.33 -4.64 21.66 -6 22 C-8.35785972 17.4316468 -8.42484112 13.02893321 -8 8 C-7.67 7.34 -7.34 6.68 -7 6 C-5.68 6 -4.36 6 -3 6 C-2.67 5.01 -2.34 4.02 -2 3 C-1.34 3 -0.68 3 0 3 C0 2.01 0 1.02 0 0 Z " fill="#868DF8" transform="translate(96,10)"/>
<path d="M0 0 C1.98 0.33 3.96 0.66 6 1 C6 3.97 6 6.94 6 10 C-2.8395853 9.39255947 -11.4702568 7.99119736 -20.1875 6.4375 C-21.53443296 6.20076043 -22.88143785 5.96442974 -24.22851562 5.72851562 C-27.486404 5.15634168 -30.74351327 4.58008867 -34 4 C-34 3.67 -34 3.34 -34 3 C-26.93993115 2.06503781 -20.05387765 1.87913223 -12.9375 1.9375 C-11.88111328 1.94201172 -10.82472656 1.94652344 -9.73632812 1.95117188 C-7.15749092 1.96284082 -4.57877706 1.97921115 -2 2 C-1.505 2.99 -1.505 2.99 -1 4 C-0.67 2.68 -0.34 1.36 0 0 Z " fill="#A591FB" transform="translate(170,38)"/>
<path d="M0 0 C1.0003125 0.14695313 2.000625 0.29390625 3.03125 0.4453125 C8.73825352 1.37196513 8.73825352 1.37196513 11 2 C11.495 2.99 11.495 2.99 12 4 C13.97888961 4.72693904 15.97954558 5.39816251 18 6 C18 7.32 18 8.64 18 10 C18.99 10.33 19.98 10.66 21 11 C23.125 11.8125 23.125 11.8125 25 13 C25.75 15.125 25.75 15.125 26 17 C26.99 17 27.98 17 29 17 C29.495 19.475 29.495 19.475 30 22 C29.34 22 28.68 22 28 22 C26.34375 20.28515625 26.34375 20.28515625 24.5 18.0625 C22.11073001 15.07954821 22.11073001 15.07954821 19 13 C19 12.34 19 11.68 19 11 C18.319375 10.7525 17.63875 10.505 16.9375 10.25 C14.13009458 9.0553594 11.61808976 7.62618468 9.0390625 6 C2.88947722 2.98411143 -3.20498106 2.62074974 -9.9375 2.375 C-10.81212891 2.33632813 -11.68675781 2.29765625 -12.58789062 2.2578125 C-14.72494631 2.1643893 -16.86244294 2.08114602 -19 2 C-19 2.66 -19 3.32 -19 4 C-20.051875 4.268125 -21.10375 4.53625 -22.1875 4.8125 C-25.59695742 5.87446215 -28.10163909 6.95409818 -31 9 C-31.33 9.66 -31.66 10.32 -32 11 C-32.66 11 -33.32 11 -34 11 C-34 11.66 -34 12.32 -34 13 C-34.99 13.33 -35.98 13.66 -37 14 C-36.45912682 10.21388773 -34.88277668 8.44599233 -32 6 C-31.34 6 -30.68 6 -30 6 C-30 5.34 -30 4.68 -30 4 C-27.33333333 3.33333333 -24.66666667 2.66666667 -22 2 C-22 1.34 -22 0.68 -22 0 C-14.48040861 -0.83981691 -7.48817197 -1.13247045 0 0 Z " fill="#5D5EA6" transform="translate(184,53)"/>
<path d="M0 0 C1.98 0 3.96 0 6 0 C6.19573608 1.43640171 6.38127816 2.87419504 6.5625 4.3125 C6.66691406 5.11300781 6.77132812 5.91351563 6.87890625 6.73828125 C7 9 7 9 6 12 C6.66 12.33 7.32 12.66 8 13 C7.34 13.66 6.68 14.32 6 15 C6.33 15.33 6.66 15.66 7 16 C6.81911605 18.85796636 6.47890229 21.68604342 6.15625 24.53125 C6.1046875 25.3459375 6.053125 26.160625 6 27 C6.33 27.33 6.66 27.66 7 28 C7.07226502 29.85287502 7.0838122 31.70833878 7.0625 33.5625 C7.05347656 34.57441406 7.04445312 35.58632812 7.03515625 36.62890625 C7.02355469 37.41136719 7.01195312 38.19382813 7 39 C6.01 39.495 6.01 39.495 5 40 C2.16477876 26.59229985 -0.22549884 13.75542933 0 0 Z " fill="#F5B6D3" transform="translate(233,108)"/>
<path d="M0 0 C13.365 1.485 13.365 1.485 27 3 C27 3.66 27 4.32 27 5 C28.32 5.33 29.64 5.66 31 6 C25.08739655 6.25706972 19.76081841 5.2982126 14 4 C13.7525 4.94875 13.505 5.8975 13.25 6.875 C12 10 12 10 10 11.25 C9.34 11.4975 8.68 11.745 8 12 C7.34 12.66 6.68 13.32 6 14 C4.02 14 2.04 14 0 14 C0 9.38 0 4.76 0 0 Z " fill="#0F3EB4" transform="translate(133,45)"/>
<path d="M0 0 C0 0.66 0 1.32 0 2 C1.01320312 1.855625 2.02640625 1.71125 3.0703125 1.5625 C4.42184545 1.37478709 5.77340964 1.18729904 7.125 1 C8.12273437 0.85691406 8.12273437 0.85691406 9.140625 0.7109375 C13.12628981 0.16388547 16.97859938 -0.10022182 21 0 C21 0.99 21 1.98 21 3 C22.32 2.34 23.64 1.68 25 1 C26 2 26 2 26.0625 5.0625 C26.041875 6.031875 26.02125 7.00125 26 8 C11.84950105 6.74511328 -2.03442951 4.58851934 -16 2 C-16 1.67 -16 1.34 -16 1 C-10.62915894 0.31798844 -5.41499441 -0.11521265 0 0 Z " fill="#BD91FC" transform="translate(198,48)"/>
<path d="M0 0 C0.99 0 1.98 0 3 0 C3 0.66 3 1.32 3 2 C3.99 2.33 4.98 2.66 6 3 C5.34 5.31 4.68 7.62 4 10 C3.2575 10.020625 2.515 10.04125 1.75 10.0625 C-1.85163157 11.29032895 -2.20149312 13.13907081 -3.8203125 16.41015625 C-5 18 -5 18 -8.75 18.9375 C-9.8225 18.958125 -10.895 18.97875 -12 19 C-11.34 18.67 -10.68 18.34 -10 18 C-10 13.71 -10 9.42 -10 5 C-8.02 5 -6.04 5 -4 5 C-1.79857668 2.5609294 -1.79857668 2.5609294 0 0 Z " fill="#D7A7F6" transform="translate(106,86)"/>
<path d="M0 0 C3.14759102 1.37707107 5.56159764 2.56159764 8 5 C8 5.99 8 6.98 8 8 C8.99 8 9.98 8 11 8 C10.67 8.66 10.34 9.32 10 10 C9.34 9.67 8.68 9.34 8 9 C8.33 10.32 8.66 11.64 9 13 C5.38776679 15.43615728 1.75563429 17.79080336 -2 20 C-2.99 19.34 -3.98 18.68 -5 18 C-4.67 17.34 -4.34 16.68 -4 16 C-2.02 16 -0.04 16 2 16 C2 14.02 2 12.04 2 10 C-0.97 9.505 -0.97 9.505 -4 9 C-4.6875 6.6875 -4.6875 6.6875 -5 4 C-3.48656345 1.9820846 -2.25060133 1.12530066 0 0 Z " fill="#9483F7" transform="translate(256,8)"/>
<path d="M0 0 C0.99 0.33 1.98 0.66 3 1 C3 1.66 3 2.32 3 3 C3.66 3 4.32 3 5 3 C5.33 2.34 5.66 1.68 6 1 C6.33 2.98 6.66 4.96 7 7 C4 9 4 9 1 9 C1 9.66 1 10.32 1 11 C0.34 11 -0.32 11 -1 11 C-1.66 12.32 -2.32 13.64 -3 15 C-3.66 15 -4.32 15 -5 15 C-5 14.01 -5 13.02 -5 12 C-5.66 11.67 -6.32 11.34 -7 11 C-8.6875 9.25 -8.6875 9.25 -10 7 C-9.6875 4.25 -9.6875 4.25 -9 2 C-6.03 2 -3.06 2 0 2 C0 1.34 0 0.68 0 0 Z " fill="#FAD614" transform="translate(183,93)"/>
<path d="M0 0 C0.66 0.33 1.32 0.66 2 1 C-2.75 5 -2.75 5 -5 5 C-5.33 5.99 -5.66 6.98 -6 8 C-6.66 8 -7.32 8 -8 8 C-8.48108275 9.41601714 -8.95978141 10.83284437 -9.4375 12.25 C-9.70433594 13.03890625 -9.97117188 13.8278125 -10.24609375 14.640625 C-11.59195588 18.85254588 -12.18267284 22.48829678 -12.25 26.9375 C-12.27578125 27.95714844 -12.3015625 28.97679688 -12.328125 30.02734375 C-11.95299808 33.42581503 -11.0156503 35.2651735 -9 38 C-8.34 38.33 -7.68 38.66 -7 39 C-5.9935725 40.66279327 -4.99414593 42.32983484 -4 44 C-3.484375 44.433125 -2.96875 44.86625 -2.4375 45.3125 C-0.05228435 48.11253576 0.2418179 51.44237632 1 55 C0.34 55 -0.32 55 -1 55 C-2.76462683 51.91190305 -3 50.76687864 -3 47 C-3.66 47 -4.32 47 -5 47 C-7.3125 44.9375 -7.3125 44.9375 -10 42 C-10.928125 41.0925 -11.85625 40.185 -12.8125 39.25 C-17.38378323 32.78715129 -15.57893212 21.90131123 -14.4765625 14.47265625 C-14.31929687 13.65667969 -14.16203125 12.84070313 -14 12 C-13.34 12 -12.68 12 -12 12 C-11.67 11.01 -11.34 10.02 -11 9 C-10.34 9 -9.68 9 -9 9 C-9 8.34 -9 7.68 -9 7 C-8.34 7 -7.68 7 -7 7 C-6.6596875 6.1028125 -6.6596875 6.1028125 -6.3125 5.1875 C-4.6388703 2.39811716 -2.91182274 1.3831158 0 0 Z " fill="#AF99AF" transform="translate(159,57)"/>
<path d="M0 0 C0 1.65 0 3.3 0 5 C1.32 5 2.64 5 4 5 C2.49793494 9.64274654 0.46155153 12.6171201 -3 16 C-6.3125 16.375 -6.3125 16.375 -9 16 C-9.05422947 14.5629191 -9.09289723 13.12524538 -9.125 11.6875 C-9.14820313 10.88699219 -9.17140625 10.08648437 -9.1953125 9.26171875 C-9 7 -9 7 -7 4 C-7 2.68 -7 1.36 -7 0 C-4.3333581 -1.33332095 -2.83319697 -0.67102033 0 0 Z " fill="#D198EE" transform="translate(25,96)"/>
<path d="M0 0 C0.66 0 1.32 0 2 0 C7.08972273 9.22998648 9.89396871 17.30911388 9 28 C7.47308305 31.77424873 5.8294113 34.1705887 3 37 C1.7877051 39.48901793 1.7877051 39.48901793 0.8125 42.1875 C0.46832031 43.08855469 0.12414062 43.98960938 -0.23046875 44.91796875 C-0.48441406 45.60503906 -0.73835937 46.29210937 -1 47 C-1.33 47 -1.66 47 -2 47 C-2 42.05 -2 37.1 -2 32 C4.75 28 4.75 28 7 28 C6.74354618 19.7037188 5.74971396 13.38085989 2 6 C1.30200581 4.01071657 0.61998741 2.01495907 0 0 Z " fill="#D8A5A5" transform="translate(212,75)"/>
<path d="M0 0 C2.64 0 5.28 0 8 0 C7.814375 1.155 7.62875 2.31 7.4375 3.5 C6.90384876 8.05767008 7.18611105 12.44516362 7.5625 17 C8.05389111 23.08362024 7.77882062 28.14035562 6 34 C5.67 34 5.34 34 5 34 C4.82609741 32.6682373 4.82609741 32.6682373 4.64868164 31.30957031 C4.21629363 28.00691247 3.78182235 24.70454247 3.34594727 21.40234375 C3.15793994 19.97471881 2.97075687 18.54698506 2.78442383 17.11914062 C2.51601779 15.06350824 2.24462268 13.00828898 1.97265625 10.953125 C1.81031494 9.71723633 1.64797363 8.48134766 1.48071289 7.20800781 C1.11040398 4.73677413 0.67364283 2.40099936 0 0 Z " fill="#BB8FFA" transform="translate(224,56)"/>
<path d="M0 0 C0.33 0.66 0.66 1.32 1 2 C0.01789629 4.0088485 -0.98440599 6.00787329 -2 8 C-3.59554276 13.36682563 -3.55424924 19.29033706 -2.4375 24.75 C-0.30813981 28.08291161 2.68843265 29.91920233 6 32 C5.01 32.495 5.01 32.495 4 33 C4.63421875 33.53109375 5.2684375 34.0621875 5.921875 34.609375 C8.46045193 37.52969282 8.75410228 39.44811752 9.25 43.25 C9.39953125 44.32765625 9.5490625 45.4053125 9.703125 46.515625 C9.80109375 47.33546875 9.8990625 48.1553125 10 49 C9.34 49 8.68 49 8 49 C7.84144531 48.26394531 7.68289062 47.52789062 7.51953125 46.76953125 C6.03642942 40.56672417 4.80559409 37.15618948 0 33 C0 32.01 0 31.02 0 30 C-0.61875 29.7525 -1.2375 29.505 -1.875 29.25 C-4.46553673 27.72615486 -4.91184464 26.77288711 -6 24 C-7.04263602 15.84076695 -5.76459384 8.32309678 -2 1 C-1.34 0.67 -0.68 0.34 0 0 Z " fill="#F6E6DA" transform="translate(152,66)"/>
<path d="M0 0 C2.50037734 2.17424117 3.43628586 3.73045798 4 7 C4.66 6.01 5.32 5.02 6 4 C8 8.75 8 8.75 8 11 C8.598125 10.79375 9.19625 10.5875 9.8125 10.375 C12 10 12 10 15 12 C9.375 15 9.375 15 6 15 C5.67 16.32 5.34 17.64 5 19 C4.67 18.67 4.34 18.34 4 18 C3.34 18.66 2.68 19.32 2 20 C0.07993388 15.89340961 -0.39985956 12.25793868 -0.6875 7.75 C-0.77386719 6.50734375 -0.86023438 5.2646875 -0.94921875 3.984375 C-0.96597656 2.99953125 -0.98273438 2.0146875 -1 1 C-0.67 0.67 -0.34 0.34 0 0 Z " fill="#F9B3C9" transform="translate(241,161)"/>
<path d="M0 0 C0 0.66 0 1.32 0 2 C2.64 2 5.28 2 8 2 C5.35751295 6.93264249 5.35751295 6.93264249 3 9 C-0.40776842 9.61912129 -3.57438913 9.41905531 -7 9 C-8.60725635 5.78548731 -8.05748185 2.56387464 -8 -1 C-4.37673261 -2.2077558 -3.35853631 -1.54311128 0 0 Z " fill="#E9BEED" transform="translate(104,174)"/>
<path d="M0 0 C4.16138263 -0.08159574 7.9472484 0.01751476 12 1 C12 1.66 12 2.32 12 3 C18.93 3.33 25.86 3.66 33 4 C33.495 6.475 33.495 6.475 34 9 C33.34 8.67 32.68 8.34 32 8 C30.00039988 7.960008 27.99952758 7.95653201 26 8 C27.98 8.66 29.96 9.32 32 10 C32 10.66 32 11.32 32 12 C29.36 12 26.72 12 24 12 C24 11.34 24 10.68 24 10 C23.34 9.67 22.68 9.34 22 9 C22.33 8.34 22.66 7.68 23 7 C22.1028125 7.309375 22.1028125 7.309375 21.1875 7.625 C19 8 19 8 16 6 C12.97836841 5.46452098 9.95788013 5.11281379 6.91015625 4.7578125 C3.53506334 3.87892924 2.21410555 2.63558588 0 0 Z " fill="#0C38A6" transform="translate(192,54)"/>
<path d="M0 0 C13 1 13 1 16 2 C16 3.65 16 5.3 16 7 C13.69 7.33 11.38 7.66 9 8 C8.67 6.68 8.34 5.36 8 4 C6.35 3.67 4.7 3.34 3 3 C3.33 4.65 3.66 6.3 4 8 C3.01 8 2.02 8 1 8 C1 15.59 1 23.18 1 31 C0.67 31 0.34 31 0 31 C0 20.77 0 10.54 0 0 Z " fill="#1644C0" transform="translate(136,152)"/>
<path d="M0 0 C1.093125 0.33 2.18625 0.66 3.3125 1 C6.84578884 2.13086649 6.84578884 2.13086649 10 2 C10.33 1.34 10.66 0.68 11 0 C11.66 1.32 12.32 2.64 13 4 C12.67 4.33 12.34 4.66 12 5 C11.92794489 6.68608966 11.91613932 8.37500659 11.9375 10.0625 C11.95103516 11.44115234 11.95103516 11.44115234 11.96484375 12.84765625 C11.97644531 13.55792969 11.98804688 14.26820312 12 15 C12.66 15 13.32 15 14 15 C14.33 14.34 14.66 13.68 15 13 C15.33 13.33 15.66 13.66 16 14 C16.66 13.01 17.32 12.02 18 11 C21 16.75 21 16.75 21 19 C22.65 19 24.3 19 26 19 C26 19.33 26 19.66 26 20 C24.43759968 20.02730408 22.8750573 20.04653226 21.3125 20.0625 C20.44238281 20.07410156 19.57226562 20.08570312 18.67578125 20.09765625 C16.01191443 20.00043483 13.59426811 19.59364333 11 19 C10.814375 17.80503906 10.814375 17.80503906 10.625 16.5859375 C9.1187592 8.83916441 9.1187592 8.83916441 3.8125 3.3125 C2.54406512 2.53772626 1.2739902 1.76560456 0 1 C0 0.67 0 0.34 0 0 Z " fill="#F7C718" transform="translate(158,91)"/>
<path d="M0 0 C0.33 0.99 0.66 1.98 1 3 C1.66 2.67 2.32 2.34 3 2 C3 3.98 3 5.96 3 8 C1.02 8.99 1.02 8.99 -1 10 C-1 10.66 -1 11.32 -1 12 C-1.66 12 -2.32 12 -3 12 C-3.2475 12.5775 -3.495 13.155 -3.75 13.75 C-5.22820473 16.41076851 -6.58314039 18.13556544 -9 20 C-11.625 19.9375 -11.625 19.9375 -14 19 C-14.66 18.01 -15.32 17.02 -16 16 C-14.68 16.33 -13.36 16.66 -12 17 C-12 16.34 -12 15.68 -12 15 C-12.66 14.67 -13.32 14.34 -14 14 C-12.35 13.67 -10.7 13.34 -9 13 C-9 14.32 -9 15.64 -9 17 C-8.01 15.68 -7.02 14.36 -6 13 C-7.9254644 11.8509288 -7.9254644 11.8509288 -10 12 C-9.67 11.01 -9.34 10.02 -9 9 C-7.68 9.33 -6.36 9.66 -5 10 C-5.33 8.68 -5.66 7.36 -6 6 C-4.68 5.67 -3.36 5.34 -2 5 C-1.855625 4.360625 -1.71125 3.72125 -1.5625 3.0625 C-1 1 -1 1 0 0 Z " fill="#3560CC" transform="translate(185,163)"/>
<path d="M0 0 C3.875 1.75 3.875 1.75 5 4 C4.54625 4.4125 4.0925 4.825 3.625 5.25 C1.43747651 7.60579453 0 9.73262697 0 13 C-3.63 13.33 -7.26 13.66 -11 14 C-10.67 12.35 -10.34 10.7 -10 9 C-10.33 8.01 -10.66 7.02 -11 6 C-9.18808118 4.18808118 -6.27648701 4.5276487 -3.8125 4.28125 C-1.9832467 4.18001957 -1.9832467 4.18001957 -1 3 C-0.34 3 0.32 3 1 3 C0.67 2.01 0.34 1.02 0 0 Z " fill="#E1A2EF" transform="translate(259,91)"/>
<path d="M0 0 C2.48388693 1.83591642 2.99105829 2.95981431 3.671875 6.01953125 C4.07567067 10.91795727 4.22260762 15.77399157 4.25 20.6875 C4.2809375 22.09225586 4.2809375 22.09225586 4.3125 23.52539062 C4.31765625 24.42837891 4.3228125 25.33136719 4.328125 26.26171875 C4.3374707 27.07600342 4.34681641 27.89028809 4.35644531 28.72924805 C3.91999615 31.50966837 2.82385024 32.89956257 1 35 C0.22248194 29.05497728 0.04672764 23.95795224 1 18 C0.76990234 17.13761719 0.76990234 17.13761719 0.53515625 16.2578125 C-0.22067343 13.06898363 -0.09278878 10.02118875 -0.0625 6.75 C-0.05347656 5.48671875 -0.04445313 4.2234375 -0.03515625 2.921875 C-0.02355469 1.95765625 -0.01195313 0.9934375 0 0 Z " fill="#CB9DFA" transform="translate(123,73)"/>
<path d="M0 0 C2.77132017 0.30859025 5.54199986 0.6217033 8.3125 0.9375 C9.49102539 1.06801758 9.49102539 1.06801758 10.69335938 1.20117188 C11.45068359 1.28818359 12.20800781 1.37519531 12.98828125 1.46484375 C14.03302612 1.58267212 14.03302612 1.58267212 15.09887695 1.70288086 C17 2 17 2 20 3 C21.90538048 3.1930241 23.81536434 3.34214621 25.7265625 3.46484375 C27.3971875 3.58182617 27.3971875 3.58182617 29.1015625 3.70117188 C31.45804164 3.8592284 33.81482251 4.01284669 36.171875 4.16210938 C37.83863281 4.28102539 37.83863281 4.28102539 39.5390625 4.40234375 C41.07361084 4.50276978 41.07361084 4.50276978 42.63916016 4.60522461 C43.4182373 4.73550049 44.19731445 4.86577637 45 5 C45.495 5.99 45.495 5.99 46 7 C35.41278182 7.28758037 25.53376505 7.38761808 15.2109375 4.80078125 C10.19571649 3.55002662 5.10400075 2.79457887 0 2 C0 1.34 0 0.68 0 0 Z " fill="#BCA3A7" transform="translate(164,117)"/>
<path d="M0 0 C0.66 0 1.32 0 2 0 C2 0.99 2 1.98 2 3 C2.66 3 3.32 3 4 3 C4 3.66 4 4.32 4 5 C4.66 5 5.32 5 6 5 C6 5.66 6 6.32 6 7 C7.32 7 8.64 7 10 7 C10 7.66 10 8.32 10 9 C10.96421875 9.13277344 11.9284375 9.26554687 12.921875 9.40234375 C14.18515625 9.57894531 15.4484375 9.75554687 16.75 9.9375 C18.00296875 10.11152344 19.2559375 10.28554687 20.546875 10.46484375 C24 11 24 11 26 11.53125 C29.0568999 12.24771091 32.12094802 12.35969108 35.25 12.5625 C36.51328125 12.64628906 37.7765625 12.73007813 39.078125 12.81640625 C40.04234375 12.87699219 41.0065625 12.93757813 42 13 C42 13.66 42 14.32 42 15 C33.72984476 15.2144997 26.03764031 15.07422976 18 13 C18 12.34 18 11.68 18 11 C14.04 11 10.08 11 6 11 C5.67 10.01 5.34 9.02 5 8 C4.34 7.67 3.68 7.34 3 7 C0 2.5 0 2.5 0 0 Z " fill="#525BB4" transform="translate(158,112)"/>
<path d="M0 0 C4.96916636 0.51405169 9.29026351 1.23384882 14 3 C14 3.33 14 3.66 14 4 C10.04 4 6.08 4 2 4 C2 4.66 2 5.32 2 6 C0.948125 5.979375 -0.10375 5.95875 -1.1875 5.9375 C-4.32704904 5.98896802 -6.96883396 6.26517187 -10 7 C-10.33 8.65 -10.66 10.3 -11 12 C-12.32 12.33 -13.64 12.66 -15 13 C-15.33 11.68 -15.66 10.36 -16 9 C-14.68 8.67 -13.36 8.34 -12 8 C-12.33 7.34 -12.66 6.68 -13 6 C-8.7494534 4.14038586 -4.50066475 3.06795435 0 2 C0 1.34 0 0.68 0 0 Z " fill="#2648BA" transform="translate(160,49)"/>
<path d="M0 0 C1.56544436 3.13088871 1.00148591 6.42714023 0.87890625 9.8515625 C0.85529526 10.62559418 0.83168427 11.39962585 0.80735779 12.19711304 C0.73068562 14.6732603 0.64667684 17.14909759 0.5625 19.625 C0.50928285 21.30206808 0.45654243 22.97915137 0.40429688 24.65625 C0.27506572 28.77103023 0.13925354 32.88554725 0 37 C-0.33 37 -0.66 37 -1 37 C-1 29.41 -1 21.82 -1 14 C-1.66 14 -2.32 14 -3 14 C-3 12.68 -3 11.36 -3 10 C-4.32 9.67 -5.64 9.34 -7 9 C-6.67 7.68 -6.34 6.36 -6 5 C-6 5.66 -6 6.32 -6 7 C-5.34 7 -4.68 7 -4 7 C-4.33 5.35 -4.66 3.7 -5 2 C-3.35 1.34 -1.7 0.68 0 0 Z " fill="#A792FA" transform="translate(127,46)"/>
<path d="M0 0 C1.82258216 0.23052489 3.64552571 0.45820377 5.46875 0.68359375 C6.44521484 0.80565186 7.42167969 0.92770996 8.42773438 1.0534668 C9.94850586 1.24356323 9.94850586 1.24356323 11.5 1.4375 C17.75 2.21875 17.75 2.21875 24 3 C24.88171875 3.11021484 25.7634375 3.22042969 26.671875 3.33398438 C28.94791667 3.61848958 31.22395833 3.90299479 33.5 4.1875 C34.7684375 4.34605469 36.036875 4.50460938 37.34375 4.66796875 C38.2203125 4.77753906 39.096875 4.88710937 40 5 C40 5.33 40 5.66 40 6 C28.32056316 6.56241269 16.82128222 4.88195018 5.25 3.5 C3.18496932 3.25848542 1.11986557 3.01759476 -0.9453125 2.77734375 C-5.96441339 2.19208884 -10.98244869 1.59838851 -16 1 C-16 0.67 -16 0.34 -16 0 C-10.37458177 -0.90408507 -5.64557732 -0.79059306 0 0 Z " fill="#062E93" transform="translate(176,154)"/>
<path d="M0 0 C5 3 5 3 6 6 C5.01 6 4.02 6 3 6 C3 6.66 3 7.32 3 8 C4.65 8.33 6.3 8.66 8 9 C7.525625 9.433125 7.05125 9.86625 6.5625 10.3125 C4.76313043 12.02309613 4.76313043 12.02309613 4 15 C5.32 15.33 6.64 15.66 8 16 C5.36 16 2.72 16 0 16 C0 10.72 0 5.44 0 0 Z " fill="#224BC6" transform="translate(136,135)"/>
<path d="M0 0 C12.66970387 -0.18451025 12.66970387 -0.18451025 18 1 C18 1.33 18 1.66 18 2 C13.05 2 8.1 2 3 2 C3 2.66 3 3.32 3 4 C1.948125 4.268125 0.89625 4.53625 -0.1875 4.8125 C-3.59695742 5.87446215 -6.10163909 6.95409818 -9 9 C-9.33 9.66 -9.66 10.32 -10 11 C-10.66 11 -11.32 11 -12 11 C-12 11.66 -12 12.32 -12 13 C-12.99 13.33 -13.98 13.66 -15 14 C-14.45912682 10.21388773 -12.88277668 8.44599233 -10 6 C-9.34 6 -8.68 6 -8 6 C-8 5.34 -8 4.68 -8 4 C-5.33333333 3.33333333 -2.66666667 2.66666667 0 2 C0 1.34 0 0.68 0 0 Z " fill="#6966B6" transform="translate(162,53)"/>
<path d="M0 0 C1.32 0 2.64 0 4 0 C4 0.66 4 1.32 4 2 C4.66 2 5.32 2 6 2 C6 2.66 6 3.32 6 4 C6.99 4.33 7.98 4.66 9 5 C9 5.66 9 6.32 9 7 C9.804375 7.28875 10.60875 7.5775 11.4375 7.875 C14 9 14 9 15 11 C14.67 11.66 14.34 12.32 14 13 C14.99 13.33 15.98 13.66 17 14 C19.01430083 17.71055417 19.19402245 20.82851735 19 25 C16.49701566 22.06171403 15.53069061 19.82097239 15 16 C14.01 15.67 13.02 15.34 12 15 C11.67 13.02 11.34 11.04 11 9 C10.01 9 9.02 9 8 9 C7.67 7.68 7.34 6.36 7 5 C6.21625 4.9175 5.4325 4.835 4.625 4.75 C2 4 2 4 0.6875 1.9375 C0.460625 1.298125 0.23375 0.65875 0 0 Z " fill="#364DB9" transform="translate(202,61)"/>
<path d="M0 0 C0 0.66 0 1.32 0 2 C0.96099609 2.07347656 0.96099609 2.07347656 1.94140625 2.1484375 C7.21196085 2.6040145 11.96986288 3.3597379 17 5 C17 5.66 17 6.32 17 7 C-5.59489033 3.83112696 -5.59489033 3.83112696 -16 2 C-16 1.67 -16 1.34 -16 1 C-10.62915894 0.31798844 -5.41499441 -0.11521265 0 0 Z " fill="#A78DF7" transform="translate(198,48)"/>
<path d="M0 0 C1.98 0 3.96 0 6 0 C6.2226746 1.43534841 6.42761906 2.87345525 6.625 4.3125 C6.74101562 5.11300781 6.85703125 5.91351563 6.9765625 6.73828125 C7 9 7 9 5 12 C4.67 11.34 4.34 10.68 4 10 C3.34 11.98 2.68 13.96 2 16 C1.67 16 1.34 16 1 16 C0.08342019 10.61509359 -0.11138159 5.45769811 0 0 Z " fill="#F7A7E3" transform="translate(233,108)"/>
<path d="M0 0 C0.66 0.33 1.32 0.66 2 1 C-2.75 5 -2.75 5 -5 5 C-5.33 5.99 -5.66 6.98 -6 8 C-6.66 8 -7.32 8 -8 8 C-8.99 10.97 -9.98 13.94 -11 17 C-11.66 17 -12.32 17 -13 17 C-13 23.27 -13 29.54 -13 36 C-13.66 35.67 -14.32 35.34 -15 35 C-15.02714434 32.2915983 -15.04690846 29.58347279 -15.0625 26.875 C-15.07087891 26.11445312 -15.07925781 25.35390625 -15.08789062 24.5703125 C-15.10646509 20.2610356 -14.86117265 16.24483526 -14 12 C-13.34 12 -12.68 12 -12 12 C-11.67 11.01 -11.34 10.02 -11 9 C-10.34 9 -9.68 9 -9 9 C-9 8.34 -9 7.68 -9 7 C-8.34 7 -7.68 7 -7 7 C-6.6596875 6.1028125 -6.6596875 6.1028125 -6.3125 5.1875 C-4.6388703 2.39811716 -2.91182274 1.3831158 0 0 Z " fill="#9685B2" transform="translate(159,57)"/>
<path d="M0 0 C0.66 0.33 1.32 0.66 2 1 C1.01 2.485 1.01 2.485 0 4 C0.99 4.33 1.98 4.66 3 5 C2.34 5 1.68 5 1 5 C1.06058594 5.589021 1.12117187 6.17804199 1.18359375 6.78491211 C1.4603849 9.50198983 1.73022676 12.21971686 2 14.9375 C2.09539062 15.86369141 2.19078125 16.78988281 2.2890625 17.74414062 C2.85741047 23.52911107 3.09538785 29.18730276 3 35 C2.67 35 2.34 35 2 35 C1.88930176 34.24380371 1.77860352 33.48760742 1.66455078 32.70849609 C1.15696507 29.26314587 0.64106449 25.81908998 0.125 22.375 C-0.04902344 21.18519531 -0.22304687 19.99539062 -0.40234375 18.76953125 C-0.57636719 17.61582031 -0.75039062 16.46210937 -0.9296875 15.2734375 C-1.08679199 14.21560059 -1.24389648 13.15776367 -1.40576172 12.06787109 C-2.01512561 8.9219111 -2.9215129 6.01423319 -4 3 C-3.01 3 -2.02 3 -1 3 C-0.67 2.01 -0.34 1.02 0 0 Z " fill="#F82D08" transform="translate(184,58)"/>
<path d="M0 0 C0.33 0.99 0.66 1.98 1 3 C0.34 3 -0.32 3 -1 3 C-1.33 3.99 -1.66 4.98 -2 6 C-3.32 6 -4.64 6 -6 6 C-5.67 6.99 -5.34 7.98 -5 9 C-7.31 9.33 -9.62 9.66 -12 10 C-11.92042158 7.21475524 -11.54017731 5.52596212 -9.515625 3.5546875 C-5.96829857 0.90177244 -4.6233199 0 0 0 Z " fill="#F60707" transform="translate(167,59)"/>
<path d="M0 0 C1.74965358 -0.05429959 3.49979787 -0.09292823 5.25 -0.125 C6.22453125 -0.14820312 7.1990625 -0.17140625 8.203125 -0.1953125 C11.09521156 0.00664885 12.45977299 0.7298865 15 2 C17.64561717 2.16693544 17.64561717 2.16693544 20.5 2 C26.85172471 1.87484286 32.78381001 2.76557929 39 4 C38.67 4.66 38.34 5.32 38 6 C10.83596307 4.23140052 10.83596307 4.23140052 0 1 C0 0.67 0 0.34 0 0 Z " fill="#FAEFDF" transform="translate(171,117)"/>
<path d="M0 0 C3 2 3 2 4.4375 4.4375 C6.04266645 7.06997297 7.54323683 8.2209646 10 10 C10 10.66 10 11.32 10 12 C10.66 12 11.32 12 12 12 C12.66 14.64 13.32 17.28 14 20 C13.34 20 12.68 20 12 20 C12 19.34 12 18.68 12 18 C11.01 18 10.02 18 9 18 C9 17.01 9 16.02 9 15 C8.01 14.67 7.02 14.34 6 14 C4.39453125 11.34765625 4.39453125 11.34765625 2.8125 8.0625 C2.28269531 6.98097656 1.75289062 5.89945312 1.20703125 4.78515625 C0 2 0 2 0 0 Z " fill="#6564B8" transform="translate(144,92)"/>
<path d="M0 0 C4.86942939 4.86942939 5.15132534 9.56807463 5.25 16.1875 C5.27578125 17.23292969 5.3015625 18.27835938 5.328125 19.35546875 C5.21984375 20.22816406 5.1115625 21.10085937 5 22 C4.01 22.66 3.02 23.32 2 24 C1.93941406 23.10796875 1.87882813 22.2159375 1.81640625 21.296875 C1.73261719 20.12640625 1.64882812 18.9559375 1.5625 17.75 C1.48128906 16.58984375 1.40007812 15.4296875 1.31640625 14.234375 C1.06591492 11.67379694 0.63869482 9.46961997 0 7 C-0.03888349 4.66699067 -0.0448635 2.33290199 0 0 Z " fill="#2E4ABA" transform="translate(221,86)"/>
<path d="M0 0 C0 0.66 0 1.32 0 2 C1.32 2 2.64 2 4 2 C4.36923077 6.55384615 4.36923077 6.55384615 2.5 8.8125 C2.005 9.204375 1.51 9.59625 1 10 C0.01 9.67 -0.98 9.34 -2 9 C-2 8.34 -2 7.68 -2 7 C-1.34 6.67 -0.68 6.34 0 6 C-0.99 5.34 -1.98 4.68 -3 4 C-3.33 5.65 -3.66 7.3 -4 9 C-4.66 8.67 -5.32 8.34 -6 8 C-6.625 4.9375 -6.625 4.9375 -7 2 C-4.35261084 0.5393715 -3.10551666 0 0 0 Z " fill="#D198EA" transform="translate(263,88)"/>
<path d="M0 0 C0.87454834 0.00523682 1.74909668 0.01047363 2.65014648 0.01586914 C3.59438477 0.0190918 4.53862305 0.02231445 5.51147461 0.02563477 C6.50469727 0.03401367 7.49791992 0.04239258 8.52124023 0.05102539 C9.51833008 0.05553711 10.51541992 0.06004883 11.54272461 0.06469727 C14.01478872 0.07652532 16.48673541 0.0930069 18.95874023 0.11352539 C16.95874023 3.11352539 16.95874023 3.11352539 14.68139648 3.78540039 C11.90204894 4.12035763 9.19563088 4.31680399 6.39624023 4.36352539 C5.46682617 4.38930664 4.53741211 4.41508789 3.57983398 4.44165039 C0.54578966 4.06182964 -0.78999854 3.12641778 -3.04125977 1.11352539 C-2.04125977 0.11352539 -2.04125977 0.11352539 0 0 Z " fill="#0B3FBA" transform="translate(180.041259765625,151.886474609375)"/>
<path d="M0 0 C3.375 -0.125 3.375 -0.125 7 0 C10.09902323 3.09902323 9.9898579 5.39147385 10.0625 9.75 C10.041875 10.8225 10.02125 11.895 10 13 C9.67 12.34 9.34 11.68 9 11 C8.01 11.33 7.02 11.66 6 12 C5.01 10.35 4.02 8.7 3 7 C4.32 6.67 5.64 6.34 7 6 C7 5.01 7 4.02 7 3 C5.824375 3.0928125 5.824375 3.0928125 4.625 3.1875 C3.75875 3.125625 2.8925 3.06375 2 3 C1.34 2.01 0.68 1.02 0 0 Z " fill="#0B3EB5" transform="translate(217,61)"/>
<path d="M0 0 C0.66 0 1.32 0 2 0 C2 0.66 2 1.32 2 2 C2.99 2.33 3.98 2.66 5 3 C5.33 3.99 5.66 4.98 6 6 C5.34 6 4.68 6 4 6 C3.67 8.31 3.34 10.62 3 13 C-0.875 12.125 -0.875 12.125 -2 11 C-2 10.34 -2 9.68 -2 9 C-2.66 9 -3.32 9 -4 9 C-4 8.34 -4 7.68 -4 7 C-2.68 6.67 -1.36 6.34 0 6 C0 4.02 0 2.04 0 0 Z " fill="#A099FA" transform="translate(179,11)"/>
<path d="M0 0 C0.99 0.33 1.98 0.66 3 1 C3.66666667 3 4.33333333 5 5 7 C7.39828557 11.3390947 10.04208622 15.53432792 12.75390625 19.68359375 C13.16511719 20.44800781 13.57632813 21.21242188 14 22 C13.67 22.66 13.34 23.32 13 24 C12.65219482 23.50072998 12.30438965 23.00145996 11.94604492 22.48706055 C10.36298159 20.21834593 8.77529716 17.95290379 7.1875 15.6875 C6.36668945 14.50897461 6.36668945 14.50897461 5.52929688 13.30664062 C4.99755859 12.54931641 4.46582031 11.79199219 3.91796875 11.01171875 C3.43094482 10.31522217 2.9439209 9.61872559 2.44213867 8.90112305 C1.07650979 7.10086029 -0.36240047 5.55263976 -2 4 C-1.34 2.68 -0.68 1.36 0 0 Z " fill="#F22A09" transform="translate(161,65)"/>
<path d="M0 0 C0.74507812 0.00451172 1.49015625 0.00902344 2.2578125 0.01367188 C4.0885764 0.02540754 5.91929873 0.0433415 7.75 0.0625 C7.75 0.3925 7.75 0.7225 7.75 1.0625 C6.69941406 1.13726562 5.64882812 1.21203125 4.56640625 1.2890625 C-3.15857293 1.96624028 -9.20152348 2.62371879 -15.453125 7.625 C-17.2951308 9.09860464 -19.11299127 10.07909775 -21.25 11.0625 C-21.58 10.4025 -21.91 9.7425 -22.25 9.0625 C-20.67353449 7.74175885 -19.08854469 6.43118776 -17.5 5.125 C-16.61828125 4.39410156 -15.7365625 3.66320313 -14.828125 2.91015625 C-10.16831742 -0.42937252 -5.57328695 -0.06400418 0 0 Z " fill="#DAAEAB" transform="translate(173.25,55.9375)"/>
<path d="M0 0 C0.99 0 1.98 0 3 0 C3 0.66 3 1.32 3 2 C5.97 2.33 8.94 2.66 12 3 C11.67 4.32 11.34 5.64 11 7 C6.71 7 2.42 7 -2 7 C-1.34 4.69 -0.68 2.38 0 0 Z " fill="#EDACE0" transform="translate(245,176)"/>
<path d="M0 0 C2.33944736 0.28730055 4.6739143 0.61936779 7 1 C7 2.98 7 4.96 7 7 C4.6739143 7.38063221 2.33944736 7.71269945 0 8 C-1 7 -1 7 -1.125 4 C-1 1 -1 1 0 0 Z " fill="#DEA9E4" transform="translate(17,175)"/>
<path d="M0 0 C-0.33 0.66 -0.66 1.32 -1 2 C0.32 2.66 1.64 3.32 3 4 C-2.73138244 4.15490223 -7.89349206 3.65244885 -13.5 2.5 C-14.22703125 2.35691406 -14.9540625 2.21382812 -15.703125 2.06640625 C-17.47009071 1.71766302 -19.23525309 1.35980277 -21 1 C-21 0.67 -21 0.34 -21 0 C-13.87028851 -1.25818438 -7.18050184 -0.71148265 0 0 Z " fill="#1B3FC3" transform="translate(189,50)"/>
<path d="M0 0 C0 0.66 0 1.32 0 2 C-1.875 3.0625 -1.875 3.0625 -4 4 C-4.66 3.67 -5.32 3.34 -6 3 C-6 3.66 -6 4.32 -6 5 C-6.969375 5.763125 -7.93875 6.52625 -8.9375 7.3125 C-11.34232248 9.21372436 -11.92787802 9.76817935 -12.875 12.8125 C-12.91625 13.534375 -12.9575 14.25625 -13 15 C-13.99 15.33 -14.98 15.66 -16 16 C-16 14.68 -16 13.36 -16 12 C-15.34 12 -14.68 12 -14 12 C-14 10.68 -14 9.36 -14 8 C-13.01 7.34 -12.02 6.68 -11 6 C-10.814375 5.01 -10.814375 5.01 -10.625 4 C-10 2 -10 2 -7.75 0.75 C-5.02003872 0.00546511 -2.81296916 -0.1607411 0 0 Z " fill="#3D51B8" transform="translate(160,54)"/>
<path d="M0 0 C1.28132812 0.00902344 2.56265625 0.01804688 3.8828125 0.02734375 C4.87023437 0.03894531 5.85765625 0.05054688 6.875 0.0625 C6.545 1.3825 6.215 2.7025 5.875 4.0625 C0.74916389 4.16501672 -4.07497778 4.09840199 -9.125 3.0625 C-9.125 2.4025 -9.125 1.7425 -9.125 1.0625 C-6.12186252 -0.43906874 -3.33432478 -0.03031204 0 0 Z " fill="#F90A0C" transform="translate(177.125,56.9375)"/>
<path d="M0 0 C0.33 0.66 0.66 1.32 1 2 C0.67 2.99 0.34 3.98 0 5 C-4.05431692 6.15837626 -6.21812119 5.83691257 -10 4 C-10 3.34 -10 2.68 -10 2 C-6.43275681 -0.75187332 -4.30378319 -1.55414393 0 0 Z " fill="#FCC0D8" transform="translate(258,174)"/>
<path d="M0 0 C0 0.99 0 1.98 0 3 C0.99 2.34 1.98 1.68 3 1 C4.32 1 5.64 1 7 1 C6.67 2.32 6.34 3.64 6 5 C-0.7857936 4.45136137 -7.35009036 3.45732062 -14 2 C-14 1.67 -14 1.34 -14 1 C-9.32798795 -0.20568053 -4.78503708 -0.09382426 0 0 Z " fill="#938CF8" transform="translate(150,40)"/>
<path d="M0 0 C1.99954746 -0.04254356 4.00041636 -0.04080783 6 0 C7 1 7 1 7.0625 3.5625 C7.041875 4.366875 7.02125 5.17125 7 6 C4.125 6.625 4.125 6.625 1 7 C0.34 6.34 -0.32 5.68 -1 5 C-0.625 2.375 -0.625 2.375 0 0 Z " fill="#A1A6FD" transform="translate(96,18)"/>
<path d="M0 0 C0.33 0.66 0.66 1.32 1 2 C1.66 2 2.32 2 3 2 C3 8.27 3 14.54 3 21 C2.34 21 1.68 21 1 21 C0.67 14.07 0.34 7.14 0 0 Z " fill="#0A0E47" transform="translate(129,43)"/>
<path d="M0 0 C2.31 0 4.62 0 7 0 C7 1.98 7 3.96 7 6 C5.0085944 6.38133299 3.00720923 6.71325582 1 7 C0 6 0 6 -0.0625 2.9375 C-0.041875 1.968125 -0.02125 0.99875 0 0 Z " fill="#AD9FFC" transform="translate(251,18)"/>
<path d="M0 0 C0.99 0.33 1.98 0.66 3 1 C2.51181711 5.24063347 1.48221736 6.94766011 -1.8125 9.625 C-2.49957031 10.19476563 -3.18664062 10.76453125 -3.89453125 11.3515625 C-5.90974573 12.9293371 -7.94424492 14.47550747 -10 16 C-8.46891253 12.69162003 -6.55556247 9.83763435 -4.4375 6.875 C-2.03268334 3.54908252 -2.03268334 3.54908252 0 0 Z " fill="#F32008" transform="translate(211,82)"/>
<path d="M0 0 C0.99 0 1.98 0 3 0 C1.55676531 4.73789165 -0.37226733 8.98858151 -2.625 13.375 C-2.94984375 14.01566406 -3.2746875 14.65632813 -3.609375 15.31640625 C-4.40257407 16.87947501 -5.20077031 18.44000622 -6 20 C-7.4146816 15.75595521 -5.6963296 12.84871797 -4.125 8.875 C-3.84269531 8.13378906 -3.56039062 7.39257812 -3.26953125 6.62890625 C-1.15992374 1.15992374 -1.15992374 1.15992374 0 0 Z " fill="#F43308" transform="translate(203,76)"/>
<path d="M0 0 C0.99 0 1.98 0 3 0 C3 0.66 3 1.32 3 2 C3.99 2.33 4.98 2.66 6 3 C5.34 5.31 4.68 7.62 4 10 C2.68 9.67 1.36 9.34 0 9 C0 7.68 0 6.36 0 5 C0.66 4.67 1.32 4.34 2 4 C1.34 4 0.68 4 0 4 C-0.33 5.32 -0.66 6.64 -1 8 C-1.66 8 -2.32 8 -3 8 C-1.125 1.125 -1.125 1.125 0 0 Z " fill="#D0A3F4" transform="translate(106,86)"/>
<path d="M0 0 C0.99 0.495 0.99 0.495 2 1 C2.67375452 3.088639 3 4.80363095 3 7 C3.598125 6.79375 4.19625 6.5875 4.8125 6.375 C7 6 7 6 10 8 C4.375 11 4.375 11 1 11 C0.67 12.32 0.34 13.64 0 15 C0 10.05 0 5.1 0 0 Z " fill="#F9B5C4" transform="translate(246,165)"/>
<path d="M0 0 C0.33 0.66 0.66 1.32 1 2 C3.64 2 6.28 2 9 2 C9 2.99 9 3.98 9 5 C5.37 5.33 1.74 5.66 -2 6 C-2.66 4.68 -3.32 3.36 -4 2 C-2.68 1.34 -1.36 0.68 0 0 Z " fill="#FDC7DD" transform="translate(103,155)"/>
<path d="M0 0 C0.042721 1.66611905 0.04063832 3.33382885 0 5 C-1 6 -1 6 -3.5625 6.0625 C-4.7690625 6.0315625 -4.7690625 6.0315625 -6 6 C-6.33 4.02 -6.66 2.04 -7 0 C-4.3333581 -1.33332095 -2.83319697 -0.67102033 0 0 Z " fill="#D6AEF6" transform="translate(25,96)"/>
<path d="M0 0 C0.66 0.33 1.32 0.66 2 1 C1.67 1.99 1.34 2.98 1 4 C0.77202438 6.73289293 0.58331813 9.45042204 0.4375 12.1875 C0.39431641 12.93708984 0.35113281 13.68667969 0.30664062 14.45898438 C0.20077315 16.30578375 0.0999024 18.15286834 0 20 C-0.66 20 -1.32 20 -2 20 C-2.05392397 17.22890693 -2.09363455 14.45886182 -2.125 11.6875 C-2.14175781 10.90181641 -2.15851563 10.11613281 -2.17578125 9.30664062 C-2.18544922 8.1706543 -2.18544922 8.1706543 -2.1953125 7.01171875 C-2.20578613 6.31522217 -2.21625977 5.61872559 -2.22705078 4.90112305 C-2 3 -2 3 0 0 Z " fill="#5C5FB2" transform="translate(144,71)"/>
<path d="M0 0 C0.93423645 3.01031744 1.04449911 3.86650268 0 7 C-0.886875 6.95875 -1.77375 6.9175 -2.6875 6.875 C-6.01468647 7.00055421 -7.97556293 7.72655281 -11 9 C-12.32 9 -13.64 9 -15 9 C-14.67 8.01 -14.34 7.02 -14 6 C-12.02 6.495 -12.02 6.495 -10 7 C-10 6.34 -10 5.68 -10 5 C-8.906875 5.103125 -7.81375 5.20625 -6.6875 5.3125 C-5.470625 5.209375 -4.25375 5.10625 -3 5 C-0.99135641 2.6273026 -0.99135641 2.6273026 0 0 Z " fill="#2948B9" transform="translate(215,121)"/>
<path d="M0 0 C0.33 0.99 0.66 1.98 1 3 C0.34 3 -0.32 3 -1 3 C-1 3.66 -1 4.32 -1 5 C-0.01 5 0.98 5 2 5 C2 5.66 2 6.32 2 7 C-1.05269846 8.52634923 -3.75845689 7.83794444 -7.125 7.5625 C-8.40632812 7.46066406 -9.68765625 7.35882813 -11.0078125 7.25390625 C-11.99523437 7.17011719 -12.98265625 7.08632812 -14 7 C-14 6.67 -14 6.34 -14 6 C-8.555 5.01 -8.555 5.01 -3 4 C-3 3.34 -3 2.68 -3 2 C-2.01 2 -1.02 2 0 2 C0 1.34 0 0.68 0 0 Z " fill="#F01812" transform="translate(205,112)"/>
<path d="M0 0 C4.16138263 -0.08159574 7.9472484 0.01751476 12 1 C12 1.66 12 2.32 12 3 C13.32 3.33 14.64 3.66 16 4 C11.84595154 5.38468282 8.23575387 5.02453252 4 4 C1.4375 1.9375 1.4375 1.9375 0 0 Z " fill="#1C3B9F" transform="translate(192,54)"/>
<path d="M0 0 C4.96916636 0.51405169 9.29026351 1.23384882 14 3 C14 3.33 14 3.66 14 4 C10.04 4 6.08 4 2 4 C2 4.66 2 5.32 2 6 C1.34 6 0.68 6 0 6 C0 4.02 0 2.04 0 0 Z " fill="#3448A1" transform="translate(160,49)"/>
<path d="M0 0 C0.66 0.33 1.32 0.66 2 1 C1.54625 1.515625 1.0925 2.03125 0.625 2.5625 C-1.38200383 5.57300574 -2.12731809 8.50927237 -3 12 C-3.33 11.01 -3.66 10.02 -4 9 C-4.66 9 -5.32 9 -6 9 C-5.67 6.69 -5.34 4.38 -5 2 C-2.625 0.9375 -2.625 0.9375 0 0 Z " fill="#9E8CF8" transform="translate(249,15)"/>
<path d="M0 0 C1.65 0.33 3.3 0.66 5 1 C5.625 2.875 5.625 2.875 6 5 C5.34 5.66 4.68 6.32 4 7 C2.68 7 1.36 7 0 7 C-1.125 2.25 -1.125 2.25 0 0 Z " fill="#F7D93C" transform="translate(174,95)"/>
<path d="M0 0 C4.3590077 3.48720616 4.94552183 6.72760915 6 12 C5.34 12 4.68 12 4 12 C4 11.34 4 10.68 4 10 C3.34 10 2.68 10 2 10 C2 9.34 2 8.68 2 8 C0.68 8 -0.64 8 -2 8 C-2.33 6.68 -2.66 5.36 -3 4 C-2.01 4 -1.02 4 0 4 C0 2.68 0 1.36 0 0 Z " fill="#F6CF1A" transform="translate(182,84)"/>
<path d="M0 0 C0.33 0 0.66 0 1 0 C1.16777857 3.60411581 1.33403188 7.2083004 1.5 10.8125 C1.54769531 11.83666016 1.59539062 12.86082031 1.64453125 13.91601562 C1.68964844 14.89892578 1.73476562 15.88183594 1.78125 16.89453125 C1.82314453 17.80050049 1.86503906 18.70646973 1.90820312 19.63989258 C2.04727776 23.21551633 1.86933484 26.63265214 1.5 30.1875 C1.4071875 31.08855469 1.314375 31.98960938 1.21875 32.91796875 C1.1465625 33.60503906 1.074375 34.29210937 1 35 C0.67 35 0.34 35 0 35 C0 23.45 0 11.9 0 0 Z " fill="#102794" transform="translate(128,45)"/>
<path d="M0 0 C4.62 0.66 9.24 1.32 14 2 C14 2.99 14 3.98 14 5 C9.13103697 4.40380045 4.67209049 3.43023178 0 2 C0 1.34 0 0.68 0 0 Z " fill="#0D42CF" transform="translate(210,54)"/>
<path d="M0 0 C0.33 0 0.66 0 1 0 C1.89635331 7.83703499 2.19386419 14.38600077 0 22 C-0.33 22 -0.66 22 -1 22 C-1.02700675 19.08327116 -1.04684237 16.16679323 -1.0625 13.25 C-1.07087891 12.425 -1.07925781 11.6 -1.08789062 10.75 C-1.09111328 9.95078125 -1.09433594 9.1515625 -1.09765625 8.328125 C-1.10289307 7.5949707 -1.10812988 6.86181641 -1.11352539 6.10644531 C-0.9975109 3.9538151 -0.59073271 2.0685865 0 0 Z " fill="#D190F6" transform="translate(230,68)"/>
<path d="M0 0 C3.00056084 -0.08166849 5.9988539 -0.14081551 9 -0.1875 C9.83917969 -0.21263672 10.67835938 -0.23777344 11.54296875 -0.26367188 C17.40402129 -0.33182365 21.63166106 0.63271165 27 3 C27 3.33 27 3.66 27 4 C21.57026477 4.25254582 21.57026477 4.25254582 18.8125 3.03125 C15.09539913 1.66831301 11.61707495 1.54356086 7.6875 1.375 C6.57665039 1.31699219 6.57665039 1.31699219 5.44335938 1.2578125 C3.62928691 1.16418295 1.81467884 1.08103149 0 1 C0 0.67 0 0.34 0 0 Z " fill="#A68BB4" transform="translate(165,55)"/>
<path d="M0 0 C-0.33 0.66 -0.66 1.32 -1 2 C-3.87109375 2.703125 -3.87109375 2.703125 -7.4375 3.25 C-8.61183594 3.44078125 -9.78617188 3.6315625 -10.99609375 3.828125 C-12.48302734 3.91320312 -12.48302734 3.91320312 -14 4 C-14.66 3.34 -15.32 2.68 -16 2 C-14.66684549 1.66595217 -13.33346731 1.33279697 -12 1 C-11.25621094 0.81179687 -10.51242188 0.62359375 -9.74609375 0.4296875 C-8.98425781 0.24664062 -8.22242188 0.06359375 -7.4375 -0.125 C-6.67308594 -0.31320313 -5.90867188 -0.50140625 -5.12109375 -0.6953125 C-3 -1 -3 -1 0 0 Z " fill="#FB0203" transform="translate(203,115)"/>
<path d="M0 0 C0 0.99 0 1.98 0 3 C0.87416467 5.07659542 0.87416467 5.07659542 2.625 6.375 C3.07875 6.91125 3.5325 7.4475 4 8 C3.6875 10.1875 3.6875 10.1875 3 12 C1.68 12 0.36 12 -1 12 C-2.11445498 9.77109005 -2.16480286 8.46944894 -2.1875 6 C-2.20167969 5.29875 -2.21585938 4.5975 -2.23046875 3.875 C-2 2 -2 2 0 0 Z " fill="#F9D608" transform="translate(171,94)"/>
<path d="M0 0 C0.99 0.33 1.98 0.66 3 1 C2.38722388 3.96175123 1.74627478 5.38058783 0 8 C-3.625 8.6875 -3.625 8.6875 -7 9 C-6.34 8.67 -5.68 8.34 -5 8 C-5 6.02 -5 4.04 -5 2 C-4.01 2.33 -3.02 2.66 -2 3 C-2 3.66 -2 4.32 -2 5 C-1.34 5 -0.68 5 0 5 C0 3.35 0 1.7 0 0 Z " fill="#E4AEF5" transform="translate(101,96)"/>
<path d="M0 0 C0.66 0.33 1.32 0.66 2 1 C2.75 3.4375 2.75 3.4375 3 6 C2.34 6.66 1.68 7.32 1 8 C-1.125 7.625 -1.125 7.625 -3 7 C-3 5.02 -3 3.04 -3 1 C-2.01 0.67 -1.02 0.34 0 0 Z " fill="#F2CCF4" transform="translate(99,172)"/>
<path d="M0 0 C0.99 0 1.98 0 3 0 C3.33 1.32 3.66 2.64 4 4 C3.01 4 2.02 4 1 4 C1 11.59 1 19.18 1 27 C0.67 27 0.34 27 0 27 C0 18.09 0 9.18 0 0 Z " fill="#3D4BC5" transform="translate(136,156)"/>
<path d="M0 0 C2.97 0 5.94 0 9 0 C9 1.32 9 2.64 9 4 C5.71303767 4.79953138 4.28976808 5.09658936 1 4 C0.67 2.68 0.34 1.36 0 0 Z " fill="#304AB9" transform="translate(167,123)"/>
<path d="M0 0 C0.99 0 1.98 0 3 0 C1.5140084 4.59306496 -0.85014682 7.43569245 -4 11 C-4.98120464 7.94736336 -4.98120464 6.05263664 -4 3 C-2.68 2.67 -1.36 2.34 0 2 C0 1.34 0 0.68 0 0 Z " fill="#DCABF3" transform="translate(26,101)"/>
<path d="M0 0 C0.99 0.33 1.98 0.66 3 1 C3.33 1.99 3.66 2.98 4 4 C2.671875 5.97265625 2.671875 5.97265625 0.75 8.0625 C0.12609375 8.75472656 -0.4978125 9.44695313 -1.140625 10.16015625 C-3 12 -3 12 -6 14 C-4.79618552 11.50638429 -3.54571278 9.31856917 -2 7 C-2.33 6.34 -2.66 5.68 -3 5 C-2.01 4.67 -1.02 4.34 0 4 C0 2.68 0 1.36 0 0 Z " fill="#9C8BF8" transform="translate(264,17)"/>
<path d="M0 0 C-2.99481865 4.22797927 -2.99481865 4.22797927 -5 6 C-8.3125 6.375 -8.3125 6.375 -11 6 C-11 5.34 -11 4.68 -11 4 C-4.29411765 -2.14705882 -4.29411765 -2.14705882 0 0 Z " fill="#F1C6F5" transform="translate(112,177)"/>
<path d="M0 0 C0.33 0.66 0.66 1.32 1 2 C-0.1446875 3.2065625 -0.1446875 3.2065625 -1.3125 4.4375 C-4.48243973 8.19279792 -5.72055873 12.3191173 -7 17 C-7.33 17 -7.66 17 -8 17 C-8.58737246 11.36122443 -7.47478243 8.41941219 -4.38671875 3.69921875 C-3 2 -3 2 0 0 Z " fill="#A797B2" transform="translate(219,104)"/>
<path d="M0 0 C0.99 0.33 1.98 0.66 3 1 C2.67 1.66 2.34 2.32 2 3 C4.475 3.99 4.475 3.99 7 5 C7.33 4.34 7.66 3.68 8 3 C8 3.99 8 4.98 8 6 C7.34 6 6.68 6 6 6 C6 6.66 6 7.32 6 8 C4.02 8 2.04 8 0 8 C0 5.36 0 2.72 0 0 Z " fill="#ECB0EB" transform="translate(88,104)"/>
<path d="M0 0 C5.8022175 -0.36263859 9.63999211 0.74315457 15 3 C15 3.66 15 4.32 15 5 C9.33895411 4.50341703 5.12325529 3.45489316 0 1 C0 0.67 0 0.34 0 0 Z " fill="#515AB8" transform="translate(187,56)"/>
<path d="M0 0 C0.33 0 0.66 0 1 0 C1.33895656 1.72807318 1.67091525 3.45751974 2 5.1875 C2.185625 6.15042969 2.37125 7.11335937 2.5625 8.10546875 C2.96877612 10.7934206 3.07933572 13.28771019 3 16 C1.02 16 -0.96 16 -3 16 C-3 15.67 -3 15.34 -3 15 C-1.35 15 0.3 15 2 15 C1.67 13.02 1.34 11.04 1 9 C0.34 9 -0.32 9 -1 9 C-0.67 6.03 -0.34 3.06 0 0 Z " fill="#2146B7" transform="translate(237,149)"/>
<path d="M0 0 C2.4375 0.375 2.4375 0.375 5 1 C5.33 1.66 5.66 2.32 6 3 C7.64363134 3.72159424 9.31050386 4.39351421 11 5 C7.86501708 6.85776765 5.62528568 7.20140476 2 7 C2.33 5.35 2.66 3.7 3 2 C2.01 1.67 1.02 1.34 0 1 C0 0.67 0 0.34 0 0 Z " fill="#2E50BE" transform="translate(152,113)"/>
<path d="M0 0 C2.98109363 1.38407918 5.59207437 2.74742441 8 5 C8.828125 7.91796875 8.828125 7.91796875 9.25 11.1875 C9.39953125 12.27417969 9.5490625 13.36085938 9.703125 14.48046875 C9.80109375 15.31191406 9.8990625 16.14335938 10 17 C9.34 17 8.68 17 8 17 C7.84144531 16.27554688 7.68289062 15.55109375 7.51953125 14.8046875 C6.0188297 8.58631093 4.54097559 4.54097559 0 0 Z " fill="#D8BDAC" transform="translate(152,98)"/>
<path d="M0 0 C0.66 0 1.32 0 2 0 C2.40178571 8.03571429 2.40178571 8.03571429 -1 12 C-1.22162329 10.37675914 -1.42689803 8.751279 -1.625 7.125 C-1.74101563 6.22007813 -1.85703125 5.31515625 -1.9765625 4.3828125 C-1.98429687 3.59648438 -1.99203125 2.81015625 -2 2 C-1.34 1.34 -0.68 0.68 0 0 Z " fill="#F1ACF3" transform="translate(125,96)"/>
<path d="M0 0 C6.52307692 0.61538462 6.52307692 0.61538462 8.9375 2.5625 C9.288125 3.036875 9.63875 3.51125 10 4 C5.70700357 5.26264601 3.12168689 4.62950412 -1 3 C-0.67 2.01 -0.34 1.02 0 0 Z " fill="#F50A07" transform="translate(185,59)"/>
<path d="M0 0 C0.66 0 1.32 0 2 0 C2.33 2.31 2.66 4.62 3 7 C1.1875 7.625 1.1875 7.625 -1 8 C-1.99 7.34 -2.98 6.68 -4 6 C-4 5.34 -4 4.68 -4 4 C-3.01 4 -2.02 4 -1 4 C-0.67 2.68 -0.34 1.36 0 0 Z " fill="#9993FA" transform="translate(29,9)"/>
<path d="M0 0 C0.99 0.495 0.99 0.495 2 1 C2 2.65 2 4.3 2 6 C2.66 5.67 3.32 5.34 4 5 C3.53199289 9.05606165 3.12046792 12.46588679 1 16 C0.08342019 10.61509359 -0.11138159 5.45769811 0 0 Z " fill="#F1ADEB" transform="translate(233,108)"/>
<path d="M0 0 C0.83796731 4.65537393 1.0161692 8.37078475 0 13 C-0.66 13 -1.32 13 -2 13 C-1.96519531 12.30132812 -1.93039063 11.60265625 -1.89453125 10.8828125 C-1.86746094 9.97273438 -1.84039062 9.06265625 -1.8125 8.125 C-1.77769531 7.22007813 -1.74289063 6.31515625 -1.70703125 5.3828125 C-1.85205078 4.20332031 -1.85205078 4.20332031 -2 3 C-2.99 2.34 -3.98 1.68 -5 1 C-2 0 -2 0 0 0 Z " fill="#F90403" transform="translate(165,97)"/>
<path d="M0 0 C0.33 0.99 0.66 1.98 1 3 C-0.32 3.33 -1.64 3.66 -3 4 C-3 4.66 -3 5.32 -3 6 C-1.35 6.33 0.3 6.66 2 7 C1.01 8.485 1.01 8.485 0 10 C-0.66 10 -1.32 10 -2 10 C-2.33 9.34 -2.66 8.68 -3 8 C-5.01669827 6.86649466 -5.01669827 6.86649466 -7 6 C-7 5.34 -7 4.68 -7 4 C-6.030625 3.525625 -5.06125 3.05125 -4.0625 2.5625 C-1.19522563 1.29806053 -1.19522563 1.29806053 0 0 Z " fill="#928AF4" transform="translate(178,14)"/>
<path d="M0 0 C1.98 0 3.96 0 6 0 C4.6875 3.4375 4.6875 3.4375 3 7 C2.01 7.33 1.02 7.66 0 8 C0 5.36 0 2.72 0 0 Z " fill="#EFB7DF" transform="translate(24,168)"/>
<path d="M0 0 C0.99 0 1.98 0 3 0 C3.33 3.3 3.66 6.6 4 10 C3.34 10 2.68 10 2 10 C1.566875 8.576875 1.566875 8.576875 1.125 7.125 C0.23174891 3.94788422 0.23174891 3.94788422 -2 2 C-1.34 1.34 -0.68 0.68 0 0 Z " fill="#F9C50D" transform="translate(211,88)"/>
<path d="M0 0 C0.66 0 1.32 0 2 0 C3.80230168 3.82989106 4.19622241 6.78121808 4 11 C3.01 11.495 3.01 11.495 2 12 C0.40861915 7.82262526 -0.21278058 4.46839215 0 0 Z " fill="#2045B4" transform="translate(221,80)"/>
<path d="M0 0 C1.65 0 3.3 0 5 0 C5.33 0.66 5.66 1.32 6 2 C7.88764903 2.68472665 7.88764903 2.68472665 10.0625 3.125 C10.79597656 3.29257812 11.52945313 3.46015625 12.28515625 3.6328125 C12.85105469 3.75398438 13.41695312 3.87515625 14 4 C10.42619658 5.19126781 8.49116698 4.7349445 4.8125 4.0625 C3.72582031 3.86785156 2.63914063 3.67320313 1.51953125 3.47265625 C0.68808594 3.31667969 -0.14335937 3.16070312 -1 3 C-0.67 2.01 -0.34 1.02 0 0 Z " fill="#083BC0" transform="translate(205,54)"/>
<path d="M0 0 C1.32 0 2.64 0 4 0 C4 2.64 4 5.28 4 8 C2.66666667 8 1.33333333 8 0 8 C0 5.36 0 2.72 0 0 Z " fill="#D094EF" transform="translate(8,96)"/>
<path d="M0 0 C0.33 0.99 0.66 1.98 1 3 C3.42383077 4.16953416 3.42383077 4.16953416 6 5 C6.66 5.33 7.32 5.66 8 6 C7.67 6.99 7.34 7.98 7 9 C6.34 9 5.68 9 5 9 C3 7 3 7 2 4 C0.35 4.33 -1.3 4.66 -3 5 C-2.67 4.01 -2.34 3.02 -2 2 C-1.34 2.33 -0.68 2.66 0 3 C0 2.01 0 1.02 0 0 Z " fill="#F5C00C" transform="translate(193,91)"/>
<path d="M0 0 C3.63 0 7.26 0 11 0 C11 1.32 11 2.64 11 4 C7.37 3.67 3.74 3.34 0 3 C0 2.67 0 2.34 0 2 C2.64 2 5.28 2 8 2 C5.36 1.67 2.72 1.34 0 1 C0 0.67 0 0.34 0 0 Z " fill="#9B8AF6" transform="translate(165,44)"/>
<path d="M0 0 C0 0.66 0 1.32 0 2 C-0.66 2 -1.32 2 -2 2 C-2 2.66 -2 3.32 -2 4 C-2.66 4 -3.32 4 -4 4 C-4.66 5.32 -5.32 6.64 -6 8 C-6.66 8 -7.32 8 -8 8 C-7.63487253 5.2980567 -7.30130763 3.41609148 -5.6875 1.1875 C-4 0 -4 0 0 0 Z " fill="#FCDF40" transform="translate(186,100)"/>
<path d="M0 0 C2.51570636 0.97382182 3.73944098 1.46151135 4.9375 3.9375 C5 6 5 6 3.5625 7.75 C2.7890625 8.36875 2.7890625 8.36875 2 9 C0.14223235 5.86501708 -0.20140476 3.62528568 0 0 Z " fill="#F8C811" transform="translate(199,69)"/>
<path d="M0 0 C4.29 0 8.58 0 13 0 C13 0.66 13 1.32 13 2 C14.32 2.33 15.64 2.66 17 3 C11.08739655 3.25706972 5.76081841 2.2982126 0 1 C0 0.67 0 0.34 0 0 Z " fill="#11348C" transform="translate(147,48)"/>
<path d="M0 0 C0.66 0 1.32 0 2 0 C1.67 2.97 1.34 5.94 1 9 C2.32 9.66 3.64 10.32 5 11 C5.33 11.99 5.66 12.98 6 14 C5.01 13.67 4.02 13.34 3 13 C3 12.34 3 11.68 3 11 C2.01 10.67 1.02 10.34 0 10 C-1.125 2.25 -1.125 2.25 0 0 Z " fill="#9499FD" transform="translate(90,18)"/>
<path d="M0 0 C0.99 0.495 0.99 0.495 2 1 C2 1.66 2 2.32 2 3 C2.99 3.33 3.98 3.66 5 4 C4.01 5.485 4.01 5.485 3 7 C2.54860541 9.0492094 2.54860541 9.0492094 2.375 11.1875 C2.25125 12.445625 2.1275 13.70375 2 15 C1.67 15 1.34 15 1 15 C0.67 10.05 0.34 5.1 0 0 Z " fill="#FEAED7" transform="translate(236,117)"/>
<path d="M0 0 C1.32 0.33 2.64 0.66 4 1 C5.08203125 2.92578125 5.08203125 2.92578125 5.8125 5.3125 C6.06644531 6.09238281 6.32039062 6.87226562 6.58203125 7.67578125 C7 10 7 10 6 14 C4.02 9.38 2.04 4.76 0 0 Z " fill="#6263B9" transform="translate(214,76)"/>
<path d="M0 0 C0.99 0.495 0.99 0.495 2 1 C2.484375 3.43359375 2.484375 3.43359375 2.75 6.4375 C2.84796875 7.42621094 2.9459375 8.41492188 3.046875 9.43359375 C3 12 3 12 1 14 C-0.38226016 11.23547967 -0.09525387 8.9538637 -0.0625 5.875 C-0.05347656 4.77929688 -0.04445312 3.68359375 -0.03515625 2.5546875 C-0.02355469 1.71164063 -0.01195312 0.86859375 0 0 Z " fill="#F8CA09" transform="translate(185,63)"/>
<path d="M0 0 C0.33 0.99 0.66 1.98 1 3 C1.45375 2.505 1.9075 2.01 2.375 1.5 C4 0 4 0 6 0 C5.8125 1.8125 5.8125 1.8125 5 4 C0.82142857 7 0.82142857 7 -2 7 C-2 6.34 -2 5.68 -2 5 C-1.34 5 -0.68 5 0 5 C-0.33 4.01 -0.66 3.02 -1 2 C-0.67 1.34 -0.34 0.68 0 0 Z " fill="#9B92FA" transform="translate(19,22)"/>
<path d="M0 0 C1.4540625 0.0309375 1.4540625 0.0309375 2.9375 0.0625 C2.6075 1.0525 2.2775 2.0425 1.9375 3.0625 C1.9375 2.4025 1.9375 1.7425 1.9375 1.0625 C0.9475 1.5575 0.9475 1.5575 -0.0625 2.0625 C-0.0625 3.7125 -0.0625 5.3625 -0.0625 7.0625 C-1.3825 6.4025 -2.7025 5.7425 -4.0625 5.0625 C-4.3925 5.7225 -4.7225 6.3825 -5.0625 7.0625 C-4.02286585 0.0820993 -4.02286585 0.0820993 0 0 Z " fill="#8580F3" transform="translate(29.0625,7.9375)"/>
<path d="M0 0 C0.66 0 1.32 0 2 0 C1.05405327 5.10811235 -1.86385799 8.96781741 -5 13 C-5.66 12.67 -6.32 12.34 -7 12 C-6.57847656 11.30132812 -6.15695313 10.60265625 -5.72265625 9.8828125 C-5.17480469 8.97273438 -4.62695312 8.06265625 -4.0625 7.125 C-3.51722656 6.22007813 -2.97195312 5.31515625 -2.41015625 4.3828125 C-1.56101983 2.94798364 -0.74562276 1.49124552 0 0 Z " fill="#5A62B4" transform="translate(216,112)"/>
<path d="M0 0 C0.33 0.66 0.66 1.32 1 2 C0.01789629 4.0088485 -0.98440599 6.00787329 -2 8 C-2.69907414 10.73572585 -2.69907414 10.73572585 -3 13 C-3.66 12.67 -4.32 12.34 -5 12 C-4.45119974 8.06693147 -3.74199701 4.58646443 -2 1 C-1.34 0.67 -0.68 0.34 0 0 Z " fill="#F1D6C5" transform="translate(152,66)"/>
<path d="M0 0 C1 3 1 3 0.0625 5.1875 C-0.4634375 6.0846875 -0.4634375 6.0846875 -1 7 C-1 5.35 -1 3.7 -1 2 C-4.16666667 3.83333333 -4.16666667 3.83333333 -6 7 C-6.33 5.02 -6.66 3.04 -7 1 C-4.53721199 -0.231394 -2.7204945 -0.07159196 0 0 Z " fill="#F8C60E" transform="translate(180,61)"/>
<path d="M0 0 C1.6045556 0.14148989 3.20863767 0.28835686 4.8125 0.4375 C5.70582031 0.51871094 6.59914062 0.59992187 7.51953125 0.68359375 C10 1 10 1 13 2 C13 2.66 13 3.32 13 4 C11.39482903 3.91266424 9.79078338 3.80447776 8.1875 3.6875 C6.84751953 3.60048828 6.84751953 3.60048828 5.48046875 3.51171875 C2.69396 2.93686419 1.75864246 2.1793144 0 0 Z " fill="#B38BF4" transform="translate(202,51)"/>
<path d="M0 0 C0 0.99 0 1.98 0 3 C-0.99 2.67 -1.98 2.34 -3 2 C-3.99 3.485 -3.99 3.485 -5 5 C-5.99 5.33 -6.98 5.66 -8 6 C-8 4.35 -8 2.7 -8 1 C-5.29120665 -0.35439668 -2.99066732 -0.06501451 0 0 Z " fill="#8B82F4" transform="translate(24,16)"/>
<path d="M0 0 C0.66 0 1.32 0 2 0 C2 1.98 2 3.96 2 6 C2.66 6 3.32 6 4 6 C4 7.32 4 8.64 4 10 C2.68 9.34 1.36 8.68 0 8 C0 5.36 0 2.72 0 0 Z " fill="#0944C2" transform="translate(234,152)"/>
<path d="M0 0 C0.66 0 1.32 0 2 0 C2.07654536 4.51617599 2.10228696 8.59085217 1 13 C0.67 13 0.34 13 0 13 C-0.19658808 11.58456585 -0.38187546 10.16755969 -0.5625 8.75 C-0.66691406 7.96109375 -0.77132812 7.1721875 -0.87890625 6.359375 C-1.00027349 3.99467126 -0.69633257 2.2488963 0 0 Z " fill="#DAA6D0" transform="translate(235,120)"/>
<path d="M0 0 C3.66666667 3.66666667 7.33333333 7.33333333 11 11 C10.67 11.66 10.34 12.32 10 13 C8.32438946 11.40517782 6.65974066 9.79883156 5 8.1875 C3.6078125 6.84751953 3.6078125 6.84751953 2.1875 5.48046875 C0 3 0 3 0 0 Z " fill="#F2290C" transform="translate(161,81)"/>
<path d="M0 0 C0.33 0 0.66 0 1 0 C1.33 3.96 1.66 7.92 2 12 C1.01 12.33 0.02 12.66 -1 13 C-1.02708567 11.39592672 -1.04643483 9.7917215 -1.0625 8.1875 C-1.07410156 7.29417969 -1.08570312 6.40085937 -1.09765625 5.48046875 C-1 3 -1 3 0 0 Z " fill="#DDA5F8" transform="translate(125,84)"/>
<path d="M0 0 C1.65 1.65 3.3 3.3 5 5 C4.34 5 3.68 5 3 5 C3 5.66 3 6.32 3 7 C2.34 7 1.68 7 1 7 C1 6.34 1 5.68 1 5 C-0.65 5 -2.3 5 -4 5 C-3.67 4.01 -3.34 3.02 -3 2 C-2.01 2 -1.02 2 0 2 C0 1.34 0 0.68 0 0 Z " fill="#9D98FA" transform="translate(24,15)"/>
<path d="M0 0 C0.928125 0.515625 1.85625 1.03125 2.8125 1.5625 C2.8125 1.8925 2.8125 2.2225 2.8125 2.5625 C-0.4875 2.5625 -3.7875 2.5625 -7.1875 2.5625 C-6.8575 1.5725 -6.5275 0.5825 -6.1875 -0.4375 C-3.1875 -1.4375 -3.1875 -1.4375 0 0 Z " fill="#8B7EF5" transform="translate(259.1875,9.4375)"/>
<path d="M0 0 C4.875 2.75 4.875 2.75 6 5 C5.01 5 4.02 5 3 5 C2.67 5.66 2.34 6.32 2 7 C2 5.68 2 4.36 2 3 C1.34 3 0.68 3 0 3 C0 4.98 0 6.96 0 9 C-0.33 9 -0.66 9 -1 9 C-1.125 2.25 -1.125 2.25 0 0 Z " fill="#FAB310" transform="translate(155,79)"/>
<path d="M0 0 C0.66 0 1.32 0 2 0 C2 4.29 2 8.58 2 13 C-0.21279137 8.57441726 -0.60155317 5.86105133 -1 1 C-0.67 0.67 -0.34 0.34 0 0 Z " fill="#F8DD01" transform="translate(187,63)"/>
<path d="M0 0 C0.598125 0.226875 1.19625 0.45375 1.8125 0.6875 C1.1525 0.6875 0.4925 0.6875 -0.1875 0.6875 C-0.435 1.30625 -0.6825 1.925 -0.9375 2.5625 C-2.39378639 5.03818687 -3.56562506 5.63875002 -6.1875 6.6875 C-5.78066505 4.32785727 -5.28935661 2.82815912 -3.875 0.875 C-2.1875 -0.3125 -2.1875 -0.3125 0 0 Z " fill="#B0A1FD" transform="translate(262.1875,23.3125)"/>
<path d="M0 0 C0 0.33 0 0.66 0 1 C-5.68697571 1.91397824 -10.31302429 1.91397824 -16 1 C-16 0.67 -16 0.34 -16 0 C-10.31302429 -0.91397824 -5.68697571 -0.91397824 0 0 Z " fill="#0E359D" transform="translate(176,154)"/>
<path d="M0 0 C0.66 0.33 1.32 0.66 2 1 C1.814375 2.0725 1.62875 3.145 1.4375 4.25 C1.0695432 7.40391546 0.95534657 9.09818492 2 12 C-0.33936818 9.87330165 -1.80653848 7.93775144 -3 5 C-3 4.01 -3 3.02 -3 2 C-2.01 2 -1.02 2 0 2 C0 1.34 0 0.68 0 0 Z " fill="#F8A917" transform="translate(177,84)"/>
<path d="M0 0 C2.42945561 3.64418341 2.0828781 4.92923364 1.625 9.1875 C1.51414063 10.27417969 1.40328125 11.36085937 1.2890625 12.48046875 C1.19367188 13.31191406 1.09828125 14.14335937 1 15 C0.67 15 0.34 15 0 15 C-0.19390729 12.68802845 -0.37996367 10.3753971 -0.5625 8.0625 C-0.71912109 6.13083984 -0.71912109 6.13083984 -0.87890625 4.16015625 C-0.91886719 3.11730469 -0.95882812 2.07445312 -1 1 C-0.67 0.67 -0.34 0.34 0 0 Z " fill="#E0A5C5" transform="translate(241,161)"/>
<path d="M0 0 C5.94 0.99 5.94 0.99 12 2 C12 2.33 12 2.66 12 3 C6.06 3.495 6.06 3.495 0 4 C0 2.68 0 1.36 0 0 Z " fill="#214ACA" transform="translate(136,152)"/>
<path d="M0 0 C0.66 0.33 1.32 0.66 2 1 C1.67 1.66 1.34 2.32 1 3 C1.66 3.33 2.32 3.66 3 4 C2.67 4.66 2.34 5.32 2 6 C2.99 6 3.98 6 5 6 C5 6.66 5 7.32 5 8 C2.03 7.505 2.03 7.505 -1 7 C-0.67 4.69 -0.34 2.38 0 0 Z " fill="#DA9AE6" transform="translate(254,96)"/>
<path d="M0 0 C0.33 1.98 0.66 3.96 1 6 C-0.65 5.67 -2.3 5.34 -4 5 C-4.33 4.01 -4.66 3.02 -5 2 C-1.125 0 -1.125 0 0 0 Z " fill="#F9C2E9" transform="translate(104,155)"/>
<path d="M0 0 C0.33 0 0.66 0 1 0 C0.96519531 1.04800781 0.96519531 1.04800781 0.9296875 2.1171875 C0.91164062 3.02726562 0.89359375 3.93734375 0.875 4.875 C0.85179687 5.77992187 0.82859375 6.68484375 0.8046875 7.6171875 C0.75675164 10.18806994 0.75675164 10.18806994 3 12 C1.68 12 0.36 12 -1 12 C-1.33 10.02 -1.66 8.04 -2 6 C-1.34 6 -0.68 6 0 6 C0 4.02 0 2.04 0 0 Z " fill="#F51B18" transform="translate(165,104)"/>
<path d="M0 0 C0.33 0 0.66 0 1 0 C1.33 3.3 1.66 6.6 2 10 C1.01 10.66 0.02 11.32 -1 12 C-2.36884358 7.48281619 -1.47075246 4.41225737 0 0 Z " fill="#193CB4" transform="translate(228,84)"/>
<path d="M0 0 C0.66 0.66 1.32 1.32 2 2 C1.67 2.99 1.34 3.98 1 5 C-1.97 4.01 -4.94 3.02 -8 2 C-8 1.67 -8 1.34 -8 1 C-1.9453125 0.0234375 -1.9453125 0.0234375 0 0 Z " fill="#0A2E99" transform="translate(224,58)"/>
<path d="M0 0 C3.63 0.33 7.26 0.66 11 1 C11 1.66 11 2.32 11 3 C8.36 3 5.72 3 3 3 C3 2.34 3 1.68 3 1 C2.01 0.67 1.02 0.34 0 0 Z " fill="#0F40CF" transform="translate(165,47)"/>
<path d="M0 0 C0.33 0.66 0.66 1.32 1 2 C-1.97 2 -4.94 2 -8 2 C-8 1.34 -8 0.68 -8 0 C-5.09660535 -1.45169732 -3.09125158 -0.72348441 0 0 Z " fill="#ECA9DD" transform="translate(268,181)"/>
<path d="M0 0 C0.66 0 1.32 0 2 0 C2 1.98 2 3.96 2 6 C0.68 6 -0.64 6 -2 6 C-2 5.01 -2 4.02 -2 3 C-1.34 3 -0.68 3 0 3 C0 2.01 0 1.02 0 0 Z " fill="#EBA7E7" transform="translate(246,105)"/>
<path d="M0 0 C2 1.3125 2 1.3125 4 3 C4 3.99 4 4.98 4 6 C4.66 6.33 5.32 6.66 6 7 C4.68 7 3.36 7 2 7 C0 4 0 4 0 0 Z " fill="#EDBEEE" transform="translate(89,176)"/>
<path d="M0 0 C2.5 1.3125 2.5 1.3125 5 3 C5 3.99 5 4.98 5 6 C3.35 6 1.7 6 0 6 C0 4.02 0 2.04 0 0 Z " fill="#DB9EED" transform="translate(16,106)"/>
<path d="M0 0 C1.65 0.99 3.3 1.98 5 3 C5 2.34 5 1.68 5 1 C5.66 1 6.32 1 7 1 C6.34 2.32 5.68 3.64 5 5 C3.68 5 2.36 5 1 5 C0.67 3.35 0.34 1.7 0 0 Z " fill="#FEDE44" transform="translate(173,97)"/>
<path d="M0 0 C0.66 0 1.32 0 2 0 C0.125 5.75 0.125 5.75 -1 8 C-1.99 7.67 -2.98 7.34 -4 7 C-3 4 -3 4 -2 2 C-1.34 2 -0.68 2 0 2 C0 1.34 0 0.68 0 0 Z " fill="#F3DF03" transform="translate(202,89)"/>
<path d="M0 0 C1.98 0.495 1.98 0.495 4 1 C3.67 2.32 3.34 3.64 3 5 C1.68 4.67 0.36 4.34 -1 4 C-0.67 2.68 -0.34 1.36 0 0 Z " fill="#F8DA05" transform="translate(174,81)"/>
<path d="M0 0 C0.66 0.33 1.32 0.66 2 1 C1.34 3.64 0.68 6.28 0 9 C-0.66 9 -1.32 9 -2 9 C-2.25 3.375 -2.25 3.375 0 0 Z " fill="#555CBB" transform="translate(144,71)"/>
<path d="M0 0 C2.64 0.33 5.28 0.66 8 1 C8 1.66 8 2.32 8 3 C5.36 3 2.72 3 0 3 C0 2.01 0 1.02 0 0 Z " fill="#1F2D90" transform="translate(216,63)"/>
<path d="M0 0 C0.99 0.33 1.98 0.66 3 1 C2.21625 1.4125 1.4325 1.825 0.625 2.25 C-2.05891656 4.0392777 -2.88098949 5.04988139 -4 8 C-4.66 7.67 -5.32 7.34 -6 7 C-4.61990379 3.66476748 -3.15049348 1.81392049 0 0 Z " fill="#9091F6" transform="translate(109,23)"/>
<path d="M0 0 C1.32 0 2.64 0 4 0 C3.25 1.9375 3.25 1.9375 2 4 C-0.125 4.75 -0.125 4.75 -2 5 C-1.34 3.35 -0.68 1.7 0 0 Z " fill="#FCC0E1" transform="translate(260,177)"/>
<path d="M0 0 C2 2 2 2 2 5 C0 6.6875 0 6.6875 -2 8 C-2.125 5.125 -2.125 5.125 -2 2 C-1.34 1.34 -0.68 0.68 0 0 Z " fill="#1141B0" transform="translate(177,173)"/>
<path d="M0 0 C4.69360269 2.17508418 4.69360269 2.17508418 5.8125 5.1875 C5.874375 5.785625 5.93625 6.38375 6 7 C5.34 6.67 4.68 6.34 4 6 C4 5.34 4 4.68 4 4 C3.01 4.33 2.02 4.66 1 5 C0.01 3.68 -0.98 2.36 -2 1 C-1.34 0.67 -0.68 0.34 0 0 Z " fill="#F4DE14" transform="translate(171,88)"/>
<path d="M0 0 C0.99 0 1.98 0 3 0 C2.67 2.64 2.34 5.28 2 8 C1.34 7.67 0.68 7.34 0 7 C-1.26229508 2.52459016 -1.26229508 2.52459016 0 0 Z " fill="#F7DF07" transform="translate(168,69)"/>
<path d="M0 0 C3.3 0.33 6.6 0.66 10 1 C6.23312136 2.88343932 4.97041037 3.22057835 1 3 C0.67 2.01 0.34 1.02 0 0 Z " fill="#2B4BD8" transform="translate(210,54)"/>
<path d="M0 0 C4.51720311 -0.36625971 4.51720311 -0.36625971 6.8125 1.375 C8 3 8 3 8 5 C7.4225 4.690625 6.845 4.38125 6.25 4.0625 C4.15705816 3.07416636 2.25464725 2.4831387 0 2 C0 1.34 0 0.68 0 0 Z " fill="#224BCB" transform="translate(152,154)"/>
<path d="M0 0 C2.4375 1.1875 2.4375 1.1875 3.4375 3.1875 C-2.3125 2.4375 -2.3125 2.4375 -4.5625 0.1875 C-2.5625 -0.8125 -2.5625 -0.8125 0 0 Z " fill="#EE2419" transform="translate(186.5625,116.8125)"/>
<path d="M0 0 C2 1.375 2 1.375 4 3 C4 3.66 4 4.32 4 5 C3.01 5 2.02 5 1 5 C1 4.34 1 3.68 1 3 C0.01 3.33 -0.98 3.66 -2 4 C-2 3.01 -2 2.02 -2 1 C-1.34 0.67 -0.68 0.34 0 0 Z " fill="#F9CF0D" transform="translate(163,86)"/>
<path d="M0 0 C2.64 0.33 5.28 0.66 8 1 C8 1.66 8 2.32 8 3 C6.02 3 4.04 3 2 3 C2 2.34 2 1.68 2 1 C1.34 0.67 0.68 0.34 0 0 Z " fill="#2543B3" transform="translate(200,58)"/>
<path d="M0 0 C0.99 0.33 1.98 0.66 3 1 C2.34 2.32 1.68 3.64 1 5 C0.01 4.67 -0.98 4.34 -2 4 C-1.34 2.68 -0.68 1.36 0 0 Z " fill="#1C44B9" transform="translate(142,59)"/>
</svg>
