<svg width="200" height="80" viewBox="0 0 200 80" xmlns="http://www.w3.org/2000/svg">
  <defs>
    <linearGradient id="flameGradient1" x1="0%" y1="0%" x2="100%" y2="0%">
      <stop offset="0%" style="stop-color:#E31E24;stop-opacity:1" />
      <stop offset="100%" style="stop-color:#FF6B35;stop-opacity:1" />
    </linearGradient>
    <linearGradient id="flameGradient2" x1="0%" y1="0%" x2="100%" y2="0%">
      <stop offset="0%" style="stop-color:#87CEEB;stop-opacity:1" />
      <stop offset="100%" style="stop-color:#4169E1;stop-opacity:1" />
    </linearGradient>
  </defs>
  
  <!-- Blue border -->
  <rect x="10" y="10" width="180" height="60" rx="8" fill="none" stroke="#1E3A8A" stroke-width="3"/>
  
  <!-- Flame shapes above text -->
  <path d="M 60 25 Q 70 15 80 25 Q 85 20 90 25 Q 95 15 100 25 Q 105 15 110 25 Q 115 20 120 25 Q 130 15 140 25" 
        fill="url(#flameGradient1)" stroke="#E31E24" stroke-width="1"/>
  
  <path d="M 65 30 Q 75 20 85 30 Q 90 25 95 30 Q 100 20 105 30 Q 110 25 115 30 Q 125 20 135 30" 
        fill="url(#flameGradient2)" stroke="#4169E1" stroke-width="1"/>
  
  <!-- Liberty text -->
  <text x="70" y="55" font-family="Arial, sans-serif" font-size="24" font-weight="bold" fill="#E31E24">Liberty</text>
</svg>
