<?xml version="1.0" encoding="UTF-8"?>
<svg version="1.1" xmlns="http://www.w3.org/2000/svg" width="224" height="225">
<path d="M0 0 C73.92 0 147.84 0 224 0 C224 74.25 224 148.5 224 225 C150.08 225 76.16 225 0 225 C0 150.75 0 76.5 0 0 Z " fill="#0D7FBC" transform="translate(0,0)"/>
<path d="M0 0 C1.134375 0.020625 2.26875 0.04125 3.4375 0.0625 C3.9325 3.5275 3.9325 3.5275 4.4375 7.0625 C5.7575 7.0625 7.0775 7.0625 8.4375 7.0625 C8.4375 5.0825 8.4375 3.1025 8.4375 1.0625 C11.4075 1.0625 14.3775 1.0625 17.4375 1.0625 C17.1075 3.0425 16.7775 5.0225 16.4375 7.0625 C17.4275 7.0625 18.4175 7.0625 19.4375 7.0625 C19.4375 9.0425 19.4375 11.0225 19.4375 13.0625 C17.7875 13.0625 16.1375 13.0625 14.4375 13.0625 C14.1075 17.0225 13.7775 20.9825 13.4375 25.0625 C14.4275 25.0625 15.4175 25.0625 16.4375 25.0625 C16.1075 27.3725 15.7775 29.6825 15.4375 32.0625 C13.83342672 32.08958567 12.2292215 32.10893483 10.625 32.125 C9.28501953 32.14240234 9.28501953 32.14240234 7.91796875 32.16015625 C5.4375 32.0625 5.4375 32.0625 2.4375 31.0625 C2.4375 31.7225 2.4375 32.3825 2.4375 33.0625 C-2.89150731 34.35438056 -8.27944183 34.75307861 -13.5625 33.0625 C-13.376875 33.866875 -13.19125 34.67125 -13 35.5 C-12.46639972 39.84503084 -12.9399296 43.75239724 -13.5625 48.0625 C-24.5625 48.0625 -35.5625 48.0625 -46.5625 48.0625 C-47.2225 46.0825 -47.8825 44.1025 -48.5625 42.0625 C-48.8925 44.0425 -49.2225 46.0225 -49.5625 48.0625 C-50.2225 48.0625 -50.8825 48.0625 -51.5625 48.0625 C-51.5625 47.4025 -51.5625 46.7425 -51.5625 46.0625 C-52.8825 46.0625 -54.2025 46.0625 -55.5625 46.0625 C-55.5625 46.7225 -55.5625 47.3825 -55.5625 48.0625 C-56.2225 48.0625 -56.8825 48.0625 -57.5625 48.0625 C-57.8925 45.4225 -58.2225 42.7825 -58.5625 40.0625 C-57.9025 40.0625 -57.2425 40.0625 -56.5625 40.0625 C-56.2325 38.7425 -55.9025 37.4225 -55.5625 36.0625 C-53.2525 36.0625 -50.9425 36.0625 -48.5625 36.0625 C-49.15546875 35.79308594 -49.7484375 35.52367187 -50.359375 35.24609375 C-54.0710326 33.25206493 -56.50579609 30.74326784 -58.5625 27.0625 C-60.29757877 18.60919622 -57.43679158 9.32946465 -55.5625 1.0625 C-52.5925 1.0625 -49.6225 1.0625 -46.5625 1.0625 C-46.69527344 1.71734375 -46.82804687 2.3721875 -46.96484375 3.046875 C-48.31775465 10.03856051 -49.09142482 16.95918212 -49.5625 24.0625 C-47.9125 23.7325 -46.2625 23.4025 -44.5625 23.0625 C-43.91562193 20.33357717 -43.26996282 17.60437553 -42.625 14.875 C-42.44259766 14.10607422 -42.26019531 13.33714844 -42.07226562 12.54492188 C-41.17129887 8.72809908 -40.29612003 4.91593574 -39.5625 1.0625 C-36.5925 1.0625 -33.6225 1.0625 -30.5625 1.0625 C-33.6977459 19.4682377 -33.6977459 19.4682377 -36.5625 28.0625 C-35.5725 27.7325 -34.5825 27.4025 -33.5625 27.0625 C-33.35753906 26.00289062 -33.15257813 24.94328125 -32.94140625 23.8515625 C-32.66942334 22.46351178 -32.39727956 21.07549256 -32.125 19.6875 C-31.99029297 18.98882812 -31.85558594 18.29015625 -31.71679688 17.5703125 C-30.67578125 12.2890625 -30.67578125 12.2890625 -29.5625 10.0625 C-28.92441406 10.07410156 -28.28632812 10.08570312 -27.62890625 10.09765625 C-26.80261719 10.10667969 -25.97632813 10.11570312 -25.125 10.125 C-23.88943359 10.14240234 -23.88943359 10.14240234 -22.62890625 10.16015625 C-20.57086062 10.29517348 -20.57086062 10.29517348 -19.5625 9.0625 C-13.39551344 8.60568618 -13.39551344 8.60568618 -10.625 10.125 C-7.72305521 15.41678167 -10.13613612 21.62448772 -11.5625 27.0625 C-11.5625 28.3825 -11.5625 29.7025 -11.5625 31.0625 C-10.9025 31.3925 -10.2425 31.7225 -9.5625 32.0625 C-9.459375 31.051875 -9.35625 30.04125 -9.25 29 C-8.4249082 22.29006227 -6.93219437 15.67838222 -5.5625 9.0625 C-2.9225 9.0625 -0.2825 9.0625 2.4375 9.0625 C2.4375 8.7325 2.4375 8.4025 2.4375 8.0625 C0.1275 7.7325 -2.1825 7.4025 -4.5625 7.0625 C-4.60504356 5.06295254 -4.60330783 3.06208364 -4.5625 1.0625 C-3.5625 0.0625 -3.5625 0.0625 0 0 Z " fill="#1180BB" transform="translate(125.5625,103.9375)"/>
<path d="M0 0 C2.64 0 5.28 0 8 0 C7.35901503 6.57677289 6.32407366 12.96585011 5 19.4375 C4.82210937 20.33404297 4.64421875 21.23058594 4.4609375 22.15429688 C3.13149889 28.73700221 3.13149889 28.73700221 2 31 C1.43152344 30.98839844 0.86304688 30.97679687 0.27734375 30.96484375 C-4.60670484 30.90776806 -9.18503965 31.18043228 -14 32 C-14 32.66 -14 33.32 -14 34 C-12.35 34 -10.7 34 -9 34 C-9 34.66 -9 35.32 -9 36 C-8.01 36.495 -8.01 36.495 -7 37 C-7 37.66 -7 38.32 -7 39 C-5.35 39.33 -3.7 39.66 -2 40 C-2 41.32 -2 42.64 -2 44 C-3.32 44 -4.64 44 -6 44 C-6.33 43.01 -6.66 42.02 -7 41 C-7 42.32 -7 43.64 -7 45 C-5.68 45 -4.36 45 -3 45 C-3 45.66 -3 46.32 -3 47 C-5.375 47.125 -5.375 47.125 -8 47 C-8.66 46.34 -9.32 45.68 -10 45 C-10.99 45.66 -11.98 46.32 -13 47 C-13 45.02 -13 43.04 -13 41 C-13.99 41.495 -13.99 41.495 -15 42 C-15.65555119 44.52733235 -15.65555119 44.52733235 -16 47 C-16.66 47 -17.32 47 -18 47 C-18.66 46.01 -19.32 45.02 -20 44 C-20.66 44.99 -21.32 45.98 -22 47 C-22.66 47 -23.32 47 -24 47 C-24.33 46.34 -24.66 45.68 -25 45 C-25.33 45.66 -25.66 46.32 -26 47 C-26.66 47 -27.32 47 -28 47 C-28.66 45.35 -29.32 43.7 -30 42 C-30.556875 42.825 -31.11375 43.65 -31.6875 44.5 C-34 47 -34 47 -36.625 47.4375 C-39 47 -39 47 -41 45 C-41.375 42.625 -41.375 42.625 -41 40 C-39.1875 37.6875 -39.1875 37.6875 -37 36 C-36.01 36 -35.02 36 -34 36 C-34 35.34 -34 34.68 -34 34 C-32.515 33.505 -32.515 33.505 -31 33 C-31.62648437 32.81824219 -32.25296875 32.63648438 -32.8984375 32.44921875 C-33.71570313 32.19785156 -34.53296875 31.94648438 -35.375 31.6875 C-36.18710938 31.44386719 -36.99921875 31.20023438 -37.8359375 30.94921875 C-40 30 -40 30 -42 27 C-42.73176768 22.05631368 -42.52245588 18.06426199 -40.3125 13.5625 C-36.84769324 9.72311954 -34.19079485 7.86497113 -29 7.5625 C-25.9320417 7.68984921 -24.892211 8.06326746 -22.125 9.6875 C-19.9397329 12.06558478 -18.93765111 13.93132365 -18 17 C-17.401875 16.030625 -16.80375 15.06125 -16.1875 14.0625 C-14 11 -14 11 -11 10 C-11 9.34 -11 8.68 -11 8 C-4.25 7.875 -4.25 7.875 -2 9 C-1.34 6.03 -0.68 3.06 0 0 Z " fill="#1382BB" transform="translate(186,105)"/>
<path d="M0 0 C1.39136534 0.04232649 2.78256436 0.09034885 4.17358398 0.14282227 C5.27016579 0.17823875 5.27016579 0.17823875 6.38890076 0.21437073 C8.7326823 0.29117936 11.07614756 0.37512882 13.41967773 0.45922852 C15.00494852 0.51243203 16.59023491 0.56517253 18.17553711 0.61743164 C22.06961905 0.74681756 25.96343184 0.88260983 29.85717773 1.02172852 C29.85717773 2.01172852 29.85717773 3.00172852 29.85717773 4.02172852 C29.19717773 4.02172852 28.53717773 4.02172852 27.85717773 4.02172852 C27.19717773 6.00172852 26.53717773 7.98172852 25.85717773 10.02172852 C26.18717773 9.36172852 26.51717773 8.70172852 26.85717773 8.02172852 C27.18717773 8.02172852 27.51717773 8.02172852 27.85717773 8.02172852 C27.82237305 8.95114258 27.78756836 9.88055664 27.75170898 10.83813477 C27.51844281 20.34697975 27.51844281 20.34697975 30.85717773 29.02172852 C31.35217773 30.01172852 31.35217773 30.01172852 31.85717773 31.02172852 C30.20717773 31.02172852 28.55717773 31.02172852 26.85717773 31.02172852 C26.25984954 33.7843714 25.85717773 36.18205621 25.85717773 39.02172852 C25.54629406 40.69272828 25.21637441 42.36044388 24.85717773 44.02172852 C23.20717773 43.69172852 21.55717773 43.36172852 19.85717773 43.02172852 C20.51717773 41.37172852 21.17717773 39.72172852 21.85717773 38.02172852 C21.19717773 38.02172852 20.53717773 38.02172852 19.85717773 38.02172852 C19.52717773 39.01172852 19.19717773 40.00172852 18.85717773 41.02172852 C18.52717773 40.36172852 18.19717773 39.70172852 17.85717773 39.02172852 C16.53717773 39.02172852 15.21717773 39.02172852 13.85717773 39.02172852 C13.85717773 40.34172852 13.85717773 41.66172852 13.85717773 43.02172852 C15.17717773 43.35172852 16.49717773 43.68172852 17.85717773 44.02172852 C16.86717773 45.34172852 15.87717773 46.66172852 14.85717773 48.02172852 C14.19717773 47.69172852 13.53717773 47.36172852 12.85717773 47.02172852 C12.22436523 44.95532227 12.22436523 44.95532227 11.73217773 42.45922852 C11.56459961 41.63293945 11.39702148 40.80665039 11.22436523 39.95532227 C11.10319336 39.31723633 10.98202148 38.67915039 10.85717773 38.02172852 C9.20717773 38.02172852 7.55717773 38.02172852 5.85717773 38.02172852 C5.36217773 36.53672852 5.36217773 36.53672852 4.85717773 35.02172852 C6.83717773 34.52672852 6.83717773 34.52672852 8.85717773 34.02172852 C6.87717773 34.02172852 4.89717773 34.02172852 2.85717773 34.02172852 C3.18717773 35.34172852 3.51717773 36.66172852 3.85717773 38.02172852 C2.46499023 38.17641602 2.46499023 38.17641602 1.04467773 38.33422852 C-2.17536585 39.02874772 -3.16862092 39.4991379 -5.14282227 42.02172852 C-4.97782227 41.44422852 -4.81282227 40.86672852 -4.64282227 40.27172852 C-3.99820196 37.75508483 -3.99820196 37.75508483 -4.14282227 34.02172852 C-2.64282227 32.27172852 -2.64282227 32.27172852 -1.14282227 31.02172852 C-2.79282227 31.02172852 -4.44282227 31.02172852 -6.14282227 31.02172852 C-6.14282227 30.36172852 -6.14282227 29.70172852 -6.14282227 29.02172852 C-7.46282227 29.35172852 -8.78282227 29.68172852 -10.14282227 30.02172852 C-9.54345862 23.31975319 -8.32307649 17.03151345 -6.64282227 10.52172852 C-6.41723633 9.61680664 -6.19165039 8.71188477 -5.95922852 7.77954102 C-3.9921445 0.02760047 -3.9921445 0.02760047 0 0 Z " fill="#0E7EBA" transform="translate(38.142822265625,103.978271484375)"/>
<path d="M0 0 C2.64 0 5.28 0 8 0 C7.35901503 6.57677289 6.32407366 12.96585011 5 19.4375 C4.82210937 20.33404297 4.64421875 21.23058594 4.4609375 22.15429688 C3.13149889 28.73700221 3.13149889 28.73700221 2 31 C1.43152344 30.98839844 0.86304688 30.97679687 0.27734375 30.96484375 C-3.59231126 30.91962241 -6.99075468 30.99818125 -10.8125 31.75 C-14 32 -14 32 -16.4375 30.75 C-18.95009701 26.32782927 -18.72352828 21.95724324 -18 17 C-16.95723661 14.37528824 -15.95939344 13.12734145 -14 11 C-13.01 10.67 -12.02 10.34 -11 10 C-11 9.34 -11 8.68 -11 8 C-4.25 7.875 -4.25 7.875 -2 9 C-1.34 6.03 -0.68 3.06 0 0 Z " fill="#EBF6F6" transform="translate(186,105)"/>
<path d="M0 0 C2.97 0 5.94 0 9 0 C8.86722656 0.65484375 8.73445313 1.3096875 8.59765625 1.984375 C7.24474535 8.97606051 6.47107518 15.89668212 6 23 C7.65 22.67 9.3 22.34 11 22 C11.64687807 19.27107717 12.29253718 16.54187553 12.9375 13.8125 C13.11990234 13.04357422 13.30230469 12.27464844 13.49023438 11.48242188 C14.39120113 7.66559908 15.26637997 3.85343574 16 0 C18.97 0 21.94 0 25 0 C24.37403439 3.67478637 23.6951009 7.33768715 23 11 C22.690625 12.70736328 22.690625 12.70736328 22.375 14.44921875 C20.67386876 22.9258784 19.1788877 26.21407487 12 31 C7.04861674 31.71813956 2.53972178 32.03841701 -1.6875 29.1875 C-5.48981285 19.95331166 -2.12129257 9.35641544 0 0 Z " fill="#F2F8F9" transform="translate(70,105)"/>
<path d="M0 0 C0.82363037 0.0407666 1.64726074 0.0815332 2.49584961 0.12353516 C3.40399414 0.16736328 4.31213867 0.21119141 5.24780273 0.25634766 C6.20493164 0.30791016 7.16206055 0.35947266 8.14819336 0.41259766 C9.54328125 0.47833984 9.54328125 0.47833984 10.96655273 0.54541016 C16.38416873 0.81952706 21.7127977 1.29083477 27.08569336 2.03759766 C27.08569336 3.02759766 27.08569336 4.01759766 27.08569336 5.03759766 C23.27366547 8.75503428 18.99668631 11.10296407 14.08569336 13.03759766 C13.75569336 14.02759766 13.42569336 15.01759766 13.08569336 16.03759766 C11.12475586 17.64306641 11.12475586 17.64306641 8.71069336 19.22509766 C7.91920898 19.75490234 7.12772461 20.28470703 6.31225586 20.83056641 C4.08569336 22.03759766 4.08569336 22.03759766 1.08569336 22.03759766 C1.08569336 22.69759766 1.08569336 23.35759766 1.08569336 24.03759766 C-0.59399414 25.54541016 -0.59399414 25.54541016 -2.78930664 27.16259766 C-3.50860352 27.70142578 -4.22790039 28.24025391 -4.96899414 28.79541016 C-6.91430664 30.03759766 -6.91430664 30.03759766 -8.91430664 30.03759766 C-8.31494299 23.33562233 -7.09456086 17.04738259 -5.41430664 10.53759766 C-5.1887207 9.63267578 -4.96313477 8.72775391 -4.73071289 7.79541016 C-2.76638545 0.05433278 -2.76638545 0.05433278 0 0 Z " fill="#DB2327" transform="translate(36.914306640625,103.96240234375)"/>
<path d="M0 0 C3 1.375 3 1.375 5 4 C5.41570713 7.44443053 5.22975674 10.50769757 5 14 C0.05 14 -4.9 14 -10 14 C-9.67 14.99 -9.34 15.98 -9 17 C-7.33388095 17.042721 -5.66617115 17.04063832 -4 17 C-3.67 16.67 -3.34 16.34 -3 16 C-0.66702567 15.95907063 1.66705225 15.95758277 4 16 C1.93445094 20.02238501 0.18935171 22.19096176 -4 24 C-8.99744567 24.53544061 -11.98373924 24.07125823 -16 21 C-17.85618207 17.28763586 -17.44809981 13.05156912 -17 9 C-13.37356677 1.61282119 -8.05538471 -1.38045907 0 0 Z " fill="#E2F2F7" transform="translate(161,113)"/>
<path d="M0 0 C3.625 0.25 3.625 0.25 5.5625 1.3125 C9.0944066 7.75303556 5.28365715 16.68448212 3.625 23.25 C0.985 23.25 -1.655 23.25 -4.375 23.25 C-3.715 17.97 -3.055 12.69 -2.375 7.25 C-3.365 7.25 -4.355 7.25 -5.375 7.25 C-6.695 12.53 -8.015 17.81 -9.375 23.25 C-12.015 23.25 -14.655 23.25 -17.375 23.25 C-17.0911296 20.70724602 -16.79816578 18.16608446 -16.5 15.625 C-16.42136719 14.91214844 -16.34273438 14.19929688 -16.26171875 13.46484375 C-15.74924854 9.16797815 -14.90615573 5.328793 -13.375 1.25 C-12.73691406 1.26160156 -12.09882812 1.27320312 -11.44140625 1.28515625 C-10.61511719 1.29417969 -9.78882812 1.30320312 -8.9375 1.3125 C-7.70193359 1.32990234 -7.70193359 1.32990234 -6.44140625 1.34765625 C-3.57544946 1.21221406 -3.27480039 0.24257781 0 0 Z " fill="#FBFCFA" transform="translate(109.375,112.75)"/>
<path d="M0 0 C2.97 0 5.94 0 9 0 C8.67 1.98 8.34 3.96 8 6 C8.99 6 9.98 6 11 6 C11 7.98 11 9.96 11 12 C9.35 12 7.7 12 6 12 C5.67 15.96 5.34 19.92 5 24 C5.99 24 6.98 24 8 24 C7.67 26.31 7.34 28.62 7 31 C5.35425434 31.02688151 3.70838587 31.04634123 2.0625 31.0625 C1.14597656 31.07410156 0.22945312 31.08570313 -0.71484375 31.09765625 C-3 31 -3 31 -4 30 C-4.47201787 23.65520169 -4.1310677 17.9936279 -2 12 C-2.99 12 -3.98 12 -5 12 C-4.67 10.02 -4.34 8.04 -4 6 C-2.68 6 -1.36 6 0 6 C0 4.02 0 2.04 0 0 Z " fill="#E3F2F6" transform="translate(134,105)"/>
<path d="M0 0 C2.64 0 5.28 0 8 0 C7.35963063 6.62613779 6.29028836 13.04712709 4.9375 19.5625 C4.75123047 20.47580078 4.56496094 21.38910156 4.37304688 22.33007812 C3.91891897 24.55414045 3.461187 26.77739276 3 29 C2.34 28.67 1.68 28.34 1 28 C1 26.35 1 24.7 1 23 C-0.32 22.67 -1.64 22.34 -3 22 C-3.33 19.03 -3.66 16.06 -4 13 C-4.66 13 -5.32 13 -6 13 C-6 12.01 -6 11.02 -6 10 C-4.35 10 -2.7 10 -1 10 C-0.67 6.7 -0.34 3.4 0 0 Z " fill="#DFF1F8" transform="translate(186,105)"/>
<path d="M0 0 C0.99 0.33 1.98 0.66 3 1 C3 1.99 3 2.98 3 4 C4.65 4 6.3 4 8 4 C8.33 4.99 8.66 5.98 9 7 C6.69 7 4.38 7 2 7 C2.33 8.32 2.66 9.64 3 11 C4.66611905 11.042721 6.33382885 11.04063832 8 11 C8.33 10.67 8.66 10.34 9 10 C11.33297433 9.95907063 13.66705225 9.95758277 16 10 C13.93445094 14.02238501 12.18935171 16.19096176 8 18 C3.00255433 18.53544061 0.01626076 18.07125823 -4 15 C-5.26237731 12.47524538 -5.09856404 10.68799534 -5.0625 7.875 C-5.05347656 6.96492188 -5.04445312 6.05484375 -5.03515625 5.1171875 C-5.02355469 4.41851562 -5.01195312 3.71984375 -5 3 C-4.34 3 -3.68 3 -3 3 C-3 3.66 -3 4.32 -3 5 C-2.34 5 -1.68 5 -1 5 C-0.67 3.35 -0.34 1.7 0 0 Z " fill="#D4EBF2" transform="translate(149,119)"/>
<path d="M0 0 C2.31 0 4.62 0 7 0 C6.37727768 7.4071181 5.29512034 14.68194135 4 22 C1.36 22 -1.28 22 -4 22 C-3.25403037 14.5403037 -1.63253871 7.31048782 0 0 Z " fill="#F5F9F9" transform="translate(120,114)"/>
<path d="M0 0 C0.33 0 0.66 0 1 0 C1 3.66666667 1 7.33333333 1 11 C2.32 11 3.64 11 5 11 C5.33 10.01 5.66 9.02 6 8 C6 8.99 6 9.98 6 11 C7.32 11.33 8.64 11.66 10 12 C7.04335481 13.4783226 4.25770263 13.06032783 1 13 C1 13.66 1 14.32 1 15 C1.94875 14.79375 2.8975 14.5875 3.875 14.375 C4.90625 14.25125 5.9375 14.1275 7 14 C7.66 14.66 8.32 15.32 9 16 C7.68 16.33 6.36 16.66 5 17 C5 17.66 5 18.32 5 19 C3.3203125 20.5078125 3.3203125 20.5078125 1.125 22.125 C0.40570313 22.66382813 -0.31359375 23.20265625 -1.0546875 23.7578125 C-3 25 -3 25 -5 25 C-4.38580826 16.40131562 -2.19092979 8.30515248 0 0 Z " fill="#CC2A30" transform="translate(33,109)"/>
<path d="M0 0 C0.33 0 0.66 0 1 0 C1.48452463 6.94485303 -0.30712509 13.2990368 -2 20 C-4.64 20 -7.28 20 -10 20 C-9.34 16.04 -8.68 12.08 -8 8 C-7.34 8.66 -6.68 9.32 -6 10 C-2.84668201 6.99001464 -0.89216675 4.3121393 0 0 Z " fill="#E1F0F4" transform="translate(115,116)"/>
<path d="M0 0 C1.134375 0.020625 2.26875 0.04125 3.4375 0.0625 C3.63216332 1.85340253 3.81801213 3.64526505 4 5.4375 C4.10441406 6.43523437 4.20882812 7.43296875 4.31640625 8.4609375 C4.4375 11.0625 4.4375 11.0625 3.4375 13.0625 C4.4275 13.0625 5.4175 13.0625 6.4375 13.0625 C6.1075 14.0525 5.7775 15.0425 5.4375 16.0625 C5.4375 15.4025 5.4375 14.7425 5.4375 14.0625 C4.4475 14.0625 3.4575 14.0625 2.4375 14.0625 C2.4375 16.3725 2.4375 18.6825 2.4375 21.0625 C1.7775 20.7325 1.1175 20.4025 0.4375 20.0625 C0.7675 16.7625 1.0975 13.4625 1.4375 10.0625 C-0.8725 10.0625 -3.1825 10.0625 -5.5625 10.0625 C-5.5625 9.7325 -5.5625 9.4025 -5.5625 9.0625 C-2.9225 9.0625 -0.2825 9.0625 2.4375 9.0625 C2.4375 8.7325 2.4375 8.4025 2.4375 8.0625 C0.1275 7.7325 -2.1825 7.4025 -4.5625 7.0625 C-4.60504356 5.06295254 -4.60330783 3.06208364 -4.5625 1.0625 C-3.5625 0.0625 -3.5625 0.0625 0 0 Z " fill="#358BBA" transform="translate(125.5625,103.9375)"/>
<path d="M0 0 C1.32 0 2.64 0 4 0 C4.33 0.99 4.66 1.98 5 3 C6.65 3.33 8.3 3.66 10 4 C10.10251672 9.12583611 10.03590199 13.94997778 9 19 C8.34 18.67 7.68 18.34 7 18 C7 16.35 7 14.7 7 13 C5.68 12.67 4.36 12.34 3 12 C2.67 9.03 2.34 6.06 2 3 C1.34 3 0.68 3 0 3 C0 2.01 0 1.02 0 0 Z " fill="#F1F9F9" transform="translate(180,115)"/>
<path d="M0 0 C3.63 0 7.26 0 11 0 C11 2.64 11 5.28 11 8 C7 8 3 8 -1 8 C-0.67 5.36 -0.34 2.72 0 0 Z " fill="#3891C0" transform="translate(101,144)"/>
<path d="M0 0 C0.33 0.66 0.66 1.32 1 2 C3.02463255 2.65213292 3.02463255 2.65213292 5 3 C4.67 4.98 4.34 6.96 4 9 C4.66 9.33 5.32 9.66 6 10 C5.525625 10.639375 5.05125 11.27875 4.5625 11.9375 C2.52968613 15.92181519 2.2789471 19.58494074 2 24 C1.34 24 0.68 24 0 24 C0 23.34 0 22.68 0 22 C-0.99 22 -1.98 22 -3 22 C-3.08159574 17.83861737 -2.98248524 14.0527516 -2 10 C-0.35 10 1.3 10 3 10 C3 8.02 3 6.04 3 4 C2.01 4 1.02 4 0 4 C0 2.68 0 1.36 0 0 Z " fill="#1982B6" transform="translate(142,107)"/>
<path d="M0 0 C2.3125 0.8125 2.3125 0.8125 3.3125 1.8125 C3.77125252 7.08815392 3.77125252 7.08815392 2.125 9.6875 C-0.30508081 11.19582602 -1.87765752 11.17273622 -4.6875 10.8125 C-6.6875 8.8125 -6.6875 8.8125 -7.0625 6.4375 C-6.6875 3.8125 -6.6875 3.8125 -5 1.4375 C-2.6875 -0.1875 -2.6875 -0.1875 0 0 Z " fill="#C6E6EE" transform="translate(151.6875,141.1875)"/>
<path d="M0 0 C0.99 0 1.98 0 3 0 C2.67 5.61 2.34 11.22 2 17 C1.34 17 0.68 17 0 17 C0 17.66 0 18.32 0 19 C-0.99 18.67 -1.98 18.34 -3 18 C-3.92844389 13.66726186 -3.92844389 10.33273814 -3 6 C-2.34 6 -1.68 6 -1 6 C-0.67 4.02 -0.34 2.04 0 0 Z " fill="#1684BC" transform="translate(128,118)"/>
<path d="M0 0 C3.5625 -0.25 3.5625 -0.25 7 0 C7.33 0.33 7.66 0.66 8 1 C7.91062197 2.52519276 7.75462854 4.04681929 7.5625 5.5625 C7.46066406 6.38878906 7.35882813 7.21507813 7.25390625 8.06640625 C7.17011719 8.70449219 7.08632812 9.34257813 7 10 C5.68 10 4.36 10 3 10 C2.67 11.32 2.34 12.64 2 14 C1.87882812 13.28972656 1.75765625 12.57945313 1.6328125 11.84765625 C1.46523437 10.92855469 1.29765625 10.00945312 1.125 9.0625 C0.96257812 8.14597656 0.80015625 7.22945313 0.6328125 6.28515625 C0.42398438 5.53105469 0.21515625 4.77695313 0 4 C-0.66 3.67 -1.32 3.34 -2 3 C-1.34 2.01 -0.68 1.02 0 0 Z " fill="#F8FAF9" transform="translate(107,114)"/>
<path d="M0 0 C2.31 0 4.62 0 7 0 C6.37727768 7.4071181 5.29512034 14.68194135 4 22 C1.36 22 -1.28 22 -4 22 C-3.67 20.68 -3.34 19.36 -3 18 C-3 18.99 -3 19.98 -3 21 C-1.02 21 0.96 21 3 21 C3 16.05 3 11.1 3 6 C2.34 6 1.68 6 1 6 C0.34 6.66 -0.32 7.32 -1 8 C-0.67 5.36 -0.34 2.72 0 0 Z " fill="#E7F4F7" transform="translate(120,114)"/>
<path d="M0 0 C-0.99 0.33 -1.98 0.66 -3 1 C-3.66 0.67 -4.32 0.34 -5 0 C-5 1.32 -5 2.64 -5 4 C-4.34 4 -3.68 4 -3 4 C-3.11362262 5.4800841 -3.24122908 6.95910074 -3.375 8.4375 C-3.44460937 9.26121094 -3.51421875 10.08492187 -3.5859375 10.93359375 C-3.72257812 11.61550781 -3.85921875 12.29742187 -4 13 C-4.99 13.495 -4.99 13.495 -6 14 C-6 10.04 -6 6.08 -6 2 C-7.56305491 3.56305491 -7.30639968 5.27678218 -7.5 7.4375 C-7.89041096 11.78082192 -7.89041096 11.78082192 -9 14 C-9.66 14 -10.32 14 -11 14 C-11 9.71 -11 5.42 -11 1 C-6.46780033 -1.26609984 -4.82227075 -0.92735976 0 0 Z " fill="#248DC7" transform="translate(125,138)"/>
<path d="M0 0 C0.99 0.33 1.98 0.66 3 1 C3 1.99 3 2.98 3 4 C4.65 4 6.3 4 8 4 C8.33 4.99 8.66 5.98 9 7 C7.906875 7.04125 6.81375 7.0825 5.6875 7.125 C1.75003667 7.60565398 1.75003667 7.60565398 0.0625 11.0625 C-0.288125 12.031875 -0.63875 13.00125 -1 14 C-1.66 14 -2.32 14 -3 14 C-3.33 10.37 -3.66 6.74 -4 3 C-3.67 3.66 -3.34 4.32 -3 5 C-2.34 5 -1.68 5 -1 5 C-0.67 3.35 -0.34 1.7 0 0 Z " fill="#FAFBFA" transform="translate(149,119)"/>
<path d="M0 0 C1.80411967 2.75924185 2.0127245 3.88972103 1.625 7.25 C1.41875 8.1575 1.2125 9.065 1 10 C0.34 8.68 -0.32 7.36 -1 6 C-1.66 6 -2.32 6 -3 6 C-3.144375 6.5775 -3.28875 7.155 -3.4375 7.75 C-3.95833333 9.83333333 -4.47916667 11.91666667 -5 14 C-5.66 14 -6.32 14 -7 14 C-7 16.64 -7 19.28 -7 22 C-6.01 22.33 -5.02 22.66 -4 23 C-5.65 22.67 -7.3 22.34 -9 22 C-8.0705347 7.32423208 -8.0705347 7.32423208 -6 2 C-2.875 0.5 -2.875 0.5 0 0 Z " fill="#2889B8" transform="translate(84,106)"/>
<path d="M0 0 C1.32 0.33 2.64 0.66 4 1 C3.48041715 5.37934119 2.94324258 9.68803391 2 14 C0.35 13.67 -1.3 13.34 -3 13 C-3.33 13.66 -3.66 14.32 -4 15 C-3.50341703 9.33895411 -2.45489316 5.12325529 0 0 Z " fill="#1D83B3" transform="translate(104,119)"/>
<path d="M0 0 C1.43791516 0.14168137 2.8753237 0.28851043 4.3125 0.4375 C5.11300781 0.51871094 5.91351563 0.59992188 6.73828125 0.68359375 C9 1 9 1 12 2 C11.67 3.32 11.34 4.64 11 6 C7.7 6.33 4.4 6.66 1 7 C0.34 6.01 -0.32 5.02 -1 4 C-4.56769552 3.26393501 -4.56769552 3.26393501 -8 3 C-8 2.67 -8 2.34 -8 2 C-5.36 2 -2.72 2 0 2 C0 1.34 0 0.68 0 0 Z " fill="#E02026" transform="translate(48,106)"/>
<path d="M0 0 C0.78375 0.165 1.5675 0.33 2.375 0.5 C5.09522679 1.23945377 5.09522679 1.23945377 8 0 C7.67 1.32 7.34 2.64 7 4 C8.32 4.66 9.64 5.32 11 6 C10.67 7.32 10.34 8.64 10 10 C9.05125 9.814375 8.1025 9.62875 7.125 9.4375 C4.10131207 8.71313368 4.10131207 8.71313368 2 10 C2.33 8.68 2.66 7.36 3 6 C2.01 5.67 1.02 5.34 0 5 C-0.75 3 -0.75 3 -1 1 C-0.67 0.67 -0.34 0.34 0 0 Z " fill="#88C4DD" transform="translate(52,142)"/>
<path d="M0 0 C1.32 1.65 2.64 3.3 4 5 C3.34 5 2.68 5 2 5 C2 6.32 2 7.64 2 9 C2.99 9 3.98 9 5 9 C4.8125 10.8125 4.8125 10.8125 4 13 C1.09303401 15.14197494 -0.35521088 16 -4 16 C-4.33 15.01 -4.66 14.02 -5 13 C-4.505 12.566875 -4.01 12.13375 -3.5 11.6875 C-1.66781808 10.00259517 -1.66781808 10.00259517 -2 7 C-1.36485174 4.65789079 -0.7013284 2.32315031 0 0 Z " fill="#E6F1F4" transform="translate(83,120)"/>
<path d="M0 0 C0.598125 0.226875 1.19625 0.45375 1.8125 0.6875 C2.17676713 7.12288595 2.17676713 7.12288595 0.5625 9.625 C-1.1875 10.6875 -1.1875 10.6875 -5.1875 10.6875 C-5.55141205 3.28795489 -5.55141205 3.28795489 -3.9375 0.625 C-2.1875 -0.3125 -2.1875 -0.3125 0 0 Z " fill="#0E80BF" transform="translate(181.1875,119.3125)"/>
<path d="M0 0 C4.19469571 0.59924224 8.00999834 1.57499941 12 3 C12 5.97 12 8.94 12 12 C10.35 12 8.7 12 7 12 C6.938125 10.1128125 6.938125 10.1128125 6.875 8.1875 C6.69235511 5.99010474 6.69235511 5.99010474 6 4 C3.08158143 1.91367303 3.08158143 1.91367303 0 1 C0 0.67 0 0.34 0 0 Z " fill="#F5F8F6" transform="translate(154,114)"/>
<path d="M0 0 C0.33 0 0.66 0 1 0 C1 1.98 1 3.96 1 6 C2.65 6.33 4.3 6.66 6 7 C6 8.65 6 10.3 6 12 C3.03 12 0.06 12 -3 12 C-4.07816551 7.68733797 -4.07800276 7.49979413 -2 4 C-1.62875 3.2575 -1.2575 2.515 -0.875 1.75 C-0.58625 1.1725 -0.2975 0.595 0 0 Z " fill="#FAFBF9" transform="translate(135,123)"/>
<path d="M0 0 C0.66 0.33 1.32 0.66 2 1 C1.67 1.66 1.34 2.32 1 3 C1.66 3 2.32 3 3 3 C1.98208077 10.10377673 0.90094901 17.07511433 -1 24 C-1.99 23.67 -2.98 23.34 -4 23 C-3.58975772 19.5813143 -3.15631326 16.43963104 -2 13.1875 C-0.63735629 8.84407317 -0.33972798 4.5237463 0 0 Z " fill="#1782B5" transform="translate(117,112)"/>
<path d="M0 0 C3.33357738 0.1405562 6.66679389 0.28841802 10 0.4375 C10.93457031 0.47681641 11.86914062 0.51613281 12.83203125 0.55664062 C18.27188123 0.80390653 23.60694577 1.24319168 29 2 C29 2.99 29 3.98 29 5 C26.5 6.6875 26.5 6.6875 24 8 C24 6.68 24 5.36 24 4 C22.5459375 4.0309375 22.5459375 4.0309375 21.0625 4.0625 C18 4 18 4 17 3 C14.14122091 2.76298761 11.30116703 2.57780818 8.4375 2.4375 C7.63119141 2.39431641 6.82488281 2.35113281 5.99414062 2.30664062 C3.99631195 2.20024738 1.9981793 2.09959112 0 2 C-0.33 2.99 -0.66 3.98 -1 5 C-0.67 3.35 -0.34 1.7 0 0 Z " fill="#BF303F" transform="translate(35,104)"/>
<path d="M0 0 C1.65 0.33 3.3 0.66 5 1 C5.125 4.375 5.125 4.375 5 8 C4.34 8.66 3.68 9.32 3 10 C1.68 10 0.36 10 -1 10 C-2.25 3.375 -2.25 3.375 0 0 Z " fill="#79B8D2" transform="translate(36,142)"/>
<path d="M0 0 C1.32 0 2.64 0 4 0 C5.25 6.625 5.25 6.625 3 10 C1.35 9.67 -0.3 9.34 -2 9 C-2.125 5.625 -2.125 5.625 -2 2 C-1.34 1.34 -0.68 0.68 0 0 Z " fill="#A5D0E2" transform="translate(45,142)"/>
<path d="M0 0 C0.33 0 0.66 0 1 0 C1.24091535 7.2274605 0.34495828 13.90294338 -1 21 C-2.98 21.33 -4.96 21.66 -7 22 C-6.73445313 21.32195312 -6.46890625 20.64390625 -6.1953125 19.9453125 C-4.05169909 14.29681294 -2.40047514 8.8588901 -1.39453125 2.8984375 C-1 1 -1 1 0 0 Z " fill="#1F86B7" transform="translate(94,111)"/>
<path d="M0 0 C3.96 0 7.92 0 12 0 C12 0.99 12 1.98 12 3 C11.34 3 10.68 3 10 3 C9.7525 3.928125 9.505 4.85625 9.25 5.8125 C7.92550684 9.18995757 7.1338329 10.2906366 4 12 C3.01 12 2.02 12 1 12 C0.67 11.01 0.34 10.02 0 9 C0.86625 8.36771484 0.86625 8.36771484 1.75 7.72265625 C2.4925 7.17480469 3.235 6.62695312 4 6.0625 C4.7425 5.51722656 5.485 4.97195312 6.25 4.41015625 C6.8275 3.94480469 7.405 3.47945313 8 3 C8 2.67 8 2.34 8 2 C5.36 1.67 2.72 1.34 0 1 C0 0.67 0 0.34 0 0 Z " fill="#2573A8" transform="translate(56,105)"/>
<path d="M0 0 C2.475 0.99 2.475 0.99 5 2 C4.67 5.3 4.34 8.6 4 12 C2.35 12 0.7 12 -1 12 C-1.14285714 3.42857143 -1.14285714 3.42857143 0 0 Z " fill="#2386B6" transform="translate(96,140)"/>
<path d="M0 0 C2.31 0 4.62 0 7 0 C5.19587357 3.26460973 4.16605307 4.88929795 1 7 C-1.04296875 7.1953125 -1.04296875 7.1953125 -3.1875 7.125 C-5.0746875 7.063125 -5.0746875 7.063125 -7 7 C-6.67 6.01 -6.34 5.02 -6 4 C-4.35 3.67 -2.7 3.34 -1 3 C-0.67 2.01 -0.34 1.02 0 0 Z " fill="#E3F3F6" transform="translate(158,129)"/>
<path d="M0 0 C0.66 0 1.32 0 2 0 C1.67 3.3 1.34 6.6 1 10 C-0.99954746 10.04254356 -3.00041636 10.04080783 -5 10 C-6 9 -6 9 -6.0625 6.4375 C-6.041875 5.633125 -6.02125 4.82875 -6 4 C-4.125 2.9375 -4.125 2.9375 -2 2 C-1.34 2.33 -0.68 2.66 0 3 C0 2.01 0 1.02 0 0 Z " fill="#87BDD4" transform="translate(192,142)"/>
<path d="M0 0 C2.99332739 0.9977758 3.94766315 1.7522025 6 4 C5.54625 4.33 5.0925 4.66 4.625 5 C2.15680026 8.0377843 1.81156856 11.19187061 1 15 C0.34 15 -0.32 15 -1 15 C-0.67 12.69 -0.34 10.38 0 8 C-0.66 8 -1.32 8 -2 8 C-2 7.34 -2 6.68 -2 6 C-1.34 6 -0.68 6 0 6 C0 5.34 0 4.68 0 4 C-0.99 3.67 -1.98 3.34 -3 3 C-2.01 2.01 -1.02 1.02 0 0 Z " fill="#0D85C1" transform="translate(30,137)"/>
<path d="M0 0 C0.66 0.99 1.32 1.98 2 3 C5.08365871 3.2502157 5.08365871 3.2502157 8 3 C8.33 4.32 8.66 5.64 9 7 C2.47692308 7.36923077 2.47692308 7.36923077 0.0625 5.5 C-0.288125 5.005 -0.63875 4.51 -1 4 C-1.33 5.65 -1.66 7.3 -2 9 C-2.66 9 -3.32 9 -4 9 C-4.8125 7.3125 -4.8125 7.3125 -5 5 C-2.5625 2.25 -2.5625 2.25 0 0 Z " fill="#DBEDF4" transform="translate(150,115)"/>
<path d="M0 0 C2 0 4 0 6 0 C6.33 0.66 6.66 1.32 7 2 C7.33 1.34 7.66 0.68 8 0 C8.66 0 9.32 0 10 0 C9.45276317 3.37462715 8.9451 5.08235 7 8 C6.34 8 5.68 8 5 8 C4.67 7.34 4.34 6.68 4 6 C3.67 6.66 3.34 7.32 3 8 C2.34 8 1.68 8 1 8 C-0.35439668 5.29120665 -0.06501451 2.99066732 0 0 Z " fill="#CAE3EC" transform="translate(157,144)"/>
<path d="M0 0 C0.99 0 1.98 0 3 0 C3.33 3.3 3.66 6.6 4 10 C3.34 10 2.68 10 2 10 C2 9.34 2 8.68 2 8 C0.68 8 -0.64 8 -2 8 C-2 8.66 -2 9.32 -2 10 C-2.66 10 -3.32 10 -4 10 C-3.43768609 6.06380262 -2.38314183 3.20807554 0 0 Z " fill="#C6E4EB" transform="translate(72,142)"/>
<path d="M0 0 C1.67542976 0.28604898 3.34385343 0.61781233 5 1 C4.67 3.31 4.34 5.62 4 8 C2.02 8 0.04 8 -2 8 C-1.125 1.125 -1.125 1.125 0 0 Z " fill="#A6CDDB" transform="translate(125,144)"/>
<path d="M0 0 C2.31 0 4.62 0 7 0 C7 2.31 7 4.62 7 7 C4.625 7.1875 4.625 7.1875 2 7 C0 4 0 4 0 0 Z " fill="#F1F7F4" transform="translate(134,105)"/>
<path d="M0 0 C0.99 0.33 1.98 0.66 3 1 C2.67 3.64 2.34 6.28 2 9 C-0.64 9 -3.28 9 -6 9 C-5.67 7.68 -5.34 6.36 -5 5 C-3.35 4.67 -1.7 4.34 0 4 C0 2.68 0 1.36 0 0 Z " fill="#DFF1F4" transform="translate(98,127)"/>
<path d="M0 0 C4.95 0 9.9 0 15 0 C14.67 0.66 14.34 1.32 14 2 C11.67284 2.37400786 9.33882138 2.70764733 7 3 C6.67 3.33 6.34 3.66 6 4 C4.33382885 4.04063832 2.66611905 4.042721 1 4 C0.67 2.68 0.34 1.36 0 0 Z " fill="#2083B6" transform="translate(151,127)"/>
<path d="M0 0 C1.134375 0.020625 2.26875 0.04125 3.4375 0.0625 C3.4375 0.3925 3.4375 0.7225 3.4375 1.0625 C1.4575 1.3925 -0.5225 1.7225 -2.5625 2.0625 C-2.5625 3.0525 -2.5625 4.0425 -2.5625 5.0625 C-3.87379922 6.41750919 -5.20941687 7.74921343 -6.5625 9.0625 C-7.79762079 11.19559192 -7.79762079 11.19559192 -8.5625 13.0625 C-8.5625 10.7525 -8.5625 8.4425 -8.5625 6.0625 C-7.9025 6.0625 -7.2425 6.0625 -6.5625 6.0625 C-6.8925 4.7425 -7.2225 3.4225 -7.5625 2.0625 C-9.5425 2.0625 -11.5225 2.0625 -13.5625 2.0625 C-13.5625 1.7325 -13.5625 1.4025 -13.5625 1.0625 C-12.92441406 1.07410156 -12.28632812 1.08570312 -11.62890625 1.09765625 C-10.80261719 1.10667969 -9.97632812 1.11570312 -9.125 1.125 C-7.88943359 1.14240234 -7.88943359 1.14240234 -6.62890625 1.16015625 C-3.50525904 1.01253587 -3.70456776 0.06499242 0 0 Z " fill="#DDEFF6" transform="translate(109.5625,112.9375)"/>
<path d="M0 0 C1.32 0.33 2.64 0.66 4 1 C4 3.64 4 6.28 4 9 C2.68 9.33 1.36 9.66 0 10 C0.33 8.68 0.66 7.36 1 6 C0.01 6 -0.98 6 -2 6 C-2 4.68 -2 3.36 -2 2 C-1.34 2 -0.68 2 0 2 C0 1.34 0 0.68 0 0 Z " fill="#FAFEFA" transform="translate(171,120)"/>
<path d="M0 0 C1.32 0 2.64 0 4 0 C4 2.64 4 5.28 4 8 C2.02 8 0.04 8 -2 8 C-2 6.68 -2 5.36 -2 4 C-1.34 3.67 -0.68 3.34 0 3 C0 2.01 0 1.02 0 0 Z " fill="#C5E2E8" transform="translate(108,144)"/>
<path d="M0 0 C0.66 0 1.32 0 2 0 C2 1.65 2 3.3 2 5 C2.66 5.33 3.32 5.66 4 6 C4 4.35 4 2.7 4 1 C4.99 0.67 5.98 0.34 7 0 C6.67 2.64 6.34 5.28 6 8 C4.02 8 2.04 8 0 8 C-0.98120464 4.94736336 -0.98120464 3.05263664 0 0 Z " fill="#C2E3ED" transform="translate(79,144)"/>
<path d="M0 0 C2.625 0.375 2.625 0.375 5 1 C5 2.32 5 3.64 5 5 C3.68 5 2.36 5 1 5 C0.67 4.01 0.34 3.02 0 2 C0 3.32 0 4.64 0 6 C1.32 6 2.64 6 4 6 C4 6.66 4 7.32 4 8 C2.33388095 8.042721 0.66617115 8.04063832 -1 8 C-2 7 -2 7 -2.1875 4.5625 C-2 2 -2 2 0 0 Z " fill="#C5E5F0" transform="translate(179,144)"/>
<path d="M0 0 C1.98 0 3.96 0 6 0 C6.79953138 3.28696233 7.09658936 4.71023192 6 8 C5.34 8 4.68 8 4 8 C4.33 6.02 4.66 4.04 5 2 C2.2160817 3.39195915 2.02101003 5.15575779 1 8 C0.67 8 0.34 8 0 8 C0 5.36 0 2.72 0 0 Z " fill="#C5E6F3" transform="translate(132,144)"/>
<path d="M0 0 C1.32 0 2.64 0 4 0 C4 2.31 4 4.62 4 7 C2.35 7.33 0.7 7.66 -1 8 C-1 4.88742431 -0.82638376 2.89234315 0 0 Z " fill="#B9DBE8" transform="translate(89,144)"/>
<path d="M0 0 C1.98 0 3.96 0 6 0 C5.67 0.66 5.34 1.32 5 2 C4.34 2 3.68 2 3 2 C3.33 2.99 3.66 3.98 4 5 C3.44140625 7.04296875 3.44140625 7.04296875 2.5625 9.1875 C2.27503906 9.90292969 1.98757812 10.61835938 1.69140625 11.35546875 C1.46324219 11.89816406 1.23507813 12.44085938 1 13 C0.01 13 -0.98 13 -2 13 C-1.67 12.67 -1.34 12.34 -1 12 C-0.92851801 10.64756083 -0.91600546 9.29165633 -0.9375 7.9375 C-0.958125 6.638125 -0.97875 5.33875 -1 4 C-0.34 4 0.32 4 1 4 C0.67 2.68 0.34 1.36 0 0 Z " fill="#268CBC" transform="translate(41,138)"/>
<path d="M0 0 C0.33 1.32 0.66 2.64 1 4 C2.918125 3.7215625 2.918125 3.7215625 4.875 3.4375 C10.02751066 2.84770546 14.87985373 3.30519936 20 4 C20.33 3.34 20.66 2.68 21 2 C21.33 2.99 21.66 3.98 22 5 C19.07330309 5.97556564 17.55938679 6.0606341 14.55078125 5.87890625 C13.70322266 5.83056641 12.85566406 5.78222656 11.98242188 5.73242188 C11.10134766 5.67634766 10.22027344 5.62027344 9.3125 5.5625 C8.41982422 5.51029297 7.52714844 5.45808594 6.60742188 5.40429688 C4.4045844 5.2747182 2.20221127 5.13975754 0 5 C-0.5625 3.0625 -0.5625 3.0625 -1 1 C-0.67 0.67 -0.34 0.34 0 0 Z " fill="#0579B3" transform="translate(104,132)"/>
<path d="M0 0 C1.98 0 3.96 0 6 0 C6 2.31 6 4.62 6 7 C5.01 7.495 5.01 7.495 4 8 C4 6.02 4 4.04 4 2 C3.01 2.495 3.01 2.495 2 3 C1.34444881 5.52733235 1.34444881 5.52733235 1 8 C0.34 8 -0.32 8 -1 8 C-0.67 5.36 -0.34 2.72 0 0 Z " fill="#CCE7EE" transform="translate(169,144)"/>
<path d="M0 0 C0.66 0 1.32 0 2 0 C2 0.99 2 1.98 2 3 C0.68 3 -0.64 3 -2 3 C-3.52299523 5.93720508 -4.80100302 8.9168649 -6 12 C-6.33 11.01 -6.66 10.02 -7 9 C-8.65 9.33 -10.3 9.66 -12 10 C-9.46382 7.28266428 -7.2911215 5.64556075 -4 4 C-3.29875 3.29875 -2.5975 2.5975 -1.875 1.875 C-1.25625 1.25625 -0.6375 0.6375 0 0 Z " fill="#2C6F9F" transform="translate(54,115)"/>
<path d="M0 0 C1.66611905 -0.042721 3.33382885 -0.04063832 5 0 C6 1 6 1 6.0625 3.5625 C6.041875 4.366875 6.02125 5.17125 6 6 C4.33388095 6.042721 2.66617115 6.04063832 1 6 C0 5 0 5 -0.0625 2.4375 C-0.041875 1.633125 -0.02125 0.82875 0 0 Z " fill="#FBFAFA" transform="translate(71,105)"/>
<path d="M0 0 C-1.5625 1.5625 -1.5625 1.5625 -4 3 C-7.6875 2.8125 -7.6875 2.8125 -11 2 C-11.33 1.34 -11.66 0.68 -12 0 C-7.89962722 -3.07527959 -4.53236941 -1.35971082 0 0 Z " fill="#D4EEF6" transform="translate(181,134)"/>
<path d="M0 0 C1.125 3.75 1.125 3.75 0 6 C1.65 6.33 3.3 6.66 5 7 C3.37660195 8.70884005 1.70680947 10.37446717 0 12 C-0.66 12 -1.32 12 -2 12 C-1.85831863 10.56208484 -1.71148957 9.1246763 -1.5625 7.6875 C-1.48128906 6.88699219 -1.40007813 6.08648437 -1.31640625 5.26171875 C-1 3 -1 3 0 0 Z " fill="#C02D43" transform="translate(30,122)"/>
<path d="M0 0 C0.99 0 1.98 0 3 0 C3.36275695 4.47400242 3.36275695 4.47400242 1.75 6.8125 C0 8 0 8 -4 8 C-4.33 8.99 -4.66 9.98 -5 11 C-5 9.68 -5 8.36 -5 7 C-4.34 7 -3.68 7 -3 7 C-3 6.34 -3 5.68 -3 5 C-2.34 5 -1.68 5 -1 5 C-0.67 3.35 -0.34 1.7 0 0 Z " fill="#F9FCFC" transform="translate(98,123)"/>
<path d="M0 0 C0.66 0 1.32 0 2 0 C2 0.66 2 1.32 2 2 C2.99 1.67 3.98 1.34 5 1 C5.99 1.66 6.98 2.32 8 3 C5.03 5.475 5.03 5.475 2 8 C0.4375 6.25 0.4375 6.25 -1 4 C-0.6875 1.75 -0.6875 1.75 0 0 Z " fill="#1887BE" transform="translate(167,112)"/>
<path d="M0 0 C2.64701022 1.32350511 3.04357118 2.20428498 4 5 C3.625 8.75 3.625 8.75 3 12 C2.67 12 2.34 12 2 12 C1.855625 10.88625 1.71125 9.7725 1.5625 8.625 C1.21627965 5.17857953 1.21627965 5.17857953 0 3 C-0.66 3 -1.32 3 -2 3 C-2 3.66 -2 4.32 -2 5 C-2.66 5 -3.32 5 -4 5 C-3.6875 3.0625 -3.6875 3.0625 -3 1 C-2.01 0.67 -1.02 0.34 0 0 Z " fill="#D8E9ED" transform="translate(173,117)"/>
<path d="M0 0 C1.65 0 3.3 0 5 0 C4.67 1.98 4.34 3.96 4 6 C3.34 5.34 2.68 4.68 2 4 C1.67 5.32 1.34 6.64 1 8 C0.34 8 -0.32 8 -1 8 C-1.125 2.25 -1.125 2.25 0 0 Z " fill="#FDFCF6" transform="translate(188,106)"/>
<path d="M0 0 C1.65 0 3.3 0 5 0 C5 1.65 5 3.3 5 5 C3.35 5.33 1.7 5.66 0 6 C0 4.02 0 2.04 0 0 Z " fill="#1B83B6" transform="translate(148,144)"/>
<path d="M0 0 C0.66 0 1.32 0 2 0 C1 5 0 10 -1 15 C-1.33 15 -1.66 15 -2 15 C-2.144375 13.906875 -2.28875 12.81375 -2.4375 11.6875 C-2.88288104 8.06877013 -2.88288104 8.06877013 -4 5 C-3.01 5 -2.02 5 -1 5 C-0.67 3.35 -0.34 1.7 0 0 Z " fill="#1879AB" transform="translate(30,115)"/>
<path d="M0 0 C1.67542976 0.28604898 3.34385343 0.61781233 5 1 C5 2.98 5 4.96 5 7 C4.67 7 4.34 7 4 7 C4 5.35 4 3.7 4 2 C3.01 2.33 2.02 2.66 1 3 C0.67 4.98 0.34 6.96 0 9 C-0.66 8.67 -1.32 8.34 -2 8 C-1.125 1.125 -1.125 1.125 0 0 Z " fill="#CFE8F3" transform="translate(36,142)"/>
<path d="M0 0 C0.66 0 1.32 0 2 0 C3.2380014 3.57644848 2.74926071 6.33694766 2 10 C1.01 10 0.02 10 -1 10 C-1.125 2.25 -1.125 2.25 0 0 Z " fill="#C5E1F0" transform="translate(96,142)"/>
<path d="M0 0 C1.57739052 2.50526729 2.07065754 3.58614871 1.5625 6.5625 C1.376875 7.366875 1.19125 8.17125 1 9 C1.33 9.99 1.66 10.98 2 12 C1.34 12 0.68 12 0 12 C0 12.66 0 13.32 0 14 C-0.66 14 -1.32 14 -2 14 C-1.85795259 12.41632253 -1.71119847 10.83306682 -1.5625 9.25 C-1.48128906 8.36828125 -1.40007812 7.4865625 -1.31640625 6.578125 C-1.03761535 4.30649548 -0.61209423 2.20148177 0 0 Z " fill="#CDE8F1" transform="translate(95,116)"/>
<path d="M0 0 C1.134375 0.020625 2.26875 0.04125 3.4375 0.0625 C-1.1875 4.9375 -1.1875 4.9375 -4.5625 6.0625 C-4.605221 4.39638095 -4.60313832 2.72867115 -4.5625 1.0625 C-3.5625 0.0625 -3.5625 0.0625 0 0 Z " fill="#A73C52" transform="translate(125.5625,103.9375)"/>
<path d="M0 0 C0.66 0 1.32 0 2 0 C2 1.98 2 3.96 2 6 C3.32 6.33 4.64 6.66 6 7 C5.01 8.32 4.02 9.64 3 11 C2.34 10.67 1.68 10.34 1 10 C0.33203125 7.96875 0.33203125 7.96875 -0.1875 5.5 C-0.36667969 4.6853125 -0.54585937 3.870625 -0.73046875 3.03125 C-0.81941406 2.3609375 -0.90835938 1.690625 -1 1 C-0.67 0.67 -0.34 0.34 0 0 Z " fill="#1C80B1" transform="translate(50,141)"/>
<path d="M0 0 C1.32 0 2.64 0 4 0 C3.34 3.63 2.68 7.26 2 11 C-0.10814567 6.78370866 -0.17700355 4.60209225 0 0 Z " fill="#E7F3F5" transform="translate(91,105)"/>
<path d="M0 0 C-0.66 3.3 -1.32 6.6 -2 10 C-2.66 10 -3.32 10 -4 10 C-3.67 7.69 -3.34 5.38 -3 3 C-3.66 3 -4.32 3 -5 3 C-5 2.34 -5 1.68 -5 1 C-3 0 -3 0 0 0 Z " fill="#C1E1F0" transform="translate(33,142)"/>
<path d="M0 0 C1.32 0.33 2.64 0.66 4 1 C3.67 1.99 3.34 2.98 3 4 C2.21149863 7.64681882 1.59941406 11.31788507 1 15 C0.67 15 0.34 15 0 15 C0 10.05 0 5.1 0 0 Z " fill="#1988C0" transform="translate(112,137)"/>
<path d="M0 0 C0.042721 1.66611905 0.04063832 3.33382885 0 5 C-1 6 -1 6 -4.5625 6.0625 C-5.696875 6.041875 -6.83125 6.02125 -8 6 C-2.2 0 -2.2 0 0 0 Z " fill="#D6DDE3" transform="translate(129,105)"/>
<path d="M0 0 C0.66 0 1.32 0 2 0 C1.67 2.64 1.34 5.28 1 8 C0.01 8.33 -0.98 8.66 -2 9 C-1.67 7.35 -1.34 5.7 -1 4 C-2.32 4.33 -3.64 4.66 -5 5 C-4.67 4.01 -4.34 3.02 -4 2 C-2.02 2.495 -2.02 2.495 0 3 C0 2.01 0 1.02 0 0 Z " fill="#DCF1F5" transform="translate(192,142)"/>
<path d="M0 0 C1.65 0.33 3.3 0.66 5 1 C4.01 1.33 3.02 1.66 2 2 C1.28272222 3.64551962 0.61674772 5.31422289 0 7 C-0.66 7.66 -1.32 8.32 -2 9 C-2.33 7.35 -2.66 5.7 -3 4 C-2.34 4 -1.68 4 -1 4 C-0.67 2.68 -0.34 1.36 0 0 Z " fill="#1F85B6" transform="translate(70,140)"/>
<path d="M0 0 C0.33 0 0.66 0 1 0 C2.125 7.625 2.125 7.625 1 11 C0.34 11 -0.32 11 -1 11 C-2.25 3.375 -2.25 3.375 0 0 Z " fill="#0982C2" transform="translate(105,120)"/>
<path d="M0 0 C0.33 0 0.66 0 1 0 C1 4.95 1 9.9 1 15 C0.01 15 -0.98 15 -2 15 C-1.03644647 4.44191344 -1.03644647 4.44191344 0 0 Z " fill="#D7ECF6" transform="translate(70,105)"/>
<path d="M0 0 C0.33 0 0.66 0 1 0 C1 1.98 1 3.96 1 6 C-1.31 6 -3.62 6 -6 6 C-5.67 5.01 -5.34 4.02 -5 3 C-3.35 2.67 -1.7 2.34 0 2 C0 1.34 0 0.68 0 0 Z " fill="#F7FCFB" transform="translate(157,130)"/>
<path d="M0 0 C0.66 0 1.32 0 2 0 C2 1.98 2 3.96 2 6 C-0.31 5.67 -2.62 5.34 -5 5 C-5 3.68 -5 2.36 -5 1 C-4.01 1.33 -3.02 1.66 -2 2 C-2.66 2 -3.32 2 -4 2 C-4 2.66 -4 3.32 -4 4 C-2.68 4 -1.36 4 0 4 C0 2.68 0 1.36 0 0 Z " fill="#3F90B3" transform="translate(184,145)"/>
<path d="M0 0 C0.99 0.33 1.98 0.66 3 1 C2.01 1.33 1.02 1.66 0 2 C-0.80212628 3.87387216 -0.80212628 3.87387216 -1.1875 6.0625 C-1.34605469 6.79597656 -1.50460938 7.52945313 -1.66796875 8.28515625 C-1.83232422 9.13400391 -1.83232422 9.13400391 -2 10 C-1.01 10.33 -0.02 10.66 1 11 C-0.32 11 -1.64 11 -3 11 C-3.36923077 3.49230769 -3.36923077 3.49230769 -1.5 1 C-1.005 0.67 -0.51 0.34 0 0 Z " fill="#157FAD" transform="translate(179,119)"/>
<path d="M0 0 C1.98 0.495 1.98 0.495 4 1 C3.67 2.32 3.34 3.64 3 5 C1.68 5 0.36 5 -1 5 C-0.67 3.35 -0.34 1.7 0 0 Z " fill="#AAD3E0" transform="translate(59,147)"/>
<path d="M0 0 C2.86724686 0.57344937 3.8614515 0.8614515 6 3 C5.01 5.31 4.02 7.62 3 10 C1.38050989 7.42786866 0.95591249 6.32330841 1.375 3.25 C1.58125 2.5075 1.7875 1.765 2 1 C1.34 0.67 0.68 0.34 0 0 Z " fill="#258EB8" transform="translate(120,141)"/>
<path d="M0 0 C0 0.99 0 1.98 0 3 C-2.31 3 -4.62 3 -7 3 C-6.67 2.01 -6.34 1.02 -6 0 C-3.50907189 -1.24546405 -2.58919267 -0.7767578 0 0 Z " fill="#2082B5" transform="translate(159,119)"/>
<path d="M0 0 C0.66 0 1.32 0 2 0 C1.88637738 1.4800841 1.75877092 2.95910074 1.625 4.4375 C1.52058594 5.67306641 1.52058594 5.67306641 1.4140625 6.93359375 C1.27742188 7.61550781 1.14078125 8.29742187 1 9 C0.01 9.495 0.01 9.495 -1 10 C-1.125 3.375 -1.125 3.375 0 0 Z " fill="#C1DAEF" transform="translate(120,142)"/>
<path d="M0 0 C1.32 0 2.64 0 4 0 C3.67 1.65 3.34 3.3 3 5 C2.01 5 1.02 5 0 5 C-0.5625 3.0625 -0.5625 3.0625 -1 1 C-0.67 0.67 -0.34 0.34 0 0 Z " fill="#AED7E8" transform="translate(52,142)"/>
<path d="M0 0 C1.32 0 2.64 0 4 0 C4 0.66 4 1.32 4 2 C4.66 2 5.32 2 6 2 C6 2.66 6 3.32 6 4 C4.02 4 2.04 4 0 4 C-0.33 3.01 -0.66 2.02 -1 1 C-0.67 0.67 -0.34 0.34 0 0 Z " fill="#147AB0" transform="translate(32,131)"/>
<path d="M0 0 C0.33 1.32 0.66 2.64 1 4 C1.99 4 2.98 4 4 4 C4 4.66 4 5.32 4 6 C3.34 6 2.68 6 2 6 C1.67 7.65 1.34 9.3 1 11 C0.67 11 0.34 11 0 11 C0 7.37 0 3.74 0 0 Z " fill="#E1F3F6" transform="translate(168,122)"/>
<path d="M0 0 C0.99 0.495 0.99 0.495 2 1 C1.67 1.66 1.34 2.32 1 3 C1.66 3 2.32 3 3 3 C2.67 5.31 2.34 7.62 2 10 C1.34 10 0.68 10 0 10 C0 6.7 0 3.4 0 0 Z " fill="#1987C4" transform="translate(117,112)"/>
<path d="M0 0 C3.96 0 7.92 0 12 0 C12 0.99 12 1.98 12 3 C10.68 3.33 9.36 3.66 8 4 C8 3.34 8 2.68 8 2 C5.36 1.67 2.72 1.34 0 1 C0 0.67 0 0.34 0 0 Z " fill="#615A78" transform="translate(56,105)"/>
<path d="M0 0 C1.32 0 2.64 0 4 0 C4 0.66 4 1.32 4 2 C3.01 2.495 3.01 2.495 2 3 C1.34444881 5.52733235 1.34444881 5.52733235 1 8 C0.34 8 -0.32 8 -1 8 C-0.67 5.36 -0.34 2.72 0 0 Z " fill="#C7E6ED" transform="translate(101,144)"/>
<path d="M0 0 C0.33 0.99 0.66 1.98 1 3 C1.66 3.33 2.32 3.66 3 4 C2.34 4 1.68 4 1 4 C1 4.99 1 5.98 1 7 C-0.32 6.34 -1.64 5.68 -3 5 C-2.01 3.35 -1.02 1.7 0 0 Z " fill="#2489BC" transform="translate(191,138)"/>
<path d="M0 0 C0.33 0 0.66 0 1 0 C0.88601335 1.62580966 0.75844341 3.25067157 0.625 4.875 C0.52058594 6.23238281 0.52058594 6.23238281 0.4140625 7.6171875 C0 10 0 10 -2 12 C-2.28571429 3.42857143 -2.28571429 3.42857143 0 0 Z " fill="#0E7DB0" transform="translate(83,114)"/>
<path d="M0 0 C1.80411967 2.75924185 2.0127245 3.88972103 1.625 7.25 C1.41875 8.1575 1.2125 9.065 1 10 C0.34 8.68 -0.32 7.36 -1 6 C-1.66 6 -2.32 6 -3 6 C-3 3 -3 3 -1.5 1.3125 C-0.7575 0.6628125 -0.7575 0.6628125 0 0 Z " fill="#1E83B9" transform="translate(84,106)"/>
<path d="M0 0 C0.33 0 0.66 0 1 0 C1.125 7.75 1.125 7.75 0 10 C-0.66 10 -1.32 10 -2 10 C-1.34 6.7 -0.68 3.4 0 0 Z " fill="#D3EAF2" transform="translate(116,142)"/>
<path d="M0 0 C0 0.66 0 1.32 0 2 C-2.97 2 -5.94 2 -9 2 C-9 1.34 -9 0.68 -9 0 C-5.93109813 -1.53445094 -3.29905734 -0.54984289 0 0 Z " fill="#E81C28" transform="translate(43,122)"/>
<path d="M0 0 C0.66 0 1.32 0 2 0 C2 0.66 2 1.32 2 2 C3.32 1.67 4.64 1.34 6 1 C6 1.99 6 2.98 6 4 C4.02 4 2.04 4 0 4 C0 2.68 0 1.36 0 0 Z " fill="#CDE9F0" transform="translate(123,148)"/>
<path d="M0 0 C0.99 0 1.98 0 3 0 C2.74438677 2.3431213 2.40729228 4.67843403 2 7 C1.01 7.495 1.01 7.495 0 8 C0 5.36 0 2.72 0 0 Z " fill="#C1DFE9" transform="translate(132,144)"/>
<path d="M0 0 C2.0625 0.4375 2.0625 0.4375 4 1 C3.01 1 2.02 1 1 1 C1 1.66 1 2.32 1 3 C2.65 3.33 4.3 3.66 6 4 C6 4.33 6 4.66 6 5 C3.69 5 1.38 5 -1 5 C-1 1 -1 1 0 0 Z " fill="#E1EEF3" transform="translate(151,132)"/>
<path d="M0 0 C0.66 0.66 1.32 1.32 2 2 C1.625 5.125 1.625 5.125 1 8 C0.34 8 -0.32 8 -1 8 C-0.67 5.36 -0.34 2.72 0 0 Z " fill="#2288B7" transform="translate(32,144)"/>
<path d="M0 0 C0.33 0.99 0.66 1.98 1 3 C1.66 3 2.32 3 3 3 C2.67 3.99 2.34 4.98 2 6 C0.35 6.33 -1.3 6.66 -3 7 C-2.01 4.69 -1.02 2.38 0 0 Z " fill="#3289B7" transform="translate(90,126)"/>
<path d="M0 0 C7.50769231 -0.36923077 7.50769231 -0.36923077 10 1.5 C10.495 2.2425 10.495 2.2425 11 3 C7.31733897 2.40049704 3.65456815 1.75241109 0 1 C0 0.67 0 0.34 0 0 Z " fill="#DAEEF7" transform="translate(153,113)"/>
</svg>
