<svg width="200" height="80" viewBox="0 0 200 80" xmlns="http://www.w3.org/2000/svg">
  <defs>
    <radialGradient id="shellGradient" cx="50%" cy="50%" r="50%">
      <stop offset="0%" style="stop-color:#FFD700;stop-opacity:1" />
      <stop offset="100%" style="stop-color:#FFA500;stop-opacity:1" />
    </radialGradient>
  </defs>
  
  <!-- Shell scallop design -->
  <path d="M 100 20 
           Q 60 20 40 40
           Q 20 60 40 80
           Q 60 100 100 100
           Q 140 100 160 80
           Q 180 60 160 40
           Q 140 20 100 20 Z" 
        fill="url(#shellGradient)" 
        stroke="#E31E24" 
        stroke-width="3"/>
  
  <!-- Shell ridges -->
  <path d="M 100 20 Q 80 30 80 50 Q 80 70 100 80" stroke="#E31E24" stroke-width="2" fill="none"/>
  <path d="M 100 20 Q 120 30 120 50 Q 120 70 100 80" stroke="#E31E24" stroke-width="2" fill="none"/>
  <path d="M 100 20 Q 70 40 70 60 Q 70 80 100 90" stroke="#E31E24" stroke-width="2" fill="none"/>
  <path d="M 100 20 Q 130 40 130 60 Q 130 80 100 90" stroke="#E31E24" stroke-width="2" fill="none"/>
</svg>
